{"glyphs":{"0":{"x_min":15,"x_max":611,"ha":632,"o":"m 611 347 l 611 347 q 611 279 591 211 q 570 142 531 87 q 491 31 432 -3 q 373 -38 296 -38 l 296 -38 q 231 -38 179 -4 q 127 30 91 83 q 54 135 35 198 q 15 260 15 318 l 15 318 q 15 359 26 404 q 37 449 58 493 q 78 537 107 578 q 135 618 171 649 q 206 679 248 697 q 289 715 334 715 l 334 715 q 411 715 464 682 q 517 649 550 597 q 582 544 597 479 q 611 413 611 347 m 466 352 l 466 352 q 466 377 459 411 q 452 445 438 475 q 423 505 400 526 q 377 547 345 547 l 345 547 q 306 547 276 523 q 245 498 224 462 q 203 426 192 385 q 180 344 180 311 l 180 311 q 180 285 187 252 q 194 219 209 190 q 224 160 248 140 q 271 119 303 119 l 303 119 q 342 119 373 144 q 403 168 424 204 q 444 239 455 280 q 466 320 466 352"},"1":{"x_min":26,"x_max":220,"ha":276,"o":"m 220 493 l 220 493 q 220 462 219 431 q 218 400 217 369 l 217 369 q 215 318 215 268 q 215 217 212 166 l 212 166 q 211 149 210 121 q 209 92 203 65 q 196 37 182 17 q 168 -4 143 -4 l 143 -4 q 119 -4 104 13 q 89 29 81 55 q 72 80 69 112 q 66 143 66 174 q 65 204 66 230 q 67 256 67 270 l 67 270 q 67 338 68 406 q 68 474 69 542 l 69 542 q 49 559 38 584 q 26 608 26 634 l 26 634 q 26 675 51 704 q 75 733 118 733 l 118 733 q 155 733 176 705 q 197 677 207 638 q 216 599 218 559 q 220 518 220 493"},"2":{"x_min":10,"x_max":499,"ha":519,"o":"m 499 92 l 499 92 q 499 63 480 45 q 461 27 434 22 l 434 22 q 404 15 366 10 q 328 4 289 0 q 249 -4 211 -6 q 173 -8 142 -8 l 142 -8 q 134 -8 120 -7 q 105 -7 90 -5 q 74 -4 61 -1 q 47 2 40 7 l 40 7 q 33 13 28 24 q 22 34 18 47 q 14 59 12 71 q 10 83 10 92 l 10 92 q 10 106 14 118 q 17 129 27 139 l 27 139 q 39 152 52 165 q 65 177 77 189 l 77 189 q 91 204 114 229 q 137 253 164 284 q 190 314 217 348 q 243 381 265 413 q 287 445 301 473 q 314 501 314 521 l 314 521 q 314 540 303 553 q 292 565 273 565 l 273 565 q 252 565 234 550 q 216 535 198 518 q 180 500 160 485 q 139 470 113 470 l 113 470 q 82 470 65 488 q 47 506 47 536 l 47 536 q 47 580 67 618 q 86 655 118 682 q 150 709 190 725 q 230 740 272 740 l 272 740 q 315 740 352 730 q 389 720 416 699 q 443 678 459 646 q 474 613 474 567 l 474 567 q 474 531 462 492 q 449 452 429 412 q 408 372 382 333 q 355 293 327 257 q 299 221 271 190 q 243 159 220 136 l 220 136 q 269 142 323 148 q 377 154 427 154 l 427 154 q 456 154 478 139 q 499 123 499 92"},"3":{"x_min":26,"x_max":468,"ha":499,"o":"m 468 232 l 468 232 q 468 176 446 129 q 424 82 387 48 q 350 13 301 -6 q 252 -26 199 -26 l 199 -26 q 179 -26 150 -22 q 120 -19 93 -9 q 66 1 47 18 q 28 35 28 62 l 28 62 q 28 91 44 107 q 59 123 88 123 l 88 123 q 117 123 145 118 q 172 112 201 112 l 201 112 q 223 112 245 119 q 267 126 285 140 q 302 153 313 172 q 324 190 324 214 l 324 214 q 324 227 319 246 q 314 265 305 282 q 296 298 283 310 q 270 322 254 322 l 254 322 q 239 322 225 317 q 210 312 195 307 q 179 301 163 296 q 147 291 130 291 l 130 291 q 108 291 98 310 q 87 328 87 346 l 87 346 q 87 388 125 403 l 125 403 q 145 411 176 425 q 206 438 235 456 q 264 474 285 497 q 306 519 306 545 l 306 545 q 306 565 290 584 q 274 603 252 603 l 252 603 q 230 603 211 591 q 192 579 174 565 q 155 550 136 538 q 116 526 94 526 l 94 526 q 83 526 71 531 q 59 535 49 543 q 39 550 33 561 q 26 572 26 584 l 26 584 q 26 598 32 613 q 38 628 46 639 l 46 639 q 80 691 137 717 q 193 743 253 743 l 253 743 q 345 743 400 693 q 454 643 454 552 l 454 552 q 454 498 432 457 q 409 416 355 398 l 355 398 q 384 392 406 376 q 427 359 441 336 q 455 313 462 286 q 468 259 468 232"},"4":{"x_min":31,"x_max":564,"ha":544,"o":"m 564 403 l 564 403 q 564 377 550 362 q 536 347 512 342 l 512 342 q 465 331 420 327 l 420 327 q 416 288 413 250 q 410 211 407 173 l 407 173 q 405 155 403 124 q 401 92 394 62 q 386 32 372 10 q 357 -13 332 -13 l 332 -13 q 308 -13 295 8 q 281 29 274 57 q 267 85 265 114 q 263 142 263 158 l 263 158 q 263 199 266 239 q 268 278 270 318 l 270 318 q 244 316 218 316 q 192 315 166 315 l 166 315 q 154 315 136 316 q 118 316 100 318 q 82 320 67 326 q 51 331 44 342 l 44 342 q 39 349 37 367 q 34 384 33 405 q 31 425 31 444 q 31 463 31 472 l 31 472 q 31 495 31 517 q 31 539 33 562 l 33 562 q 34 584 36 615 q 37 645 46 673 q 54 701 71 721 q 87 741 118 741 l 118 741 q 137 741 149 723 q 160 705 167 681 q 173 657 175 633 q 177 608 177 595 l 177 595 q 177 565 175 535 q 172 505 167 476 l 167 476 q 196 478 225 480 q 253 481 282 483 l 282 483 q 283 493 286 524 q 288 554 292 589 q 296 623 300 653 q 304 683 308 692 l 308 692 q 316 711 333 724 q 350 736 372 736 l 372 736 q 398 736 409 720 q 420 704 424 682 l 424 682 q 429 654 430 624 q 431 594 431 565 l 431 565 q 431 522 428 479 l 428 479 q 450 477 471 474 q 492 471 514 466 l 514 466 q 538 461 551 444 q 564 427 564 403"},"5":{"x_min":36,"x_max":506,"ha":526,"o":"m 506 234 l 506 234 q 506 175 488 129 q 469 83 436 51 q 402 19 356 2 q 309 -15 252 -15 l 252 -15 q 221 -15 184 -4 q 146 7 113 28 q 80 49 58 79 q 36 108 36 144 l 36 144 q 36 170 52 186 q 68 202 94 202 l 94 202 q 119 202 136 192 q 153 182 170 170 q 186 157 207 147 q 228 137 261 137 l 261 137 q 301 137 326 165 q 351 193 351 232 l 351 232 q 351 269 334 296 q 317 323 278 323 l 278 323 q 260 323 246 319 q 231 315 218 310 q 204 305 191 301 q 177 296 163 294 l 163 294 q 152 292 135 296 q 118 299 101 306 q 83 313 69 323 q 55 332 51 343 l 51 343 q 48 352 46 382 q 43 412 42 447 q 40 482 40 514 q 39 545 39 557 l 39 557 q 39 565 39 583 q 39 601 41 621 q 42 640 44 657 q 46 674 51 680 l 51 680 q 57 689 81 697 q 104 705 136 712 q 167 719 204 725 q 241 730 275 734 q 308 738 336 740 q 363 742 375 742 l 375 742 q 389 742 405 739 q 420 735 433 728 q 445 720 453 708 q 461 696 461 679 l 461 679 q 461 652 442 636 q 423 620 400 612 l 400 612 q 382 606 356 602 q 330 598 303 595 q 276 591 251 589 q 225 587 206 586 l 206 586 l 208 441 q 228 445 248 448 q 268 450 289 450 l 289 450 q 395 450 451 395 q 506 340 506 234"},"6":{"x_min":15,"x_max":515,"ha":541,"o":"m 515 218 l 515 218 q 515 160 495 116 q 474 72 439 43 q 404 14 357 -1 q 309 -16 254 -16 l 254 -16 q 192 -16 147 9 q 101 34 72 76 q 43 117 29 170 q 15 222 15 278 l 15 278 q 15 318 29 368 q 43 418 68 470 q 93 521 126 570 q 159 618 197 656 q 235 694 277 717 q 318 740 358 740 l 358 740 q 381 740 400 728 q 418 715 418 690 l 418 690 q 418 676 406 660 q 394 644 378 629 q 361 613 344 599 q 326 584 316 572 l 316 572 q 293 546 274 517 q 254 487 240 455 l 240 455 q 255 460 271 463 q 287 465 303 465 l 303 465 q 354 465 394 444 q 433 423 460 389 q 487 354 501 310 q 515 265 515 218 m 375 217 l 375 217 q 375 270 343 299 q 310 327 259 327 l 259 327 q 242 327 220 322 q 198 317 182 307 l 182 307 q 176 303 175 292 q 174 281 174 274 l 174 274 q 174 251 181 226 q 187 200 200 178 q 213 156 233 142 q 253 128 280 128 l 280 128 q 321 128 348 151 q 375 174 375 217"},"7":{"x_min":15,"x_max":524,"ha":535,"o":"m 524 660 l 524 660 q 524 646 517 621 q 509 596 498 565 q 486 533 472 499 q 457 464 443 433 q 429 401 417 374 q 405 347 398 332 l 398 332 q 385 302 365 257 q 345 211 322 164 q 299 116 275 75 q 250 33 229 10 l 229 10 q 208 -13 179 -13 l 179 -13 q 157 -13 142 1 q 127 15 127 38 l 127 38 q 127 69 141 112 q 154 155 173 200 q 191 244 211 286 q 231 328 245 358 l 245 358 q 271 417 297 475 q 323 532 349 591 l 349 591 q 335 593 320 594 q 304 595 290 595 l 290 595 q 239 595 186 588 q 132 580 82 570 l 82 570 q 77 569 67 569 l 67 569 q 44 569 30 583 q 15 597 15 620 l 15 620 q 15 644 32 662 q 48 680 75 693 q 101 705 134 713 q 166 721 198 726 q 229 731 256 733 q 283 734 299 734 l 299 734 q 316 734 349 732 q 381 729 416 724 q 450 718 479 709 q 508 699 518 684 l 518 684 q 523 678 524 673 q 524 667 524 660"},"8":{"x_min":10,"x_max":586,"ha":606,"o":"m 586 185 l 586 185 q 586 123 556 78 q 526 33 480 4 q 433 -25 377 -39 q 320 -53 266 -53 l 266 -53 q 226 -53 181 -41 q 136 -30 98 -6 q 60 17 35 53 q 10 89 10 137 l 10 137 q 10 176 23 211 q 36 245 59 275 q 81 304 111 327 q 140 350 173 367 l 173 367 q 148 375 125 390 q 101 405 83 425 q 65 445 54 470 q 43 495 43 523 l 43 523 q 43 578 73 619 q 102 659 147 685 q 192 711 245 724 q 297 736 343 736 l 343 736 q 378 736 414 728 q 450 720 480 702 q 509 684 528 655 q 547 626 547 585 l 547 585 q 547 521 511 473 q 474 424 420 394 l 420 394 q 455 385 486 365 q 516 345 539 318 q 561 290 574 256 q 586 222 586 185 m 395 562 l 395 562 q 395 574 388 581 q 380 588 370 593 q 359 597 348 599 q 336 600 328 600 l 328 600 q 316 600 297 597 q 278 594 260 587 q 242 580 229 569 q 216 557 216 541 l 216 541 q 216 524 225 512 q 234 499 248 490 q 261 481 277 477 q 292 472 306 471 l 306 471 q 316 477 331 487 q 346 496 361 509 q 375 521 385 535 q 395 548 395 562 m 422 179 l 422 179 q 422 203 411 223 q 400 242 383 256 q 365 270 344 280 q 322 289 301 293 l 301 293 q 281 284 259 271 q 237 257 219 239 q 200 221 188 200 q 176 178 176 153 l 176 153 q 176 135 189 123 q 202 111 220 104 q 238 97 258 94 q 277 91 290 91 l 290 91 q 310 91 334 96 q 357 100 377 111 q 396 121 409 138 q 422 155 422 179"},"9":{"x_min":26,"x_max":517,"ha":532,"o":"m 517 462 l 517 462 q 517 422 504 370 q 490 318 467 264 q 443 210 412 158 q 380 106 343 65 q 305 24 265 -1 q 224 -26 183 -26 l 183 -26 q 161 -26 144 -12 q 126 1 126 25 l 126 25 q 126 36 130 44 q 133 51 139 59 l 139 59 q 161 87 184 111 q 207 134 230 158 q 252 181 273 207 q 294 233 311 267 l 311 267 q 278 258 243 258 l 243 258 q 193 258 153 274 q 112 289 84 318 q 56 347 41 388 q 26 428 26 478 l 26 478 q 26 534 44 581 q 61 628 94 663 q 126 697 172 717 q 217 736 274 736 l 274 736 q 334 736 380 715 q 425 693 456 656 q 486 618 502 568 q 517 518 517 462 m 384 480 l 384 480 q 384 504 378 527 q 371 550 358 568 q 345 586 326 597 q 306 608 279 608 l 279 608 q 225 608 194 575 q 162 541 162 487 l 162 487 q 162 435 191 408 q 219 380 270 380 l 270 380 q 323 380 354 403 q 384 426 384 480"},"ð":{"x_min":15,"x_max":527,"ha":507,"o":"m 208 393 l 208 393 q 189 393 179 382 q 168 371 163 356 q 157 340 156 322 q 155 304 155 291 l 155 291 q 155 279 157 255 q 159 231 165 208 q 170 184 180 166 q 190 148 207 148 l 207 148 q 231 148 249 159 q 267 169 279 186 q 290 202 296 223 q 301 244 301 266 l 301 266 q 301 287 296 310 q 290 332 279 351 q 267 369 250 381 q 232 393 208 393 m 527 644 l 527 644 q 527 633 508 627 q 489 620 462 615 l 462 615 q 462 560 462 492 q 462 424 455 355 q 448 285 433 219 q 418 153 389 102 q 359 50 313 19 q 267 -12 200 -12 l 200 -12 q 155 -12 121 19 q 86 50 63 94 q 39 138 27 186 q 15 234 15 269 l 15 269 q 15 294 18 326 q 21 358 29 391 q 36 424 48 456 q 60 487 79 512 q 97 537 123 552 q 148 567 181 567 l 181 567 q 217 567 250 546 q 283 525 300 494 l 300 494 q 303 549 306 608 l 306 608 q 288 608 267 610 q 245 612 226 616 q 206 619 193 626 q 180 633 180 644 l 180 644 q 180 656 193 665 q 205 673 225 679 q 244 684 267 687 q 290 690 311 691 l 311 691 q 312 710 316 730 q 320 749 328 765 q 335 781 348 791 q 361 801 382 801 l 382 801 q 407 801 423 790 q 438 779 447 762 q 455 744 458 723 q 461 701 461 681 l 461 681 q 488 675 508 667 q 527 658 527 644"},"Ł":{"x_min":-33,"x_max":515,"ha":510,"o":"m 334 472 l 334 472 q 338 465 329 453 q 320 441 304 427 q 287 412 266 397 q 244 382 223 369 l 223 369 q 221 327 220 285 q 219 243 219 201 l 219 201 l 219 162 q 265 176 318 189 q 370 201 418 201 l 418 201 q 435 201 453 199 q 470 197 484 191 q 498 184 507 172 q 515 159 515 138 l 515 138 q 515 113 495 91 q 474 69 442 51 q 409 33 369 20 q 329 6 290 -3 q 250 -13 216 -18 q 181 -23 161 -23 l 161 -23 q 142 -23 121 -20 q 99 -17 85 -4 l 85 -4 q 76 4 68 36 q 60 67 54 108 q 48 149 44 193 q 40 236 39 268 l 39 268 q 15 258 -3 256 q -22 253 -29 262 l -29 262 q -33 270 -29 280 q -25 290 -15 302 q -6 313 9 325 q 23 337 39 349 l 39 349 q 40 392 45 447 q 49 501 56 554 q 63 606 74 650 q 85 693 100 715 l 100 715 q 109 728 121 735 q 132 742 149 742 l 149 742 q 169 742 183 729 q 196 715 205 694 q 214 672 218 646 q 222 619 224 593 q 226 567 226 545 q 226 523 226 510 l 226 510 q 226 496 226 483 q 225 469 225 455 l 225 455 q 243 462 261 468 q 279 474 294 477 q 309 480 320 479 q 331 478 334 472"},"ł":{"x_min":-28,"x_max":343,"ha":279,"o":"m 339 472 l 339 472 q 343 464 333 451 q 322 438 304 422 q 285 406 261 390 q 237 374 215 360 l 215 360 q 217 295 221 232 q 224 168 224 103 l 224 103 q 224 85 222 63 q 220 40 213 21 q 205 2 191 -11 q 176 -24 151 -24 l 151 -24 q 124 -24 106 6 q 87 35 75 79 q 62 123 56 174 q 49 225 46 269 l 46 269 q 21 259 2 256 q -18 252 -23 262 l -23 262 q -28 269 -24 280 q -20 290 -10 301 q -1 312 13 325 q 27 337 43 349 l 43 349 l 43 359 q 43 378 45 414 q 47 450 52 492 q 56 534 65 578 q 74 621 88 657 q 101 692 121 715 q 140 737 167 737 l 167 737 q 189 737 201 723 q 212 708 217 688 q 222 667 223 645 q 224 622 224 606 l 224 606 q 224 567 222 528 q 219 489 217 449 l 217 449 q 236 457 256 465 q 276 472 294 476 q 311 479 323 479 q 335 479 339 472"},"Š":{"x_min":5,"x_max":357,"ha":362,"o":"m 357 702 l 357 702 q 357 679 343 662 q 328 645 308 634 l 308 634 q 290 623 271 611 q 252 598 236 583 q 220 567 210 548 q 200 529 200 505 l 200 505 q 200 484 210 467 q 220 450 235 434 q 249 417 267 400 q 284 382 299 361 q 313 339 323 312 q 333 285 333 249 l 333 249 q 333 224 323 193 q 312 161 294 129 q 276 97 252 67 q 227 37 200 14 q 172 -10 142 -24 q 112 -39 84 -39 l 84 -39 q 53 -39 29 -22 q 5 -5 5 29 l 5 29 q 5 52 16 72 q 27 91 43 109 q 59 127 79 144 q 98 161 114 178 q 130 195 141 214 q 152 232 152 253 l 152 253 q 152 282 132 313 q 111 343 86 376 q 61 408 41 442 q 20 476 20 511 l 20 511 q 20 554 43 602 q 66 649 102 689 q 138 728 183 754 q 228 780 272 780 l 272 780 q 307 780 332 759 q 357 738 357 702 m 72 987 l 72 987 q 72 995 75 997 q 78 999 85 999 l 85 999 q 97 999 112 993 q 126 986 141 977 q 156 968 170 958 q 183 948 192 941 l 192 941 q 201 949 215 960 q 228 971 243 981 q 258 990 273 997 q 288 1003 301 1003 l 301 1003 q 306 1003 311 1001 q 315 999 315 991 l 315 991 q 315 976 302 954 q 289 931 270 910 q 251 888 231 873 q 210 858 194 858 l 194 858 q 178 858 157 872 q 136 886 117 907 q 98 927 85 949 q 72 971 72 987"},"š":{"x_min":-20,"x_max":323,"ha":333,"o":"m 323 550 l 323 550 q 323 521 304 507 q 284 493 260 481 q 236 468 217 451 q 197 434 197 400 l 197 400 q 197 382 206 369 q 214 356 227 346 q 239 335 254 324 q 269 313 282 299 q 294 285 303 265 q 311 245 311 216 l 311 216 q 311 174 290 134 q 268 93 235 62 q 201 30 159 11 q 117 -8 76 -8 l 76 -8 q 59 -8 42 -5 q 25 -3 12 4 q -2 11 -11 24 q -20 36 -20 56 l -20 56 q -20 84 -9 100 q 2 115 19 124 q 36 133 56 138 q 75 143 92 151 q 109 158 120 170 q 131 182 131 204 l 131 204 q 131 225 115 248 q 98 270 78 296 q 58 321 42 350 q 25 379 25 414 l 25 414 q 25 457 43 494 q 60 530 90 557 q 119 584 157 600 q 195 615 237 615 l 237 615 q 253 615 269 612 q 284 609 296 602 q 308 594 316 582 q 323 569 323 550 m 72 833 l 72 833 q 72 841 75 843 q 78 845 85 845 l 85 845 q 97 845 112 839 q 126 832 141 823 q 156 814 170 804 q 183 794 192 787 l 192 787 q 201 795 215 806 q 228 817 243 827 q 258 836 273 843 q 288 849 301 849 l 301 849 q 306 849 311 847 q 315 845 315 837 l 315 837 q 315 822 302 800 q 289 777 270 756 q 251 734 231 719 q 210 704 194 704 l 194 704 q 178 704 157 718 q 136 732 117 753 q 98 773 85 795 q 72 817 72 833"},"Ý":{"x_min":10,"x_max":481,"ha":445,"o":"m 481 688 l 481 688 q 481 644 470 591 q 458 538 440 484 q 422 430 401 379 q 380 328 362 289 l 362 289 q 352 267 338 234 q 323 200 305 162 q 287 124 267 86 q 246 47 224 17 q 202 -14 179 -33 q 156 -53 133 -53 l 133 -53 q 101 -53 88 -29 q 74 -6 74 23 l 74 23 q 74 51 84 83 q 93 114 108 145 q 122 176 140 205 q 157 234 172 257 l 172 257 q 152 262 133 275 q 114 288 105 306 l 105 306 q 89 341 72 385 q 55 429 42 475 q 28 520 19 566 q 10 611 10 649 l 10 649 q 10 667 14 689 q 18 710 28 729 q 37 747 53 760 q 68 772 91 772 l 91 772 q 117 772 137 753 q 157 733 173 703 q 188 673 199 636 q 210 599 218 563 q 226 527 231 497 q 236 467 240 450 l 240 450 q 244 465 254 496 q 263 526 277 563 q 290 600 308 639 q 325 678 345 710 q 364 742 386 763 q 408 783 431 783 l 431 783 q 446 783 456 772 q 466 761 472 746 q 477 731 479 715 q 481 699 481 688 m 374 921 l 374 921 q 374 910 368 900 q 362 889 354 880 q 345 871 335 864 q 325 856 317 850 l 317 850 q 310 845 302 839 q 293 832 284 827 q 274 821 265 817 q 255 813 246 813 l 246 813 q 238 813 232 818 q 226 822 226 831 l 226 831 q 226 846 238 868 q 249 889 266 910 q 283 930 302 945 q 321 959 337 959 l 337 959 q 351 959 363 948 q 374 936 374 921"},"ý":{"x_min":14,"x_max":495,"ha":530,"o":"m 247 -291 l 247 -291 q 223 -291 193 -283 q 162 -276 135 -262 q 108 -248 90 -228 q 71 -208 71 -182 l 71 -182 q 71 -172 76 -162 q 81 -152 90 -144 q 98 -137 108 -132 q 118 -128 129 -128 l 129 -128 q 141 -128 153 -131 q 164 -135 176 -140 l 176 -140 q 189 -145 202 -149 q 214 -153 228 -153 l 228 -153 q 253 -153 272 -136 q 290 -119 303 -91 q 316 -64 324 -30 q 332 3 337 36 q 341 69 343 98 q 345 127 346 145 l 346 145 q 311 92 277 64 q 242 35 192 35 l 192 35 q 154 35 126 51 q 97 67 77 93 q 57 119 44 153 q 31 186 25 222 q 18 258 16 293 q 14 327 16 356 l 16 356 q 17 378 22 414 q 26 449 36 483 q 46 517 64 541 q 82 564 111 562 l 111 562 q 130 561 142 546 q 154 530 162 507 q 169 484 173 457 q 176 429 177 402 q 178 375 178 353 q 177 330 177 318 l 177 318 q 177 301 178 284 q 179 267 185 254 q 191 240 204 232 q 216 224 239 224 l 239 224 q 265 224 281 237 q 296 250 304 270 q 311 289 313 312 q 315 334 315 354 l 315 354 q 315 368 315 388 q 315 408 316 430 q 316 452 320 474 q 323 495 331 513 q 338 530 351 541 q 363 552 383 552 l 383 552 q 408 552 426 533 q 444 513 457 482 q 469 450 477 412 q 484 374 488 337 q 492 299 494 268 q 495 236 495 218 l 495 218 q 495 176 492 123 q 489 69 481 13 q 472 -44 455 -98 q 438 -153 411 -196 q 383 -239 343 -265 q 303 -291 247 -291 m 374 718 l 374 718 q 374 707 368 697 q 362 686 354 677 q 345 668 335 661 q 325 653 317 647 l 317 647 q 310 642 302 636 q 293 629 284 624 q 274 618 265 614 q 255 610 246 610 l 246 610 q 238 610 232 615 q 226 619 226 628 l 226 628 q 226 643 238 665 q 249 686 266 707 q 283 727 302 742 q 321 756 337 756 l 337 756 q 351 756 363 745 q 374 733 374 718"},"Þ":{"x_min":31,"x_max":506,"ha":501,"o":"m 506 396 l 506 396 q 506 334 479 287 q 451 239 408 206 q 364 173 310 155 q 255 136 201 132 l 201 132 q 199 118 194 91 q 188 63 178 36 q 167 9 152 -11 q 136 -32 114 -32 l 114 -32 q 92 -32 78 -11 q 63 9 54 42 q 45 74 40 113 q 35 152 33 189 q 31 226 31 256 q 31 285 31 299 l 31 299 l 31 388 q 31 403 31 436 q 31 469 33 511 q 35 552 40 596 q 44 640 53 677 q 62 713 77 737 q 91 760 113 760 l 113 760 q 138 760 155 739 q 171 718 180 690 q 189 661 193 631 q 197 601 197 583 l 197 583 q 205 583 215 585 q 224 586 233 587 l 233 587 q 261 590 290 590 l 290 590 q 338 590 378 579 q 417 568 446 545 q 474 522 490 485 q 506 448 506 396 m 348 373 l 348 373 q 349 409 329 432 q 309 455 271 455 l 271 455 q 254 455 237 451 q 220 447 204 441 l 204 441 q 202 396 203 352 q 203 307 201 262 l 201 262 l 204 262 q 229 262 254 269 q 279 276 300 290 q 321 304 334 325 q 347 345 348 373"},"þ":{"x_min":31,"x_max":488,"ha":518,"o":"m 488 298 l 488 298 q 488 254 479 202 q 469 149 447 104 q 424 59 387 29 q 350 -1 295 -1 l 295 -1 q 267 -1 238 8 q 209 16 196 44 l 196 44 q 195 27 195 -4 q 194 -36 192 -72 q 189 -109 185 -147 q 180 -185 171 -216 q 162 -247 147 -266 q 132 -286 110 -286 l 110 -286 q 88 -286 74 -252 q 60 -218 51 -165 q 42 -113 38 -50 q 34 13 33 72 q 31 130 31 176 q 31 221 31 239 l 31 239 l 31 243 q 31 263 31 309 q 31 355 33 413 q 35 470 40 532 q 45 593 54 644 q 63 695 78 728 q 93 760 114 760 l 114 760 q 143 760 158 730 q 173 700 179 660 q 185 619 186 579 q 186 538 186 517 l 186 517 l 186 503 q 214 528 250 545 q 286 561 324 561 l 324 561 q 373 561 405 535 q 437 508 456 469 q 474 429 481 383 q 488 337 488 298 m 344 306 l 344 306 q 344 321 342 337 q 339 352 333 366 q 326 379 315 388 q 303 396 285 396 l 285 396 q 260 396 242 388 q 223 380 211 366 q 199 352 194 333 q 188 314 188 292 l 188 292 q 188 285 189 274 q 189 262 190 250 q 191 238 193 227 q 194 216 196 210 l 196 210 q 199 201 209 194 q 219 186 231 180 q 243 174 256 171 q 268 168 277 168 l 277 168 q 298 168 311 184 q 324 200 332 222 q 339 244 342 268 q 344 291 344 306"},"Ž":{"x_min":5,"x_max":450,"ha":439,"o":"m 450 662 l 450 662 q 450 657 441 633 q 431 609 415 574 q 399 539 379 496 q 358 452 336 407 q 314 361 293 317 q 272 273 255 238 q 237 202 225 178 q 213 153 210 147 l 210 147 q 241 157 274 164 q 306 170 339 170 l 339 170 q 355 170 373 168 q 391 165 407 158 q 422 150 433 138 q 443 125 443 104 l 443 104 q 443 82 428 65 q 413 47 390 34 q 366 21 336 12 q 306 3 276 -3 q 246 -9 219 -11 q 192 -14 174 -14 l 174 -14 q 151 -14 124 -12 q 96 -10 71 -1 q 46 8 30 26 q 13 43 13 75 l 13 75 q 13 97 26 135 q 38 172 55 212 q 72 251 91 288 q 109 324 120 345 l 120 345 q 154 408 189 471 q 223 533 256 597 l 256 597 q 221 577 176 561 q 131 544 91 544 l 91 544 q 77 544 62 548 q 46 552 34 560 q 21 567 13 579 q 5 591 5 607 l 5 607 q 5 633 22 655 q 39 677 67 695 q 94 713 129 727 q 163 741 198 750 q 233 759 265 764 q 296 769 318 769 l 318 769 q 376 769 413 746 q 450 723 450 662 m 123 966 l 123 966 q 123 974 126 976 q 129 978 136 978 l 136 978 q 148 978 163 972 q 177 965 192 956 q 207 947 221 937 q 234 927 243 920 l 243 920 q 252 928 266 939 q 279 950 294 960 q 309 969 324 976 q 339 982 352 982 l 352 982 q 357 982 362 980 q 366 978 366 970 l 366 970 q 366 955 353 933 q 340 910 321 889 q 302 867 282 852 q 261 837 245 837 l 245 837 q 229 837 208 851 q 187 865 168 886 q 149 906 136 928 q 123 950 123 966"},"ž":{"x_min":0,"x_max":479,"ha":469,"o":"m 479 94 l 479 94 q 479 74 463 59 q 446 44 421 32 q 395 20 363 12 q 330 4 299 -1 q 267 -6 239 -8 q 211 -11 194 -11 l 194 -11 q 177 -11 147 -10 q 116 -9 86 -2 q 56 4 34 19 q 12 33 12 59 l 12 59 q 12 79 26 108 q 40 137 62 171 q 84 205 111 241 q 138 276 164 309 q 190 342 213 370 q 236 397 249 415 l 249 415 q 235 412 214 407 q 192 401 169 396 q 146 391 125 388 q 103 384 88 384 l 88 384 q 76 384 61 389 q 46 393 33 401 q 19 409 10 420 q 0 431 0 445 l 0 445 q 0 463 16 479 q 32 494 58 507 q 84 519 116 529 q 148 538 179 545 q 210 551 238 554 q 266 557 283 557 l 283 557 q 302 557 329 553 q 356 549 382 539 q 407 529 425 512 q 443 495 443 469 l 443 469 q 443 461 442 455 q 440 448 438 440 l 438 440 q 436 433 421 409 q 405 384 383 351 q 360 317 334 279 q 307 240 283 206 q 259 172 241 146 q 223 120 217 111 l 217 111 q 258 122 301 130 q 343 137 385 137 l 385 137 q 395 137 411 136 q 427 135 442 131 q 457 126 468 118 q 479 109 479 94 m 123 772 l 123 772 q 123 780 126 782 q 129 784 136 784 l 136 784 q 148 784 163 778 q 177 771 192 762 q 207 753 221 743 q 234 733 243 726 l 243 726 q 252 734 266 745 q 279 756 294 766 q 309 775 324 782 q 339 788 352 788 l 352 788 q 357 788 362 786 q 366 784 366 776 l 366 776 q 366 761 353 739 q 340 716 321 695 q 302 673 282 658 q 261 643 245 643 l 245 643 q 229 643 208 657 q 187 671 168 692 q 149 712 136 734 q 123 756 123 772"},"½":{"x_min":41,"x_max":648,"ha":679,"o":"m 648 54 l 648 54 q 648 37 637 26 q 626 15 609 11 l 609 11 q 569 3 522 -1 q 475 -6 434 -6 l 434 -6 q 423 -6 402 -5 q 381 -4 373 3 l 373 3 q 363 10 359 27 q 354 43 354 54 l 354 54 q 354 63 356 70 q 358 76 365 82 l 365 82 q 372 90 380 98 q 387 105 394 113 l 394 113 q 407 126 431 152 q 455 178 479 208 q 502 237 520 265 q 537 293 537 311 l 537 311 q 537 323 530 331 q 523 338 512 338 l 512 338 q 499 338 489 329 q 478 320 468 310 q 457 299 445 290 q 433 281 417 281 l 417 281 q 377 281 377 321 l 377 321 q 377 347 389 370 q 400 392 419 408 q 438 424 463 433 q 487 442 512 442 l 512 442 q 565 442 599 418 q 633 394 633 339 l 633 339 q 633 307 617 271 q 601 234 578 199 q 554 163 528 133 q 502 102 481 81 l 481 81 q 511 84 543 88 q 574 91 605 91 l 605 91 q 622 91 635 82 q 648 72 648 54 m 492 726 l 492 726 q 492 707 483 678 q 474 648 460 613 q 445 578 427 541 q 409 503 391 468 q 373 433 358 404 q 342 374 332 355 l 332 355 q 325 342 308 310 q 290 277 268 237 q 245 196 220 152 q 194 108 170 72 q 145 36 125 13 q 105 -11 93 -11 l 93 -11 q 83 -11 80 -1 q 77 9 77 17 l 77 17 q 77 37 87 68 q 96 99 111 136 q 126 172 145 212 q 163 251 182 288 q 201 324 217 355 q 233 386 244 407 l 244 407 q 251 420 267 451 q 283 482 305 520 q 326 558 351 599 q 375 640 399 674 q 422 707 443 729 q 463 751 476 751 l 476 751 q 485 751 489 742 q 492 733 492 726 m 158 614 l 158 614 q 158 598 159 570 q 159 542 159 509 q 159 476 157 442 q 155 407 150 380 q 145 352 136 334 q 126 316 112 316 l 112 316 q 90 316 80 337 q 70 357 67 385 q 64 413 65 440 q 66 467 66 481 l 66 481 q 66 523 67 563 q 67 603 67 644 l 67 644 q 41 667 41 699 l 41 699 q 41 724 56 742 q 71 759 96 759 l 96 759 q 119 759 132 742 q 144 725 150 702 q 156 679 157 654 q 158 629 158 614"},"¼":{"x_min":41,"x_max":743,"ha":759,"o":"m 743 241 l 743 241 q 743 211 712 204 l 712 204 q 698 201 684 199 q 670 197 655 195 l 655 195 q 653 172 652 149 q 650 125 648 102 l 648 102 q 647 91 646 73 q 645 54 641 36 q 636 18 627 5 q 618 -9 603 -9 l 603 -9 q 589 -9 581 4 q 572 16 568 33 q 564 49 563 67 q 562 84 562 93 l 562 93 q 562 118 564 142 q 565 166 566 189 l 566 189 q 550 188 535 188 q 519 187 504 187 l 504 187 q 496 187 486 188 q 475 188 465 190 q 454 191 445 195 q 435 198 431 204 l 431 204 q 428 208 427 219 q 425 229 424 242 q 423 254 423 265 q 423 276 423 282 l 423 282 q 423 298 423 326 q 423 353 427 379 q 431 405 442 424 q 453 443 475 443 l 475 443 q 487 443 494 432 q 500 421 504 407 q 508 392 509 377 q 510 362 510 355 l 510 355 q 510 338 509 320 q 507 302 505 285 l 505 285 q 522 286 539 287 q 556 287 573 289 l 573 289 q 573 295 575 313 q 576 331 579 352 q 581 372 584 390 q 586 408 589 414 l 589 414 q 594 425 604 433 q 614 440 628 440 l 628 440 q 643 440 651 428 q 658 416 661 400 q 664 383 664 366 q 663 348 663 338 l 663 338 q 663 325 663 312 q 662 299 660 287 l 660 287 q 672 286 686 285 q 700 283 713 279 q 726 274 735 266 q 743 257 743 241 m 492 726 l 492 726 q 492 707 483 678 q 474 648 460 613 q 445 578 427 541 q 409 503 391 468 q 373 433 358 404 q 342 374 332 355 l 332 355 q 325 342 308 310 q 290 277 268 237 q 245 196 220 152 q 194 108 170 72 q 145 36 125 13 q 105 -11 93 -11 l 93 -11 q 83 -11 80 -1 q 77 9 77 17 l 77 17 q 77 37 87 68 q 96 99 111 136 q 126 172 145 212 q 163 251 182 288 q 201 324 217 355 q 233 386 244 407 l 244 407 q 251 420 267 451 q 283 482 305 520 q 326 558 351 599 q 375 640 399 674 q 422 707 443 729 q 463 751 476 751 l 476 751 q 485 751 489 742 q 492 733 492 726 m 158 614 l 158 614 q 158 598 159 570 q 159 542 159 509 q 159 476 157 442 q 155 407 150 380 q 145 352 136 334 q 126 316 112 316 l 112 316 q 90 316 80 337 q 70 357 67 385 q 64 413 65 440 q 66 467 66 481 l 66 481 q 66 523 67 563 q 67 603 67 644 l 67 644 q 41 667 41 699 l 41 699 q 41 724 56 742 q 71 759 96 759 l 96 759 q 119 759 132 742 q 144 725 150 702 q 156 679 157 654 q 158 629 158 614"},"¹":{"x_min":41,"x_max":159,"ha":210,"o":"m 158 614 l 158 614 q 158 598 159 570 q 159 542 159 509 q 159 476 157 442 q 155 408 150 380 q 145 352 136 335 q 126 317 112 317 l 112 317 q 90 317 80 338 q 70 358 67 386 q 64 413 65 441 q 66 468 66 481 l 66 481 q 66 523 67 563 q 67 603 67 645 l 67 645 q 41 666 41 700 l 41 700 q 41 724 56 742 q 71 760 96 760 l 96 760 q 119 760 132 743 q 144 726 150 703 q 156 679 157 654 q 158 629 158 614"},"¾":{"x_min":31,"x_max":858,"ha":873,"o":"m 858 241 l 858 241 q 858 211 827 204 l 827 204 q 800 198 771 195 l 771 195 q 770 185 769 166 q 768 147 767 125 q 765 102 762 78 q 759 54 754 35 q 748 16 740 4 q 731 -9 719 -9 l 719 -9 q 705 -9 697 4 q 688 16 684 33 q 679 49 678 67 q 677 84 677 93 l 677 93 q 677 118 679 142 q 680 166 682 189 l 682 189 q 665 188 650 188 q 635 187 618 187 l 618 187 q 611 187 601 188 q 590 188 580 190 q 569 191 560 195 q 550 198 546 204 l 546 204 q 543 208 542 219 q 540 229 539 242 q 538 254 538 265 q 538 276 538 282 l 538 282 q 538 298 538 326 q 538 353 542 379 q 546 405 557 424 q 568 443 590 443 l 590 443 q 602 443 609 432 q 616 421 620 407 q 624 392 625 377 q 626 362 626 355 l 626 355 q 626 319 620 285 l 620 285 q 637 286 654 287 q 671 287 688 289 l 688 289 q 689 295 691 313 q 693 331 695 352 q 697 372 700 390 q 703 408 705 414 l 705 414 q 710 425 720 433 q 730 440 742 440 l 742 440 q 758 440 766 428 q 773 416 776 400 q 779 383 779 366 q 778 348 778 338 l 778 338 q 778 325 778 312 q 777 299 776 287 l 776 287 q 788 286 802 285 q 816 283 829 279 q 841 274 850 266 q 858 257 858 241 m 606 726 l 606 726 q 606 707 597 678 q 588 648 574 613 q 560 578 542 541 q 524 503 507 468 q 489 433 473 404 q 457 374 447 355 l 447 355 q 440 342 423 310 q 406 277 384 237 q 361 196 335 152 q 309 108 285 72 q 261 36 241 13 q 221 -11 209 -11 l 209 -11 q 199 -11 196 -1 q 193 9 193 17 l 193 17 q 193 37 203 68 q 212 99 227 136 q 242 172 261 211 q 279 250 298 287 q 316 323 333 355 q 349 386 359 407 l 359 407 q 366 420 382 451 q 398 482 420 520 q 441 558 466 599 q 491 640 515 674 q 538 707 559 729 q 579 751 592 751 l 592 751 q 601 751 604 742 q 606 733 606 726 m 296 458 l 296 458 q 296 425 283 397 q 270 368 248 348 q 225 327 196 316 q 166 304 134 304 l 134 304 q 122 304 105 306 q 87 308 71 314 q 55 319 44 329 q 32 339 32 356 l 32 356 q 32 393 69 393 l 69 393 q 86 393 103 390 q 119 386 136 386 l 136 386 q 149 386 163 391 q 176 395 187 403 q 197 411 204 422 q 210 433 210 447 l 210 447 q 210 455 207 467 q 204 478 199 488 q 193 498 186 505 q 178 512 168 512 l 168 512 q 148 512 131 503 q 113 494 93 494 l 93 494 q 80 494 74 505 q 68 516 68 527 l 68 527 q 68 552 90 561 l 90 561 q 102 566 121 574 q 139 582 157 593 q 175 603 188 617 q 200 630 200 645 l 200 645 q 200 659 190 670 q 180 681 167 681 l 167 681 q 154 681 143 674 q 131 667 120 658 q 109 649 97 642 q 85 635 72 635 l 72 635 q 58 635 45 645 q 31 654 31 669 l 31 669 q 31 691 46 709 q 60 726 81 739 q 102 751 126 758 q 149 765 167 765 l 167 765 l 170 765 q 224 765 256 735 q 288 704 288 650 l 288 650 q 288 618 274 594 q 260 569 228 558 l 228 558 q 263 550 280 521 q 296 491 296 458"},"³":{"x_min":31,"x_max":296,"ha":327,"o":"m 296 458 l 296 458 q 296 425 283 397 q 270 368 248 348 q 225 327 196 316 q 166 304 134 304 l 134 304 q 122 304 105 306 q 87 308 71 314 q 55 319 44 329 q 32 339 32 356 l 32 356 q 32 393 69 393 l 69 393 q 86 393 103 390 q 119 386 136 386 l 136 386 q 149 386 163 391 q 176 395 187 403 q 197 411 204 422 q 210 433 210 447 l 210 447 q 210 455 207 467 q 204 478 199 488 q 193 498 186 505 q 178 512 168 512 l 168 512 q 148 512 131 503 q 113 494 93 494 l 93 494 q 80 494 74 505 q 68 516 68 527 l 68 527 q 68 552 90 561 l 90 561 q 102 566 121 574 q 139 582 157 593 q 175 603 188 617 q 200 630 200 645 l 200 645 q 200 659 190 670 q 180 681 167 681 l 167 681 q 154 681 143 674 q 131 667 120 658 q 109 649 97 642 q 85 635 72 635 l 72 635 q 58 635 45 645 q 31 654 31 669 l 31 669 q 31 691 46 709 q 60 726 81 739 q 102 751 126 758 q 149 765 167 765 l 167 765 l 170 765 q 224 765 256 735 q 288 704 288 650 l 288 650 q 288 618 274 594 q 260 569 228 558 l 228 558 q 263 550 280 521 q 296 491 296 458"},"²":{"x_min":31,"x_max":324,"ha":354,"o":"m 324 379 l 324 379 q 324 362 313 351 q 301 340 286 337 l 286 337 q 246 328 199 323 q 151 318 110 318 l 110 318 q 105 318 96 319 q 87 319 78 320 q 69 321 61 323 q 52 325 48 328 l 48 328 q 40 335 36 352 q 31 369 31 379 l 31 379 q 31 387 33 394 q 35 401 41 408 l 41 408 q 48 416 56 423 q 63 430 71 438 l 71 438 q 84 451 108 477 q 131 503 155 533 q 178 563 196 591 q 213 619 213 637 l 213 637 q 213 648 207 656 q 200 663 188 663 l 188 663 q 176 663 165 654 q 154 645 143 635 q 132 624 120 615 q 108 606 92 606 l 92 606 q 74 606 64 617 q 53 628 53 645 l 53 645 q 53 672 65 695 q 77 717 96 734 q 115 750 139 759 q 163 768 188 768 l 188 768 q 240 768 275 744 q 309 719 309 664 l 309 664 q 309 632 293 596 q 277 559 254 524 q 230 489 204 458 q 178 427 157 406 l 157 406 q 188 410 219 413 q 250 416 281 416 l 281 416 q 298 416 311 407 q 324 397 324 379"},"¦":{"x_min":51,"x_max":164,"ha":215,"o":"m 163 585 l 163 585 q 163 577 162 559 q 161 540 160 520 q 158 500 156 483 q 154 465 152 459 l 152 459 q 148 451 132 448 q 115 445 108 445 l 108 445 q 99 445 88 447 q 77 449 73 458 l 73 458 q 69 465 65 488 q 61 510 58 536 q 55 561 53 584 q 51 607 51 616 l 51 616 q 51 625 52 645 q 53 665 55 687 q 56 709 58 728 q 60 747 62 755 l 62 755 q 66 765 81 768 q 95 770 103 770 l 103 770 q 112 770 126 768 q 140 765 144 757 l 144 757 q 146 752 150 728 q 153 703 156 674 q 159 645 161 619 q 163 593 163 585 m 164 121 l 164 121 q 164 113 163 93 q 162 73 161 51 q 159 28 157 9 q 155 -10 153 -16 l 153 -16 q 151 -21 146 -23 q 140 -26 133 -28 q 126 -30 119 -30 q 112 -31 108 -31 l 108 -31 q 100 -31 89 -28 q 78 -26 74 -17 l 74 -17 q 70 -10 66 15 q 62 39 59 67 q 56 94 54 120 q 52 145 52 155 l 52 155 q 52 165 53 187 q 54 208 56 231 q 57 254 59 275 q 61 296 63 304 l 63 304 q 66 315 81 317 q 95 319 104 319 l 104 319 q 113 319 127 317 q 141 314 145 305 l 145 305 q 147 300 151 274 q 154 248 157 217 q 160 185 162 157 q 164 129 164 121"},"−":{"x_min":31,"x_max":450,"ha":480,"o":"m 450 255 l 450 255 q 450 246 435 241 q 420 235 398 231 q 375 227 348 225 q 320 222 295 221 q 269 220 249 220 q 229 219 221 219 l 221 219 q 214 219 198 219 q 181 219 160 220 q 139 221 116 223 q 93 225 75 229 q 56 233 44 240 q 31 246 31 255 l 31 255 q 31 266 45 275 q 58 283 79 288 q 99 293 125 296 q 151 299 176 301 q 200 302 221 303 q 241 303 252 303 l 252 303 q 267 303 300 301 q 332 298 366 292 q 399 286 425 277 q 450 268 450 255"},"×":{"x_min":31,"x_max":387,"ha":418,"o":"m 387 436 l 387 436 q 387 422 372 397 q 356 372 336 345 q 315 317 295 293 q 275 268 266 257 l 266 257 q 276 246 294 227 q 312 208 329 187 q 345 165 358 143 q 370 121 370 103 l 370 103 q 370 83 351 83 l 351 83 q 333 83 312 96 q 291 109 271 128 q 251 146 234 165 q 216 184 205 196 l 205 196 q 193 182 174 163 q 155 143 134 125 q 112 107 90 94 q 67 81 48 81 l 48 81 q 31 81 31 98 l 31 98 q 31 114 46 139 q 61 163 81 187 q 101 211 122 232 q 142 253 153 263 l 153 263 q 145 273 129 296 q 112 319 95 345 q 78 370 65 395 q 52 419 52 433 l 52 433 q 52 441 57 448 q 61 455 71 455 l 71 455 q 85 455 106 439 q 127 423 148 402 q 169 381 187 360 q 205 339 213 329 l 213 329 q 223 340 243 361 q 263 382 286 403 q 308 424 330 440 q 352 455 367 455 l 367 455 q 375 455 381 451 q 387 446 387 436"}," ":{"x_min":0,"x_max":0,"ha":241,"o":""},"!":{"x_min":31,"x_max":218,"ha":248,"o":"m 217 419 l 217 419 q 217 403 215 376 q 213 348 209 317 q 205 285 198 253 q 190 220 180 194 q 170 167 156 151 q 142 134 124 134 l 124 134 q 102 134 87 156 q 71 177 61 211 q 50 244 44 285 q 38 326 35 366 q 32 405 32 439 q 31 472 31 490 l 31 490 q 31 508 31 536 q 31 563 34 594 q 36 625 42 656 q 47 686 58 711 q 69 736 87 752 q 105 767 132 767 l 132 767 q 156 767 172 747 q 187 726 197 694 q 206 661 211 621 q 215 581 217 543 q 218 504 218 471 q 217 438 217 419 m 198 39 l 198 39 q 198 22 190 10 q 182 -3 169 -11 q 156 -20 141 -24 q 126 -28 111 -28 l 111 -28 q 89 -28 69 -16 q 49 -5 49 20 l 49 20 q 49 35 58 48 q 66 60 79 69 q 92 78 108 83 q 123 88 137 88 l 137 88 q 160 88 179 77 q 198 65 198 39"},"\"":{"x_min":31,"x_max":260,"ha":291,"o":"m 260 647 l 260 647 q 260 632 258 601 q 256 569 251 538 q 246 506 236 483 q 226 459 211 459 l 211 459 q 202 459 195 471 q 188 483 183 501 q 177 519 173 541 q 169 563 167 584 q 164 605 163 622 q 162 638 162 646 l 162 646 q 162 656 163 673 q 164 690 169 707 q 173 723 182 735 q 190 746 206 746 l 206 746 q 224 746 235 736 q 245 725 251 710 q 257 694 259 677 q 260 660 260 647 m 129 647 l 129 647 q 129 632 127 601 q 125 569 120 538 q 115 506 105 483 q 95 459 80 459 l 80 459 q 71 459 64 471 q 57 483 52 501 q 46 519 42 541 q 38 563 36 584 q 33 605 32 622 q 31 638 31 646 l 31 646 q 31 656 32 673 q 33 690 38 707 q 42 723 51 735 q 59 746 75 746 l 75 746 q 93 746 104 736 q 114 725 120 710 q 126 694 128 677 q 129 660 129 647"},"#":{"x_min":0,"x_max":530,"ha":530,"o":"m 530 489 l 530 489 q 530 481 515 475 q 500 469 481 465 q 461 461 444 459 q 426 457 420 456 l 420 456 q 412 420 403 384 q 394 347 386 311 l 386 311 q 391 310 406 307 q 421 303 437 298 q 453 293 466 286 q 478 279 478 271 l 478 271 q 478 263 463 257 q 448 251 429 247 q 409 243 391 241 q 373 239 367 238 l 367 238 q 364 227 355 196 q 346 164 334 130 q 322 95 309 69 q 295 42 282 42 l 282 42 q 273 42 268 50 q 263 57 260 68 q 257 78 257 89 q 256 99 256 105 l 256 105 q 256 137 261 169 q 265 200 270 232 l 270 232 q 254 231 238 231 q 222 231 206 231 l 206 231 q 203 221 195 191 q 186 160 174 127 q 162 94 149 68 q 135 42 122 42 l 122 42 q 113 42 108 50 q 103 57 100 68 q 97 78 97 89 q 96 99 96 105 l 96 105 q 96 139 101 171 q 105 203 112 234 l 112 234 q 105 235 87 237 q 68 239 49 243 q 30 247 15 254 q 0 260 0 271 l 0 271 q 0 285 17 294 q 33 302 55 307 q 76 312 97 314 q 118 315 128 316 l 128 316 q 136 351 143 386 q 150 420 159 454 l 159 454 q 152 454 135 456 q 117 458 99 462 q 80 466 66 473 q 52 479 52 489 l 52 489 q 52 503 69 512 q 85 520 107 525 q 128 530 150 532 q 171 534 180 535 l 180 535 q 182 542 187 558 q 191 574 198 594 q 204 614 213 635 q 221 656 230 674 q 238 691 248 703 q 257 714 266 714 l 266 714 q 275 714 280 707 q 284 700 287 690 q 289 680 290 671 q 290 661 290 655 l 290 655 q 290 626 286 598 q 282 570 276 541 l 276 541 q 293 542 309 542 q 324 541 341 540 l 341 540 q 344 550 353 579 q 361 607 373 637 q 385 667 399 691 q 413 714 426 714 l 426 714 q 435 714 440 707 q 444 700 447 690 q 449 680 450 671 q 450 661 450 655 l 450 655 q 450 623 445 592 q 440 561 434 529 l 434 529 q 440 528 456 525 q 471 522 488 517 q 504 511 517 504 q 530 497 530 489 m 317 451 l 317 451 q 303 450 289 451 q 274 451 259 451 l 259 451 q 251 419 244 387 q 236 355 228 323 l 228 323 q 244 323 259 323 q 274 323 289 322 l 289 322 q 296 354 303 387 q 309 419 317 451"},"$":{"x_min":26,"x_max":461,"ha":486,"o":"m 461 554 l 461 554 q 461 540 454 531 q 446 521 435 515 q 423 508 410 505 q 397 502 386 502 l 386 502 q 369 502 353 508 q 337 513 321 519 q 304 525 285 531 q 266 536 243 536 l 243 536 q 234 536 222 534 q 209 532 198 527 q 187 522 180 514 q 172 506 172 494 l 172 494 q 172 476 193 462 q 214 447 246 432 q 278 416 315 398 q 351 379 383 355 q 415 331 436 300 q 457 268 457 225 l 457 225 q 457 188 444 166 q 431 144 410 131 q 389 117 362 110 q 335 102 308 95 l 308 95 q 303 94 303 84 q 302 73 302 59 q 302 44 302 28 q 301 11 296 -3 q 291 -17 280 -26 q 269 -36 248 -36 l 248 -36 q 229 -36 213 -23 q 196 -11 196 9 l 196 9 q 196 17 197 25 q 197 32 197 40 l 197 40 q 197 43 197 51 q 197 59 196 68 q 195 77 193 84 q 191 91 188 92 l 188 92 q 169 97 141 103 q 113 109 88 120 q 62 130 44 146 q 26 162 26 187 l 26 187 q 26 210 44 225 q 61 240 83 240 l 83 240 q 102 240 121 234 q 139 228 159 221 q 178 214 199 208 q 219 202 241 202 l 241 202 q 249 202 261 204 q 273 205 284 210 q 295 214 303 222 q 311 229 311 241 l 311 241 q 311 252 301 261 q 291 270 278 277 q 264 284 250 290 q 236 295 228 298 l 228 298 q 196 311 161 329 q 126 346 97 370 q 67 393 48 424 q 28 455 28 496 l 28 496 q 28 532 43 562 q 57 591 82 612 q 106 633 138 646 q 169 658 204 660 l 204 660 q 208 683 211 707 q 214 730 220 753 l 220 753 q 229 784 264 784 l 264 784 q 278 784 291 777 q 304 769 304 754 l 304 754 q 304 734 301 711 q 298 688 296 668 l 296 668 q 317 663 340 656 q 363 648 385 638 q 406 627 425 612 q 443 597 454 577 l 454 577 q 457 571 459 566 q 461 560 461 554"},"%":{"x_min":20,"x_max":795,"ha":825,"o":"m 626 -3 l 626 -3 q 587 -3 559 20 q 530 42 512 76 q 493 109 484 147 q 475 184 475 214 l 475 214 q 475 245 487 287 q 498 329 520 366 q 542 403 574 429 q 605 455 645 455 l 645 455 q 690 455 719 433 q 748 410 765 376 q 782 342 789 303 q 795 264 795 231 l 795 231 q 795 196 786 155 q 776 114 756 79 q 735 44 703 21 q 671 -3 626 -3 m 585 537 l 585 537 q 567 508 549 480 q 530 452 514 427 q 497 402 484 383 q 470 363 462 351 l 462 351 q 455 341 441 321 q 427 300 409 273 q 390 246 368 215 q 345 183 322 152 l 322 152 q 299 122 277 93 q 254 63 233 40 q 212 17 195 3 q 178 -11 168 -11 l 168 -11 q 154 -11 151 0 q 147 10 147 15 l 147 15 q 147 34 161 66 q 174 97 195 135 q 215 172 241 213 q 267 254 292 292 q 316 329 338 361 q 359 392 371 410 l 371 410 q 379 422 400 452 q 420 482 447 520 q 474 558 505 599 q 535 640 564 674 q 593 707 617 729 q 641 751 655 751 l 655 751 q 668 751 672 742 q 675 733 675 727 l 675 727 q 675 714 668 694 q 660 673 648 648 q 635 622 619 594 q 602 565 585 537 m 172 290 l 172 290 q 133 290 105 313 q 76 336 58 369 q 39 402 30 440 q 20 477 20 507 l 20 507 q 20 539 32 581 q 43 622 66 660 q 88 697 120 723 q 151 748 192 748 l 192 748 q 237 748 266 726 q 294 703 311 670 q 328 636 335 597 q 341 557 341 524 l 341 524 q 341 489 332 448 q 322 407 302 372 q 281 337 249 314 q 217 290 172 290 m 651 340 l 651 340 q 633 340 619 326 q 604 312 594 292 q 584 272 579 250 q 574 227 574 209 l 574 209 q 574 195 577 177 q 580 159 587 143 q 594 127 605 116 q 615 104 629 104 l 629 104 q 647 104 661 118 q 675 132 685 152 q 695 172 700 195 q 705 217 705 234 l 705 234 q 705 247 702 266 q 698 284 692 301 q 685 317 675 329 q 664 340 651 340 m 197 634 l 197 634 q 179 634 165 620 q 150 606 140 586 q 130 566 125 544 q 120 521 120 503 l 120 503 q 120 489 124 471 q 127 453 134 437 q 140 420 151 409 q 161 397 176 397 l 176 397 q 194 397 208 411 q 222 425 232 445 q 241 465 246 488 q 251 510 251 527 l 251 527 q 251 541 248 560 q 245 578 238 595 q 231 611 221 623 q 211 634 197 634"},"&":{"x_min":31,"x_max":681,"ha":712,"o":"m 584 141 l 584 141 q 593 129 606 111 q 619 93 631 73 q 643 52 652 33 q 660 13 660 0 l 660 0 q 660 -24 643 -38 q 626 -53 605 -53 l 605 -53 q 590 -53 570 -40 q 550 -28 530 -11 q 510 6 492 24 q 473 41 463 52 l 463 52 q 417 22 357 6 q 297 -10 243 -10 l 243 -10 q 196 -10 158 4 q 119 18 91 45 q 62 71 47 110 q 31 148 31 196 l 31 196 q 31 234 47 269 q 62 303 86 333 q 110 362 139 387 q 168 411 196 431 l 196 431 q 182 449 171 471 q 160 492 153 515 q 145 538 141 562 q 137 585 137 606 l 137 606 q 137 642 150 674 q 163 705 186 729 q 208 752 240 765 q 271 778 308 778 l 308 778 q 342 778 374 764 q 406 750 431 727 q 456 703 472 672 q 487 640 487 604 l 487 604 q 487 576 478 552 q 468 527 453 505 q 437 483 419 463 q 400 443 382 425 l 382 425 q 411 381 442 339 q 472 297 503 254 l 503 254 q 515 266 530 280 q 545 293 562 305 q 579 316 597 324 q 615 331 633 331 l 633 331 q 658 331 670 318 q 681 304 681 281 l 681 281 q 681 260 671 240 q 661 219 647 201 q 632 183 615 168 q 598 152 584 141 m 301 642 l 301 642 q 281 642 273 629 q 265 616 265 594 l 265 594 q 265 569 276 549 q 286 528 305 512 l 305 512 q 325 529 341 552 q 356 575 356 600 l 356 600 q 356 617 338 630 q 319 642 301 642 m 268 323 l 268 323 q 236 300 218 269 q 199 237 199 198 l 199 198 q 199 132 267 132 l 267 132 q 295 132 326 143 q 356 153 381 169 l 381 169 q 365 190 351 208 q 337 226 324 244 q 311 262 298 281 q 284 300 268 323"},"'":{"x_min":31,"x_max":129,"ha":160,"o":"m 129 647 l 129 647 q 129 632 127 601 q 125 569 120 538 q 115 506 105 483 q 95 459 80 459 l 80 459 q 71 459 64 471 q 57 483 52 501 q 46 519 42 541 q 38 563 36 584 q 33 605 32 622 q 31 638 31 646 l 31 646 q 31 656 32 673 q 33 690 38 707 q 42 723 51 735 q 59 746 75 746 l 75 746 q 93 746 104 736 q 114 725 120 710 q 126 694 128 677 q 129 660 129 647"},"(":{"x_min":41,"x_max":252,"ha":272,"o":"m 252 746 l 252 746 q 252 732 241 713 q 230 693 224 679 l 224 679 q 192 604 169 522 q 146 439 146 356 l 146 356 q 146 273 170 187 q 193 101 228 26 l 228 26 q 235 12 244 -1 q 252 -15 252 -30 l 252 -30 q 252 -44 243 -52 q 233 -60 219 -60 l 219 -60 q 201 -60 186 -50 q 170 -40 157 -25 q 144 -10 134 7 q 123 24 116 38 l 116 38 q 79 110 60 192 q 41 274 41 355 l 41 355 q 41 395 48 437 q 55 479 67 521 q 79 562 95 601 q 110 640 128 676 l 128 676 q 134 688 143 705 q 152 722 164 738 q 176 753 190 764 q 204 775 220 775 l 220 775 q 233 775 243 767 q 252 759 252 746"},")":{"x_min":20,"x_max":234,"ha":275,"o":"m 234 365 l 234 365 l 234 359 q 234 320 227 278 q 220 236 208 195 q 195 154 179 114 q 163 74 145 40 l 145 40 q 139 28 130 11 q 120 -6 108 -21 q 96 -36 82 -47 q 68 -58 52 -58 l 52 -58 q 41 -58 31 -50 q 20 -42 20 -30 l 20 -30 q 20 -15 31 4 q 42 23 48 38 l 48 38 q 80 113 105 197 q 129 280 129 364 l 129 364 q 129 447 107 531 q 85 615 50 691 l 50 691 q 44 705 36 719 q 27 732 27 746 l 27 746 q 27 760 37 769 q 46 777 59 777 l 59 777 q 77 777 93 767 q 109 757 122 742 q 135 727 145 710 q 155 693 162 679 l 162 679 q 197 607 216 526 q 234 445 234 365"},"*":{"x_min":31,"x_max":439,"ha":470,"o":"m 439 631 l 439 631 q 439 620 424 605 q 409 589 389 573 q 369 557 350 544 q 331 531 323 525 l 323 525 q 332 519 351 504 q 370 489 390 472 q 409 454 424 437 q 439 419 439 407 l 439 407 q 439 399 434 397 q 429 395 423 395 l 423 395 q 410 395 390 401 q 370 407 350 416 q 329 425 310 434 q 291 443 279 449 l 279 449 q 279 440 278 415 q 276 389 272 362 q 268 334 261 313 q 253 291 240 291 l 240 291 q 224 291 215 312 q 205 332 200 359 q 195 385 193 411 q 191 436 190 447 l 190 447 q 178 441 161 432 q 143 422 124 414 q 105 406 87 400 q 68 394 54 394 l 54 394 q 45 394 38 399 q 31 403 31 414 l 31 414 q 31 427 46 444 q 60 460 79 476 q 98 491 117 504 q 136 517 146 523 l 146 523 q 137 529 118 542 q 99 554 81 569 q 62 584 48 600 q 33 615 33 627 l 33 627 q 33 638 42 642 q 50 646 59 646 l 59 646 q 72 646 90 641 q 108 636 126 629 q 144 622 161 614 q 177 606 189 600 l 189 600 q 190 608 194 634 q 197 660 204 688 q 210 715 219 737 q 228 758 240 758 l 240 758 q 250 758 257 737 q 264 715 268 687 q 272 659 275 634 q 277 608 278 600 l 278 600 q 291 606 309 614 q 326 621 346 627 q 365 633 384 638 q 402 642 417 642 l 417 642 q 422 642 431 641 q 439 639 439 631"},"+":{"x_min":20,"x_max":461,"ha":481,"o":"m 461 265 l 461 265 q 461 253 449 247 q 437 240 421 237 q 405 233 389 232 q 373 231 366 231 l 366 231 q 346 230 327 230 q 307 229 288 229 l 288 229 q 287 222 287 208 q 286 193 285 175 q 283 156 281 137 q 278 117 273 101 q 268 85 262 74 q 255 63 245 62 l 245 62 q 231 61 222 83 q 212 105 206 134 q 200 162 197 189 q 194 216 193 225 l 193 225 q 182 225 154 226 q 126 226 96 229 q 66 231 43 238 q 20 244 20 257 l 20 257 q 20 275 44 284 q 68 293 99 297 q 130 300 160 300 q 189 299 200 299 l 200 299 l 200 318 q 200 328 202 353 q 203 378 209 404 q 214 430 224 450 q 233 469 250 469 l 250 469 q 264 469 272 446 q 280 423 284 394 q 287 365 288 338 q 288 310 288 301 l 288 301 q 307 300 326 300 q 345 299 364 298 l 364 298 q 371 298 387 297 q 403 296 420 293 q 436 289 449 283 q 461 276 461 265"},",":{"x_min":10,"x_max":174,"ha":184,"o":"m 174 53 l 174 53 q 174 37 166 12 q 157 -13 145 -37 q 132 -61 116 -78 q 100 -95 85 -95 l 85 -95 q 65 -95 65 -75 l 65 -75 q 65 -63 70 -52 q 75 -41 81 -30 q 87 -20 92 -9 q 97 1 97 11 l 97 11 q 82 1 65 1 l 65 1 q 42 1 26 19 q 10 37 10 59 l 10 59 q 10 91 31 111 q 52 130 84 130 l 84 130 q 120 130 147 111 q 174 92 174 53"},"-":{"x_min":20,"x_max":439,"ha":460,"o":"m 439 255 l 439 255 q 439 246 425 241 q 410 235 387 231 q 364 227 337 225 q 309 222 284 221 q 259 220 239 220 q 219 219 211 219 l 211 219 q 201 219 170 220 q 139 220 106 223 q 72 226 46 234 q 20 241 20 255 l 20 255 q 20 272 49 282 q 77 292 115 297 q 152 301 189 302 q 225 303 242 303 l 242 303 q 252 303 271 302 q 289 301 311 299 q 332 296 355 292 q 378 288 397 283 q 415 278 427 271 q 439 264 439 255"},".":{"x_min":10,"x_max":175,"ha":185,"o":"m 175 48 l 175 48 q 175 35 169 25 q 163 14 154 7 q 144 0 133 -4 q 121 -8 109 -8 l 109 -8 q 94 -8 77 -2 q 59 3 45 13 q 30 23 20 37 q 10 50 10 67 l 10 67 q 10 94 33 108 q 56 121 80 121 l 80 121 q 95 121 112 116 q 128 111 143 102 q 157 92 166 79 q 175 65 175 48"},"/":{"x_min":10,"x_max":381,"ha":391,"o":"m 381 716 l 381 716 q 381 686 366 639 q 351 591 330 540 q 309 489 287 442 q 265 395 251 366 l 251 366 q 244 352 229 321 q 214 289 194 249 q 174 209 152 167 q 129 124 107 89 q 85 54 66 32 q 46 9 33 9 l 33 9 q 19 9 15 24 q 10 39 10 49 l 10 49 q 10 81 26 130 q 42 179 64 232 q 86 285 109 335 q 132 384 146 416 l 146 416 q 152 430 167 460 q 181 490 200 527 q 219 564 241 604 q 263 643 285 676 q 306 708 326 729 q 346 750 360 750 l 360 750 q 374 750 378 738 q 381 725 381 716"},":":{"x_min":10,"x_max":175,"ha":196,"o":"m 175 293 l 175 293 q 175 280 169 270 q 163 259 154 252 q 144 245 133 241 q 121 237 109 237 l 109 237 q 94 237 77 243 q 59 248 45 258 q 30 267 20 281 q 10 294 10 311 l 10 311 q 10 339 33 353 q 56 366 80 366 l 80 366 q 95 366 112 361 q 128 356 143 347 q 157 337 166 324 q 175 310 175 293 m 175 48 l 175 48 q 175 35 169 25 q 163 14 154 7 q 144 0 133 -4 q 121 -8 109 -8 l 109 -8 q 94 -8 77 -2 q 59 3 45 13 q 30 23 20 37 q 10 50 10 67 l 10 67 q 10 94 33 108 q 56 121 80 121 l 80 121 q 95 121 112 116 q 128 111 143 102 q 157 92 166 79 q 175 65 175 48"},";":{"x_min":10,"x_max":175,"ha":196,"o":"m 175 293 l 175 293 q 175 280 169 270 q 163 259 154 252 q 144 245 133 241 q 121 237 109 237 l 109 237 q 94 237 77 243 q 59 248 45 258 q 30 267 20 281 q 10 294 10 311 l 10 311 q 10 339 33 353 q 56 366 80 366 l 80 366 q 95 366 112 361 q 128 356 143 347 q 157 337 166 324 q 175 310 175 293 m 175 53 l 175 53 q 175 37 167 12 q 159 -13 146 -37 q 133 -61 118 -78 q 102 -95 87 -95 l 87 -95 q 67 -95 67 -75 l 67 -75 q 67 -63 72 -52 q 77 -41 83 -30 q 89 -20 94 -9 q 99 1 98 11 l 98 11 q 92 6 84 4 q 75 1 67 1 l 67 1 q 44 1 28 19 q 12 37 12 59 l 12 59 q 12 91 33 111 q 54 130 85 130 l 85 130 q 121 130 148 111 q 175 92 175 53"},"<":{"x_min":10,"x_max":301,"ha":332,"o":"m 301 59 l 301 59 q 301 48 297 40 q 293 31 279 31 l 279 31 q 263 31 237 42 q 211 53 181 72 q 151 90 121 113 q 90 136 66 160 q 41 184 26 207 q 10 229 10 246 l 10 246 q 10 260 26 283 q 41 306 66 332 q 90 358 120 385 q 150 411 179 433 q 208 454 233 468 q 258 481 272 481 l 272 481 q 286 481 293 472 q 299 463 299 452 l 299 452 q 299 440 288 422 q 276 404 258 384 q 239 364 217 343 q 194 321 172 302 q 150 282 132 266 q 113 250 103 241 l 103 241 q 115 233 135 220 q 154 207 176 192 q 198 176 221 159 q 243 142 261 125 q 278 107 290 90 q 301 73 301 59"},"=":{"x_min":31,"x_max":461,"ha":492,"o":"m 450 330 l 450 330 q 450 321 435 316 q 420 310 398 306 q 375 302 348 300 q 320 297 295 296 q 269 295 249 295 q 229 294 221 294 l 221 294 q 214 294 198 294 q 181 294 160 295 q 139 296 116 298 q 93 300 75 304 q 56 308 44 314 q 31 320 31 330 l 31 330 q 31 341 45 349 q 58 357 79 362 q 99 367 125 370 q 151 373 176 375 q 200 376 221 377 q 241 377 252 377 l 252 377 q 267 377 300 375 q 332 372 366 367 q 399 361 425 352 q 450 343 450 330 m 461 184 l 461 184 q 461 176 446 170 q 431 164 409 160 q 386 156 359 154 q 331 151 306 150 q 280 149 260 149 q 240 148 232 148 l 232 148 q 225 148 209 148 q 192 148 171 149 q 150 150 127 152 q 104 154 86 158 q 67 162 55 169 q 42 175 42 184 l 42 184 q 42 195 56 203 q 69 211 90 216 q 110 221 136 224 q 162 227 187 229 q 211 230 232 231 q 252 231 263 231 l 263 231 q 278 231 311 229 q 343 226 377 221 q 410 215 436 206 q 461 197 461 184"},">":{"x_min":20,"x_max":312,"ha":323,"o":"m 312 259 l 312 259 q 312 245 297 222 q 281 199 257 173 q 233 146 203 120 q 173 93 144 72 q 115 50 90 37 q 64 23 50 23 l 50 23 q 37 23 31 32 q 25 41 25 52 l 25 52 q 25 70 50 100 q 74 130 107 162 q 139 193 171 221 q 203 249 219 263 l 219 263 q 201 275 168 298 q 134 320 102 346 q 69 371 45 397 q 20 423 20 444 l 20 444 q 20 456 25 465 q 29 474 43 474 l 43 474 q 59 474 85 463 q 111 452 141 434 q 171 415 202 392 q 232 369 257 345 q 281 321 297 299 q 312 276 312 259"},"?":{"x_min":20,"x_max":479,"ha":500,"o":"m 479 538 l 479 538 q 479 506 463 479 q 446 451 422 428 q 397 404 368 387 q 338 369 313 359 l 313 359 q 319 311 319 260 l 319 260 q 319 243 319 222 q 318 201 313 183 q 307 164 295 151 q 282 138 259 138 l 259 138 q 219 138 205 178 l 205 178 q 200 193 197 219 q 194 244 193 272 q 191 299 191 325 q 191 351 191 368 l 191 368 q 191 382 193 401 q 194 420 202 432 l 202 432 q 211 445 232 458 q 253 470 276 484 q 298 498 315 515 q 332 532 332 555 l 332 555 q 332 572 324 586 q 316 600 304 610 q 291 619 276 625 q 260 630 244 630 l 244 630 q 206 630 184 618 q 162 605 147 591 q 131 576 118 564 q 104 551 83 551 l 83 551 q 59 551 40 568 q 20 585 20 609 l 20 609 q 20 648 43 676 q 66 703 100 720 q 134 736 172 744 q 210 751 240 751 l 240 751 q 280 751 323 734 q 365 716 400 687 q 434 658 457 619 q 479 580 479 538 m 331 52 l 331 52 q 331 35 323 23 q 314 11 302 3 q 289 -5 274 -9 q 258 -13 244 -13 l 244 -13 q 221 -13 202 -2 q 182 9 182 34 l 182 34 q 182 50 191 63 q 199 75 212 84 q 225 93 241 98 q 256 102 270 102 l 270 102 q 293 102 312 90 q 331 78 331 52"},"@":{"x_min":15,"x_max":709,"ha":724,"o":"m 709 417 l 709 417 q 709 373 697 328 q 685 282 661 246 q 637 209 600 186 q 563 162 513 162 l 513 162 q 475 162 448 189 q 420 216 415 253 l 415 253 q 414 233 405 218 q 395 203 381 194 q 366 184 348 179 q 330 174 312 174 l 312 174 q 280 174 255 188 q 229 202 211 225 q 193 248 183 277 q 173 306 173 335 l 173 335 q 173 381 191 423 q 209 465 240 498 q 270 530 311 550 q 352 569 399 569 l 399 569 q 420 569 446 565 q 471 560 489 551 l 489 551 q 503 544 506 527 q 508 509 508 497 l 508 497 q 508 468 503 438 q 498 408 492 379 l 492 379 q 487 358 483 338 q 478 317 478 296 l 478 296 q 478 279 484 266 q 490 252 510 252 l 510 252 q 535 252 554 273 q 573 293 586 322 q 598 351 604 382 q 610 413 610 434 l 610 434 q 610 484 591 522 q 572 559 540 584 q 508 608 466 621 q 423 633 375 633 l 375 633 q 315 633 268 612 q 220 590 187 553 q 154 516 136 466 q 118 415 118 358 l 118 358 q 118 299 136 250 q 154 201 188 166 q 221 130 269 110 q 317 90 377 90 l 377 90 q 408 90 437 96 q 465 102 492 110 q 518 117 543 123 q 567 129 591 129 l 591 129 q 604 129 621 123 q 637 117 637 100 l 637 100 q 637 81 620 66 q 603 51 577 40 q 551 28 519 21 q 487 13 456 8 q 425 3 400 1 q 375 -2 362 -2 l 362 -2 q 332 -2 298 2 q 263 5 234 16 l 234 16 q 178 37 137 73 q 96 108 69 154 q 42 199 29 253 q 15 307 15 365 l 15 365 q 15 441 43 509 q 70 577 119 629 q 168 680 235 710 q 302 740 381 740 l 381 740 q 453 740 513 717 q 573 694 617 652 q 660 609 685 550 q 709 490 709 417 m 428 474 l 428 474 q 423 475 418 475 q 412 475 407 475 l 407 475 q 389 475 370 471 q 351 467 334 459 q 317 451 303 439 q 289 427 281 411 l 281 411 q 272 393 266 374 q 260 355 260 336 l 260 336 q 260 324 264 311 q 268 297 276 286 q 283 275 294 268 q 304 261 318 261 l 318 261 q 330 261 344 269 q 358 277 371 288 q 383 299 392 312 q 401 325 403 335 l 403 335 q 411 370 417 405 q 422 439 428 474"},"A":{"x_min":26,"x_max":535,"ha":570,"o":"m 535 148 l 535 148 q 535 128 532 100 q 528 72 518 47 q 508 21 491 4 q 474 -14 446 -14 l 446 -14 q 409 -14 391 13 q 372 40 364 78 q 356 115 355 154 q 353 193 352 216 l 352 216 q 280 204 210 195 l 210 195 q 208 172 202 138 q 195 104 182 73 q 168 41 147 18 q 125 -5 94 -5 l 94 -5 q 70 -5 57 13 q 43 30 36 54 q 29 78 28 104 q 26 129 26 146 l 26 146 q 26 203 35 259 q 44 314 56 369 l 56 369 q 62 398 72 437 q 82 476 97 518 q 111 559 131 600 q 150 640 175 672 q 200 704 232 724 q 264 744 303 744 l 303 744 q 341 744 369 727 q 397 710 418 682 q 439 654 453 619 q 467 583 477 547 q 486 510 493 475 q 499 440 504 413 l 504 413 q 517 348 526 282 q 535 215 535 148 m 342 362 l 342 391 q 342 403 341 431 q 339 458 334 486 q 329 513 319 535 q 308 556 290 556 l 290 556 q 280 556 271 543 q 262 529 255 509 q 248 488 243 463 q 237 438 233 415 q 229 392 227 374 q 225 355 224 347 l 224 347 q 284 352 342 362 l 342 362"},"B":{"x_min":31,"x_max":472,"ha":487,"o":"m 472 591 l 472 591 q 472 522 438 466 q 404 409 347 371 l 347 371 q 377 365 399 351 q 421 336 436 315 q 450 294 458 268 q 465 241 465 212 l 465 212 q 465 155 439 113 q 412 70 370 43 q 328 15 277 2 q 225 -12 174 -12 l 174 -12 q 146 -12 118 -8 q 90 -4 65 6 l 65 6 q 56 9 50 31 q 44 52 41 83 q 37 114 35 150 q 33 186 32 219 q 31 252 31 277 q 31 302 31 312 l 31 312 q 31 347 31 383 q 31 418 33 453 l 33 453 q 33 462 34 481 q 34 500 35 524 q 35 547 37 573 q 38 599 41 622 q 43 644 48 660 q 52 676 58 680 l 58 680 q 81 695 109 709 q 137 722 167 732 q 197 742 227 748 q 257 754 284 754 l 284 754 q 321 754 356 744 q 390 733 416 712 q 441 691 457 661 q 472 630 472 591 m 306 538 l 306 538 q 306 555 296 563 q 285 571 268 571 l 268 571 q 254 571 239 565 q 223 559 212 549 l 212 549 q 209 546 207 532 q 204 518 203 501 q 201 483 201 468 q 200 452 200 447 l 200 447 q 200 445 200 441 q 200 436 201 431 q 201 426 202 422 q 203 418 205 418 l 205 418 q 222 418 240 431 q 258 443 273 462 q 287 480 297 501 q 306 522 306 538 m 302 249 l 302 249 q 302 266 290 273 q 278 280 263 280 l 263 280 q 249 280 234 274 q 218 267 208 258 l 208 258 q 205 256 204 248 q 202 240 202 231 q 201 221 201 213 q 200 204 200 201 l 200 201 q 200 199 200 193 q 200 187 201 181 q 201 174 203 169 q 204 163 206 163 l 206 163 q 220 163 237 171 q 254 179 269 191 q 283 203 293 219 q 302 234 302 249"},"C":{"x_min":5,"x_max":472,"ha":482,"o":"m 472 509 l 472 509 q 472 490 468 469 q 463 448 453 430 q 443 412 427 400 q 411 388 388 388 l 388 388 q 353 388 336 401 q 319 413 312 432 q 305 451 305 473 q 304 494 303 513 q 302 532 297 545 q 291 557 273 557 l 273 557 q 253 557 238 543 q 223 528 212 505 q 201 482 194 453 q 186 424 182 396 q 177 367 175 342 q 173 316 173 300 l 173 300 q 173 279 175 250 q 176 221 184 195 q 192 168 208 150 q 224 131 254 131 l 254 131 q 274 131 293 136 q 312 141 331 148 q 350 154 370 159 q 389 164 409 164 l 409 164 q 432 164 447 146 q 462 127 462 104 l 462 104 q 462 72 442 45 q 422 17 393 -4 q 363 -25 329 -37 q 294 -49 266 -49 l 266 -49 q 194 -49 144 -16 q 94 16 63 68 q 32 119 19 183 q 5 246 5 309 l 5 309 q 5 351 13 401 q 21 451 37 502 q 53 552 78 599 q 102 646 135 682 q 168 718 210 740 q 251 762 301 762 l 301 762 q 350 762 383 738 q 416 713 436 676 q 456 638 464 594 q 472 549 472 509"},"D":{"x_min":31,"x_max":545,"ha":560,"o":"m 545 450 l 545 450 q 545 362 509 281 q 473 199 413 136 q 352 73 272 36 q 191 -2 102 -2 l 102 -2 l 100 -2 q 82 -2 71 15 q 59 31 51 56 q 43 81 39 112 q 35 143 33 173 q 31 202 31 226 q 31 249 31 261 l 31 261 q 31 295 32 329 q 33 362 35 396 l 35 396 q 35 407 37 429 q 38 450 40 477 q 42 504 45 534 q 48 563 52 589 q 55 614 59 634 q 62 653 67 660 l 67 660 q 80 682 107 699 q 134 716 166 727 q 197 738 230 744 q 262 749 286 749 l 286 749 q 352 749 401 725 q 449 700 482 659 q 514 617 530 563 q 545 509 545 450 m 377 421 l 377 421 q 377 443 369 466 q 361 489 347 508 q 332 527 312 539 q 291 550 266 550 l 266 550 q 245 550 223 540 l 223 540 q 218 537 214 522 q 210 506 208 484 q 205 462 203 436 q 201 410 201 387 q 200 363 200 345 q 199 327 199 321 l 199 321 q 199 311 199 292 q 199 272 201 253 q 202 234 204 220 q 206 206 211 206 l 211 206 q 241 206 271 230 q 300 253 324 287 q 348 321 363 358 q 377 395 377 421"},"E":{"x_min":26,"x_max":466,"ha":481,"o":"m 466 157 l 466 157 q 466 138 456 120 l 456 120 q 446 103 409 80 q 372 57 327 37 q 282 16 240 2 q 198 -13 178 -13 l 178 -13 q 164 -13 145 -6 q 126 0 107 10 q 88 20 73 33 q 57 46 50 58 l 50 58 q 46 65 43 86 q 39 107 37 135 q 34 163 32 195 q 30 226 29 255 q 27 283 27 305 q 26 327 26 337 l 26 337 q 26 374 29 422 q 31 470 38 519 q 45 567 59 612 q 72 656 95 687 l 95 687 q 102 696 123 706 q 144 716 173 725 q 201 734 234 742 q 267 750 298 756 q 328 761 353 765 q 378 768 391 768 l 391 768 q 406 768 420 762 q 433 755 443 744 q 452 733 458 720 q 463 706 463 691 l 463 691 q 463 678 460 669 q 456 660 449 649 l 449 649 q 439 636 407 618 q 375 600 338 583 q 300 565 266 551 q 231 537 217 531 l 217 531 q 213 508 209 485 q 204 461 202 437 l 202 437 q 233 453 272 467 q 311 481 346 481 l 346 481 q 417 481 417 411 l 417 411 q 417 394 411 381 q 404 368 394 358 q 383 348 370 341 q 356 333 343 326 l 343 326 q 311 309 276 297 q 241 284 206 272 l 206 272 q 204 264 202 255 q 200 245 200 236 l 200 236 q 200 222 202 208 q 204 194 206 180 l 206 180 q 218 184 245 193 q 271 202 300 211 q 329 220 356 227 q 383 233 396 233 l 396 233 q 411 233 424 227 q 437 220 446 210 q 455 199 461 185 q 466 171 466 157"},"F":{"x_min":31,"x_max":438,"ha":413,"o":"m 438 722 l 438 722 q 438 684 412 653 q 386 622 349 598 q 311 573 270 555 q 229 537 199 525 l 199 525 q 199 504 198 482 q 197 460 195 438 l 195 438 q 227 454 267 468 q 307 482 343 482 l 343 482 q 372 482 391 470 q 409 458 409 428 l 409 428 q 409 395 386 369 q 362 343 329 323 q 296 303 260 289 q 224 275 199 267 l 199 267 q 199 234 198 202 q 197 169 195 137 l 195 137 q 194 121 192 97 q 189 73 182 51 q 174 28 160 12 q 146 -5 124 -5 l 124 -5 q 103 -5 88 16 q 73 36 63 68 q 52 100 46 140 q 39 179 36 217 q 32 255 32 287 q 31 319 31 336 l 31 336 q 31 349 32 375 q 32 400 33 431 q 33 462 35 496 q 36 530 38 561 q 40 591 44 615 q 47 638 52 649 l 52 649 q 63 671 105 693 q 146 714 197 731 q 248 747 297 758 q 345 768 371 768 l 371 768 q 383 768 395 767 q 406 765 416 760 q 426 755 432 746 q 438 737 438 722"},"G":{"x_min":0,"x_max":559,"ha":533,"o":"m 478 240 l 478 240 q 469 195 450 147 q 430 98 400 58 q 369 18 327 -7 q 285 -33 231 -33 l 231 -33 q 191 -33 159 -17 q 127 -1 101 26 q 75 53 56 88 q 37 123 25 161 q 12 198 6 235 q 0 272 0 304 l 0 304 q 0 349 9 401 q 17 452 34 503 q 51 553 77 600 q 103 646 139 682 q 174 717 219 739 q 263 760 318 760 l 318 760 q 353 760 383 747 q 413 733 435 711 q 457 688 470 657 q 482 626 482 592 l 482 592 l 482 583 q 482 565 481 539 q 479 512 471 488 q 463 464 447 447 q 431 429 402 429 l 402 429 q 367 429 349 445 q 331 461 331 498 l 331 498 q 331 512 332 526 q 333 540 333 554 l 333 554 q 333 575 326 587 q 319 598 297 598 l 297 598 q 272 598 252 582 q 232 566 217 540 q 202 514 191 481 q 180 448 173 415 q 166 381 163 350 q 160 319 160 297 l 160 297 q 160 279 162 256 q 164 232 171 211 q 177 189 190 174 q 203 159 224 159 l 224 159 q 260 159 282 182 q 304 204 312 239 l 312 239 q 298 241 285 246 q 271 250 260 259 q 248 267 241 280 q 234 292 234 309 l 234 309 q 234 340 255 358 q 276 375 305 384 q 333 393 363 396 q 393 398 411 398 l 411 398 q 424 398 449 396 q 474 394 499 388 q 523 381 541 369 q 559 357 559 338 l 559 338 q 559 300 539 273 q 518 245 478 240"},"H":{"x_min":31,"x_max":510,"ha":546,"o":"m 510 585 l 510 572 q 510 489 506 406 q 502 322 496 239 l 496 239 q 495 224 494 199 q 493 173 490 144 q 487 114 482 84 q 477 54 467 30 q 456 5 440 -10 q 423 -26 399 -26 l 399 -26 q 378 -26 362 -17 q 345 -8 334 7 q 323 21 317 40 q 311 58 311 78 l 311 78 q 311 111 313 145 q 315 178 319 211 l 319 211 l 220 201 q 217 175 214 139 q 210 102 200 69 q 189 35 168 11 q 147 -13 110 -13 l 110 -13 q 87 -13 72 -2 q 57 8 48 25 q 39 41 35 61 q 31 81 31 99 l 31 99 q 31 159 36 219 q 41 278 43 338 l 43 338 q 45 401 45 465 q 44 528 46 592 l 46 592 q 47 613 48 641 q 48 669 55 694 q 61 718 77 735 q 92 752 123 752 l 123 752 q 166 752 188 730 q 210 707 219 674 q 228 640 228 603 q 228 565 228 535 l 228 535 q 228 495 226 457 q 224 418 222 379 l 222 379 l 329 395 q 330 444 331 492 q 332 540 335 588 l 335 588 q 336 611 337 637 q 338 663 345 685 q 352 707 369 722 q 385 736 418 736 l 418 736 q 446 736 464 720 q 481 704 492 681 q 502 658 506 632 q 510 606 510 585 l 510 585"},"I":{"x_min":-15,"x_max":376,"ha":360,"o":"m 376 679 l 376 679 q 376 660 368 645 q 359 630 345 620 q 331 609 314 602 q 297 595 281 592 l 281 592 q 279 479 273 374 q 266 269 252 157 l 252 157 l 258 157 q 274 157 290 154 q 305 150 318 142 q 330 133 338 121 q 345 108 345 90 l 345 90 q 345 67 331 50 q 316 33 293 21 q 269 9 240 1 q 211 -7 182 -11 q 153 -16 127 -18 q 101 -20 85 -20 l 85 -20 q 73 -20 56 -19 q 38 -18 23 -13 q 7 -8 -4 2 q -15 12 -15 29 l -15 29 q -15 50 -6 67 q 2 83 16 96 q 30 109 48 117 q 65 125 83 129 l 83 129 q 90 184 96 239 q 102 293 104 349 l 104 349 q 106 406 108 462 q 110 517 112 573 l 112 573 q 105 572 99 572 q 93 571 88 571 l 88 571 q 74 571 58 574 q 42 577 28 585 q 14 592 5 603 q -5 614 -5 631 l -5 631 q -5 665 24 687 q 52 709 92 721 q 131 733 172 738 q 213 742 238 742 l 238 742 q 252 742 275 740 q 298 738 321 731 q 343 724 360 712 q 376 700 376 679"},"J":{"x_min":-26,"x_max":406,"ha":436,"o":"m 406 372 l 406 372 l 406 347 q 405 310 402 268 q 399 226 392 185 q 385 144 371 107 q 357 69 333 40 q 309 11 274 -6 q 239 -23 189 -23 l 189 -23 q 135 -23 95 0 q 54 23 27 61 q 0 98 -13 145 q -26 191 -26 239 l -26 239 q -26 260 -21 286 q -17 312 -6 335 q 5 357 23 373 q 40 388 67 388 l 67 388 q 96 388 111 372 q 125 356 132 333 q 138 309 140 282 q 142 254 145 231 q 148 207 156 191 q 163 175 181 175 l 181 175 q 202 175 214 193 q 226 211 232 236 q 237 260 239 285 q 240 310 240 324 l 240 324 q 240 380 231 434 q 221 487 207 542 l 207 542 q 200 570 192 599 q 184 628 184 657 l 184 657 q 184 691 202 713 q 220 734 255 734 l 255 734 q 281 734 296 724 q 311 713 326 693 l 326 693 q 349 662 365 622 q 380 582 389 539 q 398 496 402 453 q 406 409 406 372"},"K":{"x_min":26,"x_max":532,"ha":538,"o":"m 532 44 l 532 44 q 532 16 518 -1 q 504 -19 475 -19 l 475 -19 q 452 -19 433 -5 q 413 9 397 30 q 380 50 368 73 q 355 96 347 113 l 347 113 q 326 155 306 197 q 285 239 265 282 l 265 282 l 205 245 q 206 216 202 187 q 198 158 196 129 l 196 129 q 194 109 190 86 q 185 62 175 42 q 165 21 148 7 q 131 -7 106 -7 l 106 -7 q 83 -7 68 3 q 53 12 44 27 q 34 42 30 61 q 26 80 26 100 l 26 100 l 26 108 q 26 167 33 227 q 39 286 41 346 l 41 346 q 43 425 46 504 q 49 583 54 662 l 54 662 q 55 680 60 697 q 65 714 75 728 q 85 741 100 749 q 114 757 134 757 l 134 757 q 165 757 181 735 q 196 713 202 682 q 208 651 208 618 q 207 585 207 563 l 207 563 q 207 500 204 437 l 204 437 q 233 461 261 492 q 288 523 309 555 l 309 555 q 322 574 339 608 q 356 641 376 673 q 396 704 420 728 q 444 751 471 751 l 471 751 q 500 751 514 735 q 527 718 527 691 l 527 691 q 527 651 515 609 q 502 567 481 527 q 460 486 434 450 q 407 413 380 386 l 380 386 q 408 339 433 292 q 458 244 483 196 l 483 196 q 492 180 501 161 q 509 142 516 122 q 523 102 528 82 q 532 62 532 44"},"L":{"x_min":31,"x_max":507,"ha":502,"o":"m 507 138 l 507 138 q 507 113 487 91 q 466 69 434 51 q 401 33 361 20 q 321 6 282 -3 q 243 -13 209 -18 q 174 -23 154 -23 l 154 -23 q 135 -23 114 -19 q 92 -16 78 -4 l 78 -4 q 70 2 64 23 q 58 44 53 73 q 47 102 43 136 q 39 169 37 201 q 34 233 33 260 q 31 287 31 302 l 31 302 q 31 327 33 363 q 34 398 37 439 q 40 479 45 521 q 50 563 57 601 q 63 638 73 668 q 82 698 93 715 l 93 715 q 112 742 141 742 l 141 742 q 161 742 175 729 q 189 715 198 694 q 206 672 211 646 q 215 619 217 593 q 219 567 219 545 q 219 523 219 510 l 219 510 q 219 432 216 356 q 212 279 212 201 l 212 201 l 212 162 q 257 176 310 189 q 363 201 411 201 l 411 201 q 428 201 446 199 q 463 197 477 191 q 490 184 499 172 q 507 159 507 138"},"M":{"x_min":36,"x_max":722,"ha":763,"o":"m 714 109 l 714 109 q 711 83 706 58 q 700 33 692 14 q 684 -6 672 -17 q 659 -29 643 -29 l 643 -29 q 627 -29 614 -4 q 601 20 590 61 q 578 101 569 152 q 559 203 552 256 q 544 308 539 358 q 534 408 531 445 l 531 445 q 525 407 517 360 q 509 313 498 265 q 487 216 474 170 q 461 123 446 87 q 431 50 414 28 q 397 6 378 6 l 378 6 q 361 6 344 29 q 327 52 311 90 q 295 127 281 173 q 267 219 255 266 q 243 312 234 354 q 225 395 220 423 l 220 423 q 220 402 220 377 q 219 351 219 340 l 219 340 q 219 335 219 307 q 218 279 215 240 q 212 201 206 157 q 200 112 189 74 q 177 36 160 10 q 143 -16 118 -18 l 118 -18 q 98 -9 85 13 q 71 34 62 63 q 53 92 48 125 q 43 158 40 190 q 37 221 37 248 q 36 275 36 292 l 36 292 q 36 322 40 368 q 43 413 51 463 q 59 513 72 563 q 85 613 104 653 q 122 692 147 717 q 171 742 203 742 l 203 742 q 218 742 235 725 q 252 708 269 681 q 286 653 302 619 q 318 585 333 551 q 347 516 358 485 q 369 453 376 431 l 376 431 q 384 455 396 487 q 408 519 423 554 q 437 588 455 622 q 472 655 491 682 q 510 708 530 725 q 549 741 569 741 l 569 741 q 604 741 629 715 q 654 689 671 648 q 688 606 698 555 q 708 503 714 453 q 719 402 721 358 q 722 314 722 287 l 722 287 q 722 276 722 257 q 722 238 722 214 q 721 190 719 163 q 717 136 714 109"},"N":{"x_min":31,"x_max":612,"ha":648,"o":"m 612 429 l 612 429 q 612 407 610 367 q 608 326 603 278 q 597 229 587 179 q 577 128 561 87 q 545 46 522 20 q 499 -7 467 -7 l 467 -7 q 437 -7 412 11 q 387 28 367 54 q 347 79 332 108 q 317 137 307 161 l 307 161 q 286 212 265 262 q 244 311 225 362 l 225 362 l 225 334 q 225 291 225 249 q 224 206 218 164 l 218 164 q 216 147 214 125 q 211 102 206 80 q 201 58 192 39 q 182 20 166 11 l 166 11 q 157 6 150 5 q 142 4 133 2 l 133 2 l 130 2 q 107 2 91 18 q 75 33 64 58 q 53 82 47 113 q 40 143 37 173 q 33 202 32 227 q 31 252 31 267 l 31 267 q 31 290 33 335 q 35 379 42 433 q 48 487 59 544 q 69 601 86 648 q 103 694 127 724 q 151 753 183 753 l 183 753 q 214 753 239 729 q 263 705 282 672 q 301 639 314 603 q 327 567 336 543 l 336 543 q 353 496 369 450 q 385 403 400 355 l 400 355 q 401 353 404 344 q 407 335 411 324 l 411 324 q 415 312 421 297 l 421 297 q 421 310 421 316 q 420 321 420 326 q 420 330 420 337 q 420 344 420 359 l 420 359 q 419 392 419 425 q 418 458 418 490 l 418 490 q 418 504 419 529 q 419 554 422 583 q 424 611 429 640 q 434 669 444 693 q 453 716 468 731 q 482 746 503 746 l 503 746 q 528 746 546 727 q 564 708 576 679 q 588 649 595 613 q 602 576 606 541 q 610 506 611 476 q 612 446 612 429"},"O":{"x_min":20,"x_max":512,"ha":538,"o":"m 259 -33 l 259 -33 q 198 -33 153 -2 q 108 28 79 80 q 49 131 35 199 q 20 267 20 342 l 20 342 q 20 412 36 484 q 51 556 83 614 q 115 672 164 709 q 213 746 281 746 l 281 746 q 347 746 392 711 q 436 675 463 619 q 489 562 501 492 q 512 422 512 352 l 512 352 q 512 274 497 205 q 481 135 450 82 q 418 29 371 -2 q 323 -33 259 -33 m 271 525 l 271 525 q 252 525 239 510 q 225 495 216 471 q 207 446 203 416 q 199 385 199 354 l 199 354 q 199 319 204 284 q 208 249 217 221 q 226 193 240 176 q 253 159 272 159 l 272 159 q 294 159 307 181 q 320 203 328 234 q 335 265 338 298 q 340 331 340 353 l 340 353 q 340 380 337 410 q 333 440 325 466 q 317 491 304 508 q 291 525 271 525"},"P":{"x_min":31,"x_max":494,"ha":488,"o":"m 494 536 l 494 536 q 494 482 471 430 q 447 378 408 337 q 369 295 319 269 q 269 242 216 239 l 216 239 q 215 221 215 194 q 214 166 211 136 q 208 106 203 76 q 197 46 187 22 q 176 -2 160 -17 q 143 -32 119 -32 l 119 -32 q 91 -32 75 -13 q 58 5 50 31 q 41 57 38 86 q 35 114 34 134 l 34 134 q 32 163 32 191 q 31 219 31 248 l 31 248 q 31 261 31 297 q 31 332 32 378 q 32 423 33 473 q 34 522 36 565 q 38 607 41 637 q 43 667 47 672 l 47 672 q 48 673 53 677 q 58 680 64 684 q 70 687 75 690 q 80 693 82 694 l 82 694 q 128 720 183 739 q 238 758 292 758 l 292 758 q 338 758 376 740 q 413 721 440 691 q 466 660 480 620 q 494 579 494 536 m 321 513 l 321 513 q 321 533 312 548 q 302 563 280 563 l 280 563 q 261 563 242 556 q 223 548 207 540 l 207 540 q 210 505 213 472 q 215 439 213 404 l 213 404 q 229 412 248 423 q 267 433 283 446 q 299 459 310 476 q 321 492 321 513"},"Q":{"x_min":20,"x_max":525,"ha":545,"o":"m 286 162 l 286 162 q 276 179 269 197 q 262 215 260 232 q 258 248 263 263 q 267 277 281 287 l 281 287 q 292 295 306 293 q 320 291 336 281 l 336 281 q 338 301 339 320 q 340 339 340 353 l 340 353 q 340 380 337 410 q 333 440 325 466 q 317 491 304 508 q 291 525 271 525 l 271 525 q 252 525 239 510 q 225 495 216 471 q 207 446 203 416 q 199 385 199 354 l 199 354 q 199 319 204 284 q 208 249 217 221 q 226 193 240 176 q 253 159 272 159 l 272 159 q 280 159 286 162 m 472 129 l 478 121 q 488 107 500 86 q 512 64 519 42 q 525 19 524 -1 q 523 -21 507 -33 l 507 -33 q 495 -42 481 -40 q 467 -39 453 -31 q 438 -24 423 -11 q 408 1 394 16 l 394 16 q 367 -7 334 -20 q 300 -33 259 -33 l 259 -33 q 198 -33 153 -2 q 108 28 79 80 q 49 131 35 199 q 20 267 20 342 l 20 342 q 20 412 36 484 q 51 556 83 614 q 115 672 164 709 q 213 746 281 746 l 281 746 q 347 746 392 711 q 436 675 463 619 q 489 562 501 492 q 512 422 512 352 l 512 352 q 512 290 502 234 q 492 177 472 129 l 472 129"},"R":{"x_min":31,"x_max":518,"ha":523,"o":"m 518 526 l 518 526 q 518 457 486 402 q 454 347 401 305 l 401 305 q 417 281 434 249 q 451 217 465 182 q 478 146 487 111 q 495 75 495 45 l 495 45 q 495 13 480 -12 q 464 -38 427 -38 l 427 -38 q 396 -38 374 -8 q 351 22 334 64 q 316 105 302 148 q 287 191 274 217 l 274 217 q 256 211 239 204 q 222 196 204 189 l 204 189 q 203 167 201 129 q 198 90 190 52 q 181 14 164 -14 q 147 -42 117 -42 l 117 -42 q 84 -42 66 -15 q 48 12 41 49 q 33 86 32 125 q 31 163 31 185 l 31 185 q 31 232 33 278 q 35 323 35 370 l 35 370 q 35 413 34 456 q 32 499 32 543 l 32 543 q 32 553 32 569 q 32 584 34 601 q 35 617 37 632 q 39 647 44 656 l 44 656 q 54 677 90 696 q 125 715 168 730 q 210 744 251 753 q 291 761 311 761 l 311 761 q 362 761 401 742 q 440 723 466 691 q 492 658 505 616 q 518 573 518 526 m 333 512 l 333 512 q 333 538 321 552 q 309 565 282 565 l 282 565 q 262 565 242 558 q 221 551 204 542 l 204 542 q 208 463 207 385 l 207 385 q 228 392 250 403 q 272 414 291 430 q 309 446 321 466 q 333 486 333 512"},"S":{"x_min":5,"x_max":357,"ha":362,"o":"m 357 702 l 357 702 q 357 679 343 662 q 328 645 308 634 l 308 634 q 290 623 271 611 q 252 598 236 583 q 220 567 210 548 q 200 529 200 505 l 200 505 q 200 484 210 467 q 220 450 235 434 q 249 417 267 400 q 284 382 299 361 q 313 339 323 312 q 333 285 333 249 l 333 249 q 333 224 323 193 q 312 161 294 129 q 276 97 252 67 q 227 37 200 14 q 172 -10 142 -24 q 112 -39 84 -39 l 84 -39 q 53 -39 29 -22 q 5 -5 5 29 l 5 29 q 5 52 16 72 q 27 91 43 109 q 59 127 79 144 q 98 161 114 178 q 130 195 141 214 q 152 232 152 253 l 152 253 q 152 282 132 313 q 111 343 86 376 q 61 408 41 442 q 20 476 20 511 l 20 511 q 20 554 43 602 q 66 649 102 689 q 138 728 183 754 q 228 780 272 780 l 272 780 q 307 780 332 759 q 357 738 357 702"},"T":{"x_min":-51,"x_max":463,"ha":381,"o":"m 463 683 l 463 683 q 463 658 444 638 q 424 617 397 602 q 369 586 340 576 q 311 566 292 562 l 292 562 q 284 485 280 409 q 275 332 275 255 l 275 255 q 275 214 277 174 q 279 134 279 94 l 279 94 q 279 76 276 55 q 272 33 264 14 q 255 -5 240 -18 q 225 -31 203 -31 l 203 -31 q 177 -31 162 -16 q 146 -2 138 19 q 129 40 126 64 q 123 87 123 106 l 123 106 q 121 166 120 227 q 119 287 119 348 l 119 348 q 119 399 120 448 q 120 497 120 548 l 120 548 q 106 546 92 545 q 77 544 62 544 l 62 544 q 50 544 31 547 q 11 549 -7 556 q -25 562 -38 574 q -51 585 -51 603 l -51 603 q -51 633 -27 656 q -4 678 33 695 q 69 711 114 723 q 158 734 202 741 q 245 747 282 750 q 318 753 338 753 l 338 753 q 357 753 379 752 q 400 750 419 743 q 438 736 451 722 q 463 708 463 683"},"U":{"x_min":26,"x_max":566,"ha":602,"o":"m 566 351 l 566 351 q 566 310 562 267 q 558 223 548 182 q 538 141 521 105 q 503 68 476 41 q 449 13 411 -3 q 373 -19 322 -19 l 322 -19 q 247 -19 192 16 q 136 51 99 106 q 62 160 44 228 q 26 295 26 361 l 26 361 q 26 368 26 374 q 26 380 27 385 l 27 385 q 28 406 31 442 q 33 478 39 519 q 45 560 55 603 q 64 646 80 680 q 95 714 117 736 q 139 758 169 758 l 169 758 q 191 758 206 745 q 221 732 231 713 q 240 693 244 672 q 248 650 248 632 l 248 632 q 248 605 243 578 q 237 550 232 523 l 232 523 q 224 480 219 437 q 214 394 214 349 l 214 349 q 214 326 217 293 q 219 260 229 230 q 239 199 258 178 q 276 156 308 156 l 308 156 q 339 156 358 177 q 376 198 385 227 q 394 256 397 288 q 399 320 399 343 l 399 343 q 399 409 388 474 q 377 538 359 602 l 359 602 q 354 619 351 636 q 347 653 347 670 l 347 670 q 347 698 364 719 q 380 740 410 740 l 410 740 q 435 740 457 721 q 478 701 495 670 q 512 638 525 599 q 537 560 546 522 q 555 483 560 448 q 564 413 565 391 l 565 391 q 566 381 566 372 q 566 362 566 351"},"V":{"x_min":10,"x_max":512,"ha":497,"o":"m 512 662 l 512 662 q 512 626 503 582 q 494 537 481 491 q 467 445 452 402 q 436 358 424 323 l 424 323 q 416 301 407 269 q 397 236 385 200 q 372 164 357 128 q 342 92 324 64 q 306 35 285 17 q 263 -1 238 -1 l 238 -1 q 217 -1 198 18 q 178 37 161 67 q 143 96 128 133 q 112 169 100 204 q 87 239 79 269 q 70 299 66 315 l 66 315 q 46 393 28 473 q 10 552 10 632 l 10 632 q 10 652 12 674 q 14 695 22 713 q 30 731 45 743 q 59 754 85 754 l 85 754 q 107 754 126 730 q 144 705 159 666 q 174 627 187 579 q 199 531 210 485 q 221 438 231 398 q 241 357 251 333 l 251 333 q 257 353 269 392 q 280 430 296 476 q 311 522 330 571 q 348 619 369 659 q 389 698 411 723 q 433 748 456 748 l 456 748 q 473 748 484 740 q 495 732 501 719 q 507 706 510 691 q 512 676 512 662"},"W":{"x_min":26,"x_max":645,"ha":655,"o":"m 645 587 l 645 587 q 645 527 637 469 q 629 410 618 353 l 618 353 q 615 338 609 305 q 603 271 595 230 q 586 189 574 145 q 562 101 548 65 q 533 29 516 6 q 498 -18 478 -18 l 478 -18 q 458 -18 440 2 q 421 22 406 53 q 390 83 377 121 q 364 159 355 195 q 345 230 339 260 q 332 289 329 304 l 329 304 q 325 291 317 263 q 308 234 295 199 q 282 163 266 126 q 250 89 233 58 q 215 27 196 7 q 177 -13 158 -13 l 158 -13 q 133 -13 114 9 q 95 31 82 66 q 69 100 60 143 q 51 185 46 227 q 41 268 38 304 q 35 340 34 361 l 34 361 q 31 409 29 455 q 26 501 26 549 l 26 549 q 26 566 27 596 q 28 625 35 654 q 41 682 55 704 q 68 725 94 727 l 94 727 q 116 728 132 709 q 148 690 159 659 q 170 627 177 589 q 183 550 187 514 q 190 478 191 448 q 192 418 191 404 l 191 404 l 190 378 q 193 391 201 419 q 208 447 219 483 q 230 518 243 556 q 255 593 269 624 q 283 655 297 676 q 311 696 324 697 l 324 697 q 341 698 357 677 q 372 656 385 623 q 397 589 407 548 q 417 507 425 469 q 432 430 436 399 q 440 368 442 355 l 442 355 q 443 371 447 406 q 451 440 458 483 q 465 525 476 570 q 486 614 500 651 q 514 688 532 712 q 550 735 572 735 l 572 735 q 597 735 612 719 q 627 702 634 679 q 641 655 643 630 q 645 604 645 587"},"X":{"x_min":-10,"x_max":521,"ha":490,"o":"m 521 703 l 521 703 q 521 681 513 656 q 505 631 493 606 q 481 580 468 556 q 454 532 443 513 l 443 513 q 420 470 397 427 q 374 383 348 340 l 348 340 q 361 318 382 280 q 402 242 422 200 q 441 158 456 118 q 470 78 470 52 l 470 52 q 470 32 459 15 q 448 -3 425 -3 l 425 -3 q 398 -3 371 20 q 343 42 319 73 q 294 104 274 137 q 253 169 241 189 l 241 189 q 224 167 207 146 q 189 125 172 103 l 172 103 q 161 89 146 70 q 130 50 112 31 q 93 12 74 -1 q 54 -14 36 -14 l 36 -14 q 23 -14 15 -8 q 6 -3 1 6 q -5 15 -7 26 q -10 37 -10 48 l -10 48 q -10 79 1 111 q 11 142 25 169 l 25 169 q 74 273 128 375 l 128 375 q 117 398 101 439 q 84 480 68 525 q 52 570 41 613 q 29 655 29 681 l 29 681 q 29 710 43 733 q 57 755 89 755 l 89 755 q 107 755 123 746 q 138 736 151 722 q 164 707 174 691 q 184 674 190 660 l 190 660 q 207 624 224 589 q 241 553 256 515 l 256 515 q 264 529 278 553 q 292 577 310 604 q 328 631 349 659 q 370 687 392 710 q 414 732 437 747 q 459 761 479 761 l 479 761 q 501 761 511 741 q 521 721 521 703"},"Y":{"x_min":10,"x_max":481,"ha":445,"o":"m 481 688 l 481 688 q 481 644 470 591 q 458 538 440 484 q 422 430 401 379 q 380 328 362 289 l 362 289 q 352 267 338 234 q 323 200 305 162 q 287 124 267 86 q 246 47 224 17 q 202 -14 179 -33 q 156 -53 133 -53 l 133 -53 q 101 -53 88 -29 q 74 -6 74 23 l 74 23 q 74 51 84 83 q 93 114 108 145 q 122 176 140 205 q 157 234 172 257 l 172 257 q 152 262 133 275 q 114 288 105 306 l 105 306 q 89 341 72 385 q 55 429 42 475 q 28 520 19 566 q 10 611 10 649 l 10 649 q 10 667 14 689 q 18 710 28 729 q 37 747 53 760 q 68 772 91 772 l 91 772 q 117 772 137 753 q 157 733 173 703 q 188 673 199 636 q 210 599 218 563 q 226 527 231 497 q 236 467 240 450 l 240 450 q 244 465 254 496 q 263 526 277 563 q 290 600 308 639 q 325 678 345 710 q 364 742 386 763 q 408 783 431 783 l 431 783 q 446 783 456 772 q 466 761 472 746 q 477 731 479 715 q 481 699 481 688"},"Z":{"x_min":5,"x_max":450,"ha":439,"o":"m 450 662 l 450 662 q 450 657 441 633 q 431 609 415 574 q 399 539 379 496 q 358 452 336 407 q 314 361 293 317 q 272 273 255 238 q 237 202 225 178 q 213 153 210 147 l 210 147 q 241 157 274 164 q 306 170 339 170 l 339 170 q 355 170 373 168 q 391 165 407 158 q 422 150 433 138 q 443 125 443 104 l 443 104 q 443 82 428 65 q 413 47 390 34 q 366 21 336 12 q 306 3 276 -3 q 246 -9 219 -11 q 192 -14 174 -14 l 174 -14 q 151 -14 124 -12 q 96 -10 71 -1 q 46 8 30 26 q 13 43 13 75 l 13 75 q 13 97 26 135 q 38 172 55 212 q 72 251 91 288 q 109 324 120 345 l 120 345 q 154 408 189 471 q 223 533 256 597 l 256 597 q 221 577 176 561 q 131 544 91 544 l 91 544 q 77 544 62 548 q 46 552 34 560 q 21 567 13 579 q 5 591 5 607 l 5 607 q 5 633 22 655 q 39 677 67 695 q 94 713 129 727 q 163 741 198 750 q 233 759 265 764 q 296 769 318 769 l 318 769 q 376 769 413 746 q 450 723 450 662"},"[":{"x_min":41,"x_max":263,"ha":273,"o":"m 263 5 l 263 5 q 263 -12 249 -22 q 235 -33 216 -39 q 196 -46 177 -48 q 157 -51 145 -51 l 145 -51 q 137 -51 127 -50 q 116 -49 107 -46 q 97 -44 89 -39 q 80 -34 76 -26 l 76 -26 q 70 -16 66 24 q 61 63 57 119 q 53 175 50 240 q 47 304 45 364 q 43 423 42 471 q 41 519 41 541 l 41 541 q 41 548 41 568 q 41 588 42 613 q 42 638 44 666 q 45 694 48 718 q 50 742 54 759 q 57 776 62 780 l 62 780 q 74 788 94 791 q 113 794 127 794 l 127 794 q 140 794 160 792 q 179 789 197 783 q 215 776 228 764 q 240 752 240 734 l 240 734 q 240 720 233 710 q 226 699 216 692 q 205 685 192 682 q 179 678 167 678 l 167 678 q 159 678 155 679 l 155 679 q 156 603 157 527 q 158 451 158 376 l 158 376 q 158 299 162 224 q 165 148 168 73 l 168 73 q 195 72 220 62 q 244 51 257 27 l 257 27 q 259 23 261 16 q 263 9 263 5"},"\\":{"x_min":10,"x_max":336,"ha":346,"o":"m 336 17 l 336 17 q 336 7 332 -8 q 328 -23 314 -23 l 314 -23 q 299 -23 281 -1 q 263 21 243 55 q 223 89 204 130 q 184 171 168 210 q 151 249 139 280 q 127 311 122 325 l 122 325 q 109 359 90 408 q 71 457 53 509 q 35 560 23 609 q 10 657 10 691 l 10 691 q 10 697 11 705 q 12 713 15 721 q 17 728 22 733 q 27 738 35 738 l 35 738 q 48 738 66 715 q 84 691 104 655 q 123 618 143 574 q 163 529 181 488 q 198 447 211 415 q 224 382 229 368 l 229 368 q 242 336 260 290 q 278 243 295 193 q 312 143 324 96 q 336 49 336 17"},"]":{"x_min":10,"x_max":217,"ha":258,"o":"m 217 208 l 217 208 q 217 200 217 181 q 217 161 217 135 q 216 109 215 81 q 213 53 211 29 q 208 5 205 -12 q 201 -30 196 -34 l 196 -34 q 184 -42 165 -44 q 145 -47 131 -47 l 131 -47 q 117 -47 98 -44 q 79 -42 61 -35 q 43 -29 31 -17 q 18 -6 18 13 l 18 13 q 18 27 25 38 q 32 48 43 55 q 53 62 66 66 q 79 69 91 69 l 91 69 l 103 69 q 101 145 100 221 q 99 296 99 372 l 99 372 q 99 527 102 682 l 102 682 q 87 682 71 685 q 54 688 41 695 q 27 701 19 713 q 10 725 10 743 l 10 743 q 10 759 21 771 q 32 782 48 789 q 63 796 80 799 q 97 802 109 802 l 109 802 q 127 802 150 797 q 173 791 182 773 l 182 773 q 187 762 192 723 q 197 683 201 628 q 205 573 208 510 q 211 446 213 387 q 215 328 216 280 q 217 231 217 208"},"^":{"x_min":15,"x_max":444,"ha":460,"o":"m 444 509 l 444 509 q 444 497 436 491 q 427 484 416 484 l 416 484 q 399 484 371 508 q 342 531 312 562 q 282 593 255 624 q 228 654 215 669 l 215 669 q 203 652 182 621 q 161 589 137 558 q 113 526 88 503 q 63 479 43 479 l 43 479 q 32 479 24 483 q 15 487 15 501 l 15 501 q 15 516 26 541 q 36 565 54 594 q 71 622 93 652 q 114 681 137 705 q 159 728 181 743 q 202 758 218 758 l 218 758 q 232 758 254 744 q 276 729 301 706 q 326 683 352 655 q 377 626 398 598 q 418 570 431 547 q 444 523 444 509"},"_":{"x_min":0,"x_max":501,"ha":501,"o":"m 501 25 l 501 25 q 501 5 482 -1 l 482 -1 q 458 -8 427 -11 q 395 -15 362 -16 q 328 -18 295 -18 q 262 -18 236 -18 l 236 -18 q 215 -18 187 -18 q 158 -18 129 -17 q 99 -17 71 -15 q 43 -13 23 -9 l 23 -9 q 10 -7 5 2 q 0 10 0 22 l 0 22 q 0 33 5 42 q 9 50 20 53 l 20 53 q 25 55 45 57 q 64 58 91 60 q 117 62 148 64 q 178 65 206 66 q 233 67 255 68 q 277 68 286 68 l 286 68 q 302 68 329 68 q 356 68 384 67 q 412 66 438 64 q 464 62 479 58 l 479 58 q 491 55 496 46 q 501 36 501 25"},"`":{"x_min":31,"x_max":185,"ha":216,"o":"m 185 646 l 185 646 q 185 638 179 634 q 172 629 164 629 l 164 629 q 146 629 127 641 q 107 652 93 660 l 93 660 q 84 666 74 673 q 63 680 54 689 q 44 698 38 709 q 31 719 31 730 l 31 730 q 31 745 42 757 q 53 768 68 768 l 68 768 q 83 768 103 755 q 123 741 142 722 q 160 703 173 682 q 185 661 185 646"},"a":{"x_min":5,"x_max":455,"ha":485,"o":"m 455 141 l 455 141 q 455 123 454 94 q 452 65 445 38 q 438 10 423 -10 q 408 -30 381 -30 l 381 -30 q 344 -30 324 -6 q 304 18 305 54 l 305 54 q 273 26 233 10 q 192 -6 150 -6 l 150 -6 q 121 -6 95 8 q 69 22 49 44 q 29 66 17 94 q 5 121 5 148 l 5 148 q 5 196 35 232 q 64 268 107 294 q 150 319 199 334 q 247 349 285 354 l 285 354 q 285 359 286 363 q 286 367 286 372 l 286 372 q 286 403 269 422 q 252 441 221 441 l 221 441 q 196 441 178 433 q 160 424 144 414 q 128 403 112 395 q 96 386 76 386 l 76 386 q 54 386 39 400 q 23 414 23 436 l 23 436 q 23 469 43 496 q 62 523 92 542 q 121 560 156 571 q 190 581 219 581 l 219 581 q 246 581 273 575 q 300 568 324 555 q 348 541 368 522 q 387 502 399 476 l 399 476 q 417 439 428 398 q 439 356 445 313 q 451 269 453 226 q 455 182 455 141 m 295 173 l 295 173 l 292 241 q 290 241 288 242 q 286 242 284 242 l 284 242 q 271 242 252 236 q 232 229 214 218 q 196 206 184 192 q 171 178 171 163 l 171 163 q 171 149 181 144 q 191 139 204 139 l 204 139 q 226 139 251 151 q 276 162 295 173"},"b":{"x_min":36,"x_max":503,"ha":534,"o":"m 503 330 l 503 330 q 503 301 499 265 q 494 228 485 190 q 475 152 460 116 q 444 80 422 52 q 399 23 370 6 q 340 -11 301 -11 l 301 -11 q 260 -11 227 8 q 193 27 169 60 l 169 60 q 166 33 147 13 q 128 -8 99 -8 l 99 -8 q 82 -8 71 9 q 59 26 52 53 q 45 79 42 111 q 38 143 37 173 q 36 203 36 227 q 36 251 36 261 l 36 261 q 36 295 37 329 q 37 363 38 398 l 38 398 q 38 415 38 449 q 37 483 38 525 q 39 566 43 610 q 46 653 55 689 q 64 725 80 748 q 96 771 121 772 l 121 772 q 141 772 155 758 q 169 744 179 721 q 188 698 194 670 q 199 641 202 613 q 204 584 205 559 q 205 533 205 517 l 205 517 q 205 514 205 504 q 204 493 204 481 q 204 469 204 460 q 204 450 204 449 l 204 449 q 213 468 230 486 q 247 504 268 518 q 289 532 312 541 q 335 550 356 550 l 356 550 q 398 550 427 529 q 455 507 472 474 q 489 441 496 403 q 503 364 503 330 m 356 300 l 356 300 q 356 312 355 326 q 353 340 348 352 q 342 364 333 372 q 323 380 308 380 l 308 380 q 292 380 277 373 q 261 366 247 355 q 233 344 221 332 q 209 319 200 307 l 200 307 l 190 218 q 206 195 229 182 q 252 168 281 168 l 281 168 q 303 168 318 182 q 332 196 341 217 q 349 237 353 260 q 356 283 356 300"},"c":{"x_min":10,"x_max":402,"ha":427,"o":"m 401 384 l 401 384 q 401 379 400 374 q 399 368 397 363 l 397 363 q 388 340 369 325 q 350 309 324 309 l 324 309 q 285 309 271 348 l 271 348 q 269 353 269 360 q 269 366 268 373 l 268 373 l 268 402 q 266 416 261 424 q 256 432 244 432 l 244 432 q 227 432 212 411 q 196 389 185 360 q 173 330 166 299 q 159 268 159 249 l 159 249 q 159 234 161 213 q 163 191 169 171 q 175 151 186 137 q 196 122 213 122 l 213 122 q 230 122 245 133 q 259 143 273 157 l 273 157 q 286 169 302 182 q 317 195 337 195 l 337 195 q 362 195 377 177 q 391 159 391 136 l 391 136 q 391 102 373 73 q 355 43 328 22 q 301 0 268 -12 q 235 -25 205 -25 l 205 -25 q 151 -25 114 2 q 76 29 53 71 q 30 112 20 161 q 10 210 10 254 l 10 254 q 10 305 24 365 q 38 424 67 475 q 96 526 142 560 q 187 594 250 594 l 250 594 q 289 594 318 577 q 346 560 365 533 q 383 505 393 471 q 402 437 402 404 l 402 404 q 402 399 402 394 q 402 389 401 384"},"d":{"x_min":15,"x_max":461,"ha":497,"o":"m 461 658 l 461 658 q 461 585 456 513 q 450 441 450 368 l 450 368 q 450 309 454 251 q 457 193 457 134 l 457 134 q 457 118 456 96 q 455 73 450 52 q 444 31 432 16 q 419 1 396 1 l 396 1 q 366 1 347 24 q 327 46 322 74 l 322 74 q 303 38 267 13 q 231 -12 189 -12 l 189 -12 q 144 -12 112 19 q 79 50 58 94 q 36 138 26 186 q 15 234 15 269 l 15 269 q 15 294 18 326 q 21 358 29 391 q 36 424 48 456 q 60 487 79 512 q 97 537 123 552 q 148 567 181 567 l 181 567 q 217 567 250 546 q 283 525 300 494 l 300 494 l 309 653 q 310 672 312 698 q 314 723 321 746 q 327 769 341 785 q 355 801 382 801 l 382 801 q 411 801 427 787 q 443 773 451 752 q 458 730 460 705 q 461 680 461 658 m 298 206 l 298 214 q 298 237 297 259 q 296 281 297 304 l 297 304 q 291 317 283 333 q 275 348 264 362 q 252 375 238 384 q 224 393 208 393 l 208 393 q 190 393 179 382 q 168 371 163 356 q 158 340 157 322 q 155 304 155 291 l 155 291 q 155 279 157 256 q 159 232 165 208 q 170 184 180 166 q 190 148 207 148 l 207 148 q 220 148 233 154 q 246 159 258 168 q 269 176 280 187 q 290 197 298 206 l 298 206"},"e":{"x_min":15,"x_max":449,"ha":459,"o":"m 449 178 l 449 178 q 449 144 428 112 q 406 79 374 54 q 341 28 304 13 q 267 -3 236 -3 l 236 -3 q 183 -3 142 24 q 100 50 72 91 q 44 132 30 182 q 15 231 15 278 l 15 278 q 15 328 29 385 q 43 442 72 490 q 100 538 144 570 q 187 602 247 602 l 247 602 q 281 602 312 591 q 343 579 366 558 q 389 537 403 508 q 417 479 417 443 l 417 443 q 417 396 397 355 q 377 314 344 284 q 311 254 268 236 q 225 217 180 215 l 180 215 q 184 186 204 173 q 223 160 250 160 l 250 160 q 270 160 289 170 q 308 180 326 193 q 344 205 362 215 q 379 225 397 225 l 397 225 q 417 225 433 212 q 449 199 449 178 m 287 423 l 287 423 q 287 436 280 450 q 273 464 258 464 l 258 464 q 236 464 221 453 q 206 441 196 424 q 186 406 181 386 q 175 366 174 349 l 174 349 q 188 352 208 357 q 227 362 245 371 q 262 379 275 392 q 287 405 287 423"},"f":{"x_min":-36,"x_max":449,"ha":382,"o":"m 449 598 l 449 598 q 449 579 446 562 q 442 544 433 531 q 424 518 409 511 q 394 503 372 503 l 372 503 q 347 503 335 513 q 323 523 319 538 q 314 552 314 569 q 314 586 313 601 q 311 615 305 625 q 299 635 283 635 l 283 635 q 268 635 259 612 q 249 589 243 559 q 237 529 235 501 q 233 472 233 462 l 233 462 q 246 464 258 466 q 270 467 284 467 l 284 467 q 298 467 313 464 q 328 461 341 455 q 354 448 362 437 q 370 425 370 408 l 370 408 q 370 390 355 376 q 339 362 318 353 q 296 343 274 337 q 252 331 239 329 l 239 329 q 242 260 242 190 l 242 190 q 242 124 239 60 l 239 60 q 237 29 218 9 q 198 -11 167 -11 l 167 -11 q 150 -11 138 -4 q 126 2 118 13 q 110 24 106 38 q 101 52 100 67 l 100 67 q 95 127 92 188 q 89 248 90 309 l 90 309 q 83 308 77 308 q 70 308 63 308 l 63 308 q 51 308 34 311 q 17 314 2 322 q -14 329 -25 340 q -36 351 -36 368 l -36 368 q -36 390 -21 405 q -7 420 14 430 q 34 439 57 443 q 79 447 96 449 l 96 449 l 96 465 q 96 514 105 570 q 114 626 137 674 q 160 722 200 754 q 240 785 302 785 l 302 785 q 341 785 369 769 q 397 752 415 726 q 433 699 441 666 q 449 632 449 598"},"g":{"x_min":10,"x_max":483,"ha":524,"o":"m 483 341 l 483 341 q 483 290 482 239 q 480 188 476 137 l 476 137 q 473 93 468 43 q 463 -7 452 -56 q 441 -106 423 -151 q 405 -197 376 -232 q 346 -267 304 -288 q 262 -309 204 -309 l 204 -309 q 177 -309 144 -300 q 110 -292 81 -276 q 51 -260 31 -236 q 10 -213 10 -182 l 10 -182 q 10 -159 27 -139 q 43 -120 69 -120 l 69 -120 q 85 -120 100 -125 q 114 -131 129 -138 q 143 -145 157 -150 q 170 -156 184 -156 l 184 -156 q 221 -156 246 -137 q 271 -119 286 -90 q 301 -62 309 -28 q 316 5 319 35 l 319 35 q 299 12 273 4 q 246 -5 217 -5 l 217 -5 q 164 -5 127 14 q 90 32 67 65 q 44 97 33 140 q 22 183 22 233 l 22 233 q 22 264 29 303 q 35 342 48 382 q 61 422 81 460 q 100 498 126 527 q 152 556 185 574 q 217 592 256 592 l 256 592 q 294 592 324 570 q 353 548 358 508 l 358 508 q 369 529 387 550 q 405 570 431 570 l 431 570 q 445 570 455 556 q 464 542 470 520 q 475 497 478 471 q 481 444 482 419 q 483 393 483 372 q 483 351 483 341 m 331 276 l 331 276 q 331 291 327 315 q 322 339 314 361 q 305 383 292 399 q 279 415 261 415 l 261 415 q 238 415 221 399 q 203 383 191 361 q 179 338 173 313 q 166 287 166 269 l 166 269 q 166 256 168 234 q 170 212 177 191 q 183 170 194 155 q 205 140 223 140 l 223 140 q 250 140 270 153 q 290 166 304 186 q 317 206 324 230 q 331 254 331 276"},"h":{"x_min":36,"x_max":484,"ha":525,"o":"m 484 259 l 484 259 q 484 242 484 209 q 483 175 481 139 q 478 102 474 70 q 470 37 464 22 l 464 22 q 456 3 443 -11 q 430 -25 408 -25 l 408 -25 q 374 -25 359 2 q 344 29 339 69 q 334 109 335 156 q 336 203 334 243 q 332 283 323 310 q 314 337 290 337 l 290 337 q 257 337 240 327 q 222 316 215 299 q 207 282 206 260 q 204 238 202 214 l 202 214 q 200 191 199 152 q 198 113 190 75 q 182 37 164 10 q 145 -18 109 -18 l 109 -18 q 87 -18 74 -1 q 60 16 52 43 q 44 70 41 103 q 37 136 37 168 q 36 199 37 225 q 37 251 37 264 l 37 264 q 37 284 39 330 q 40 376 45 433 q 50 489 58 549 q 66 609 79 659 q 92 708 111 739 q 129 770 154 769 l 154 769 q 170 768 182 755 q 193 742 201 722 q 208 701 213 677 q 218 653 221 630 q 223 606 224 586 q 224 566 224 555 l 224 555 q 224 529 223 503 q 222 477 220 451 l 220 451 q 243 482 282 502 q 320 522 359 522 l 359 522 q 409 522 435 495 q 460 467 471 427 q 482 386 483 341 q 484 295 484 259"},"i":{"x_min":36,"x_max":203,"ha":244,"o":"m 195 698 l 195 698 q 195 684 188 673 q 180 662 168 654 q 156 645 142 641 q 128 636 116 636 l 116 636 q 96 636 81 646 q 66 656 66 677 l 66 677 q 66 692 74 704 q 81 715 92 723 q 103 730 117 734 q 131 738 144 738 l 144 738 q 163 738 179 729 q 195 720 195 698 m 203 358 l 203 358 q 203 344 203 329 q 203 313 202 299 l 202 299 q 201 282 201 254 q 201 225 199 192 q 197 159 193 125 q 188 91 178 63 q 168 35 152 18 q 135 0 110 -1 l 110 -1 q 91 -2 78 14 q 65 30 57 56 q 48 81 44 113 q 40 144 38 174 q 36 203 36 228 q 36 253 36 265 l 36 265 q 36 281 36 311 q 36 340 38 374 q 40 408 46 443 q 51 478 62 507 q 72 536 89 554 q 106 572 132 572 l 132 572 q 159 572 173 545 q 187 518 194 482 q 201 446 202 411 q 203 375 203 358"},"j":{"x_min":-169,"x_max":219,"ha":270,"o":"m 200 688 l 200 688 q 200 674 192 663 q 184 651 172 643 q 160 635 146 631 q 132 626 120 626 l 120 626 q 100 626 85 636 q 70 646 70 667 l 70 667 q 70 682 78 694 q 85 705 97 713 q 108 720 122 724 q 135 728 148 728 l 148 728 q 167 728 184 719 q 200 709 200 688 m 219 254 l 219 254 q 219 207 217 150 q 214 92 205 34 q 195 -24 175 -76 q 155 -128 119 -163 l 119 -163 q 99 -182 72 -203 q 45 -224 15 -242 q -16 -260 -47 -271 q -78 -283 -106 -283 l -106 -283 q -138 -283 -153 -265 q -169 -248 -169 -217 l -169 -217 q -169 -185 -152 -169 q -135 -153 -110 -141 q -85 -129 -55 -114 q -26 -100 -1 -71 q 24 -42 41 8 q 58 57 58 138 l 58 138 q 58 189 56 238 q 54 287 50 338 l 50 338 q 48 367 46 397 q 44 426 44 455 l 44 455 q 44 473 49 493 q 54 513 64 530 q 74 546 90 557 q 105 567 127 567 l 127 567 q 152 567 169 548 q 185 529 196 500 q 206 470 211 434 q 215 397 217 363 q 219 328 219 299 q 219 270 219 254"},"k":{"x_min":31,"x_max":474,"ha":479,"o":"m 474 538 l 474 538 q 474 510 460 481 q 445 452 425 424 q 404 395 382 370 q 359 344 342 323 l 342 323 q 356 301 377 265 q 398 228 417 187 q 436 146 450 107 q 463 68 463 42 l 463 42 q 463 21 450 4 q 437 -14 414 -14 l 414 -14 q 397 -14 380 1 q 362 15 345 39 q 327 62 311 91 q 295 120 282 148 q 268 176 258 201 q 247 225 241 240 l 241 240 q 228 227 214 219 q 199 210 185 199 l 185 199 q 185 178 184 140 q 182 102 175 65 q 167 28 150 1 q 133 -27 100 -27 l 100 -27 q 74 -27 60 -3 q 46 20 40 52 q 33 83 32 116 q 31 148 31 165 l 31 165 q 31 239 35 313 q 39 387 40 461 l 40 461 q 40 478 41 506 q 41 533 44 565 q 47 597 53 630 q 59 663 70 690 q 81 716 99 733 q 116 749 141 749 l 141 749 q 159 749 172 736 q 184 722 192 701 q 199 680 203 654 q 206 628 208 603 q 209 577 209 555 q 209 533 209 520 l 209 520 q 209 511 209 494 q 208 476 208 457 q 207 438 207 422 q 207 406 209 399 l 209 399 q 216 399 230 413 q 244 426 263 447 q 281 468 303 492 q 324 515 347 536 q 369 557 391 571 q 413 584 432 584 l 432 584 q 452 584 463 570 q 474 556 474 538"},"l":{"x_min":36,"x_max":217,"ha":263,"o":"m 217 606 l 217 606 q 217 552 213 498 q 208 443 208 388 l 208 388 q 208 317 213 246 q 217 175 217 103 l 217 103 q 217 85 215 63 q 213 40 206 21 q 198 2 183 -11 q 168 -24 143 -24 l 143 -24 q 119 -24 102 0 q 84 23 73 60 q 61 96 54 141 q 46 186 43 229 q 39 271 38 307 q 36 342 36 359 l 36 359 q 36 378 38 414 q 39 450 44 492 q 49 534 58 578 q 66 621 80 657 q 94 692 114 715 q 133 737 160 737 l 160 737 q 182 737 194 723 q 205 708 210 688 q 215 667 216 645 q 217 622 217 606"},"m":{"x_min":30,"x_max":637,"ha":673,"o":"m 637 330 l 637 330 q 637 311 637 279 q 637 246 636 208 q 634 170 629 132 q 624 93 614 62 q 603 31 587 11 q 571 -9 546 -9 l 546 -9 q 524 -9 513 10 q 501 28 496 53 q 491 78 491 104 q 490 130 490 145 l 490 145 q 490 190 493 233 q 496 276 496 321 l 496 321 q 496 326 496 339 q 496 352 494 365 q 492 378 488 388 q 483 398 474 398 l 474 398 q 456 398 445 380 q 434 361 427 336 q 420 311 417 287 q 414 262 413 250 l 413 250 q 411 237 410 211 q 408 185 406 154 q 403 123 398 91 q 392 58 384 32 q 375 5 362 -12 q 349 -29 330 -29 l 330 -29 q 306 -29 293 -8 q 280 13 274 41 q 268 69 267 98 q 265 127 265 143 l 265 143 q 265 160 266 176 q 266 192 266 209 l 266 209 q 266 216 266 232 q 266 248 266 268 q 265 287 264 308 q 262 329 259 347 q 256 364 250 375 q 244 386 236 386 l 236 386 q 223 386 212 370 q 201 353 193 331 q 185 308 181 286 q 176 264 176 254 l 176 254 l 176 248 q 176 200 182 154 q 188 108 188 60 l 188 60 q 188 32 170 9 q 152 -15 120 -15 l 120 -15 q 97 -15 82 3 q 67 20 57 48 q 47 76 42 110 q 36 143 34 176 q 32 208 32 235 q 31 261 31 274 l 31 274 q 31 289 31 318 q 30 347 32 381 q 33 415 37 451 q 41 486 50 515 q 59 544 74 563 q 88 581 111 581 l 111 581 q 137 581 154 567 q 170 553 170 525 l 170 525 q 170 519 170 513 q 169 507 168 502 l 168 502 q 179 518 195 535 q 211 551 230 565 q 248 578 269 587 q 290 595 311 595 l 311 595 q 331 595 347 584 q 363 573 375 557 q 387 540 395 521 q 403 502 406 485 l 406 485 q 416 503 431 522 q 445 540 462 554 q 479 568 500 577 q 520 586 542 586 l 542 586 q 563 586 578 571 q 593 556 604 533 q 615 509 621 480 q 627 450 631 422 q 635 393 636 369 q 637 344 637 330"},"n":{"x_min":26,"x_max":452,"ha":478,"o":"m 314 -28 l 314 -28 q 297 -28 287 -12 q 277 3 272 23 q 267 43 266 64 q 264 84 264 95 l 264 95 q 264 125 268 155 q 271 185 276 215 q 280 245 284 275 q 287 305 287 335 l 287 335 q 287 347 286 361 q 285 375 282 388 q 278 400 270 408 q 262 416 249 416 l 249 416 q 240 416 229 402 q 218 387 209 369 q 199 350 193 332 q 186 313 186 304 l 186 304 q 186 282 187 260 q 187 237 187 214 l 187 214 l 187 156 q 186 138 184 119 q 182 100 178 82 l 178 82 q 175 64 169 48 q 163 31 154 19 q 144 6 131 -2 q 118 -10 100 -10 l 100 -10 q 80 -10 67 3 q 54 16 46 37 q 38 57 35 83 q 31 108 30 133 q 28 157 29 178 q 29 198 29 210 l 29 210 l 29 257 q 29 295 28 332 q 26 369 26 406 l 26 406 q 26 426 27 457 q 27 488 34 518 q 41 547 57 568 q 73 589 104 589 l 104 589 q 118 589 129 580 q 140 571 149 558 q 157 545 163 530 q 168 515 171 504 l 171 504 q 181 518 195 531 q 208 544 225 554 q 242 564 263 570 q 284 576 311 576 l 311 576 q 362 576 391 552 q 419 527 433 491 q 446 454 449 412 q 452 370 452 336 l 452 336 q 452 319 449 286 q 446 252 440 212 q 433 171 422 129 q 411 86 396 51 q 381 16 361 -6 q 340 -28 314 -28"},"o":{"x_min":15,"x_max":440,"ha":458,"o":"m 220 -29 l 220 -29 q 169 -29 131 -2 q 93 25 67 67 q 41 109 28 161 q 15 212 15 262 l 15 262 q 15 315 28 372 q 41 428 68 475 q 95 521 137 551 q 179 580 237 580 l 237 580 q 293 580 333 550 q 372 519 396 474 q 420 428 430 374 q 440 320 437 272 l 437 272 q 434 219 421 165 q 407 111 381 68 q 355 25 315 -2 q 275 -29 220 -29 m 230 423 l 230 423 q 215 423 204 407 q 192 391 185 368 q 177 345 173 320 q 169 294 169 275 l 169 275 q 169 251 174 223 q 178 195 186 172 q 194 148 206 133 q 217 117 232 117 l 232 117 q 248 117 260 132 q 271 147 278 170 q 285 193 288 221 q 291 248 291 272 l 291 272 q 291 294 287 321 q 283 347 276 370 q 268 393 257 408 q 245 423 230 423"},"p":{"x_min":31,"x_max":488,"ha":519,"o":"m 488 298 l 488 298 q 488 254 479 202 q 469 149 447 104 q 424 59 388 29 q 351 -1 296 -1 l 296 -1 q 282 -1 267 1 q 252 3 239 8 q 225 13 214 22 q 203 30 197 44 l 197 44 l 188 -100 q 187 -123 187 -155 q 186 -187 179 -216 q 171 -245 154 -265 q 136 -286 103 -286 l 103 -286 q 84 -286 71 -266 q 58 -247 51 -217 q 43 -187 39 -150 q 35 -113 34 -79 q 33 -45 33 -17 q 33 11 33 24 l 33 24 q 33 91 32 158 q 31 224 31 291 l 31 291 q 31 303 31 329 q 31 354 33 384 q 35 414 40 446 q 44 478 53 505 q 62 531 76 548 q 90 564 110 564 l 110 564 q 123 564 134 557 q 144 549 152 538 q 159 526 164 513 q 169 500 172 489 l 172 489 q 203 524 244 542 q 284 560 330 560 l 330 560 q 378 560 409 533 q 439 506 457 466 q 474 426 481 381 q 488 335 488 298 m 345 306 l 345 306 q 345 321 343 337 q 340 352 334 366 q 327 379 315 388 q 303 396 285 396 l 285 396 q 261 396 235 381 q 208 365 195 345 l 195 345 q 190 337 189 319 q 188 301 188 292 l 188 292 q 188 285 189 274 q 189 262 190 250 q 191 238 193 227 q 194 216 197 210 l 197 210 q 200 201 210 194 q 220 186 232 180 q 244 174 257 171 q 269 168 278 168 l 278 168 q 299 168 312 184 q 325 200 333 222 q 340 244 343 268 q 345 291 345 306"},"q":{"x_min":15,"x_max":498,"ha":513,"o":"m 495 465 l 495 465 q 487 392 479 320 q 471 248 468 176 l 468 176 q 463 93 464 19 q 465 -55 465 -138 l 465 -138 q 465 -158 465 -187 q 464 -216 457 -243 q 450 -270 435 -289 q 419 -308 388 -308 l 388 -308 q 373 -308 363 -299 q 352 -290 345 -275 q 337 -261 333 -243 q 328 -225 325 -206 l 325 -206 q 320 -167 320 -128 q 319 -90 319 -72 l 319 -72 l 319 6 l 319 62 q 296 32 260 17 q 223 1 187 1 l 187 1 q 142 1 110 23 q 77 44 56 78 q 35 111 25 151 q 15 191 15 229 l 15 229 l 15 235 q 15 287 31 348 q 47 408 79 460 q 110 512 158 547 q 205 581 268 581 l 268 581 q 302 581 331 567 q 359 553 371 521 l 371 521 q 379 544 396 559 q 412 573 438 573 l 438 573 q 471 573 485 552 q 498 530 498 504 l 498 504 q 498 493 497 484 q 496 475 495 465 m 265 441 l 265 441 q 242 441 222 423 q 202 404 187 378 q 172 351 164 321 q 155 291 155 268 l 155 268 q 155 254 158 238 q 160 222 166 208 q 171 193 181 184 q 190 174 205 174 l 205 174 q 218 174 236 181 q 253 187 270 198 q 287 208 300 221 q 313 234 318 246 l 318 246 q 321 253 323 267 q 325 281 327 297 q 328 312 329 327 q 330 342 330 350 l 330 350 q 330 362 325 378 q 319 393 310 408 q 301 422 289 432 q 277 441 265 441"},"r":{"x_min":26,"x_max":449,"ha":432,"o":"m 377 374 l 377 374 q 363 373 353 377 q 343 380 333 384 l 333 384 q 324 388 315 392 q 306 395 295 394 l 295 394 q 275 393 260 383 q 244 373 232 358 q 219 343 210 325 q 201 306 196 288 l 196 288 q 193 276 192 252 q 190 227 190 199 l 190 199 q 189 170 189 144 q 189 118 187 103 l 187 103 q 186 87 182 66 q 178 44 170 25 q 161 6 147 -7 q 133 -20 111 -20 l 111 -20 q 94 -20 82 -10 q 69 0 61 17 q 52 33 47 55 q 41 77 38 100 l 38 100 q 35 124 34 148 q 32 172 32 194 q 31 215 32 233 q 32 251 32 262 l 32 262 q 31 297 29 333 q 26 368 26 403 l 26 403 q 26 425 28 452 q 30 479 39 503 q 48 526 66 542 q 83 558 114 558 l 114 558 q 131 558 143 547 q 155 536 163 520 q 170 504 174 486 q 178 468 179 453 l 179 453 q 203 492 233 517 q 263 541 311 543 l 311 543 q 335 544 359 539 q 382 533 402 521 q 421 508 434 488 q 446 468 447 441 l 447 441 q 449 409 428 392 q 407 375 377 374"},"s":{"x_min":-20,"x_max":323,"ha":333,"o":"m 323 550 l 323 550 q 323 521 304 507 q 284 493 260 481 q 236 468 217 451 q 197 434 197 400 l 197 400 q 197 382 206 369 q 214 356 227 346 q 239 335 254 324 q 269 313 282 299 q 294 285 303 265 q 311 245 311 216 l 311 216 q 311 174 290 134 q 268 93 235 62 q 201 30 159 11 q 117 -8 76 -8 l 76 -8 q 59 -8 42 -5 q 25 -3 12 4 q -2 11 -11 24 q -20 36 -20 56 l -20 56 q -20 84 -9 100 q 2 115 19 124 q 36 133 56 138 q 75 143 92 151 q 109 158 120 170 q 131 182 131 204 l 131 204 q 131 225 115 248 q 98 270 78 296 q 58 321 42 350 q 25 379 25 414 l 25 414 q 25 457 43 494 q 60 530 90 557 q 119 584 157 600 q 195 615 237 615 l 237 615 q 253 615 269 612 q 284 609 296 602 q 308 594 316 582 q 323 569 323 550"},"t":{"x_min":-36,"x_max":394,"ha":384,"o":"m 263 -36 l 263 -36 q 192 -36 153 -17 q 113 1 94 35 q 74 69 70 117 q 66 165 66 224 l 66 224 q 66 271 69 319 q 72 366 78 420 l 78 420 q 64 420 56 420 q 48 419 43 419 l 43 419 q 11 419 -12 433 q -36 447 -36 476 l -36 476 q -36 494 -22 508 q -9 522 12 532 q 33 542 58 548 q 82 554 104 556 l 104 556 q 104 584 108 618 q 112 652 123 682 q 133 711 151 731 q 169 751 197 751 l 197 751 q 213 751 226 742 q 238 732 246 718 q 254 703 258 685 q 262 667 262 650 l 262 650 q 262 630 259 609 q 256 588 248 557 l 248 557 q 265 559 271 560 q 277 560 282 560 l 282 560 q 299 560 318 557 q 336 554 352 547 q 367 540 377 529 q 387 517 387 501 l 387 501 q 387 483 373 469 q 358 455 336 445 q 314 435 289 430 q 264 424 242 422 l 242 422 q 236 381 234 347 q 231 312 228 277 l 228 277 q 226 260 225 243 q 223 225 223 207 l 223 207 q 223 194 224 177 q 225 159 231 143 q 237 127 250 116 q 263 104 286 104 l 286 104 q 300 104 315 107 q 330 109 345 109 l 345 109 q 371 109 383 91 q 394 73 394 45 l 394 45 q 394 24 382 9 q 369 -7 350 -16 q 331 -26 308 -31 q 284 -36 263 -36"},"u":{"x_min":20,"x_max":468,"ha":499,"o":"m 468 286 l 468 286 q 468 231 457 177 q 446 123 420 81 q 394 38 351 12 q 307 -14 242 -14 l 242 -14 q 178 -14 135 12 q 92 37 67 79 q 41 121 31 174 q 20 227 20 282 l 20 282 q 20 342 34 401 l 34 401 q 37 417 46 446 q 54 474 68 502 q 81 529 99 549 q 116 569 137 569 l 137 569 q 157 569 169 558 q 181 547 188 531 q 195 514 197 496 q 199 477 199 462 l 199 462 q 199 439 196 417 q 192 395 188 373 l 188 373 q 184 343 181 313 q 177 283 177 253 l 177 253 q 177 238 179 220 q 180 201 186 184 q 192 167 203 156 q 214 144 234 144 l 234 144 q 260 144 276 158 q 291 172 299 193 q 306 214 308 238 q 310 262 310 282 l 310 282 q 310 326 304 369 q 298 411 293 455 l 293 455 q 292 460 292 469 l 292 469 q 292 484 297 499 q 302 514 311 526 q 320 538 333 546 q 346 553 362 553 l 362 553 q 384 553 401 538 q 418 522 430 498 q 441 473 449 443 q 456 412 461 383 q 465 353 467 327 q 468 301 468 286"},"v":{"x_min":5,"x_max":493,"ha":498,"o":"m 461 358 l 461 358 q 435 289 404 214 q 373 139 337 74 l 337 74 q 315 34 288 8 q 261 -19 226 -19 l 226 -19 q 198 -19 172 10 q 145 38 123 78 q 100 117 84 158 q 67 198 59 222 l 59 222 q 51 249 41 280 q 31 311 23 343 l 23 343 q 15 375 10 407 q 5 438 5 466 l 5 466 q 5 505 19 530 q 33 555 74 555 l 74 555 q 90 555 103 546 q 116 536 127 519 q 138 502 148 480 q 158 457 167 430 l 167 430 q 176 404 184 376 q 192 348 200 322 l 200 322 q 208 296 217 272 q 225 247 239 223 l 239 223 q 246 241 255 264 q 264 287 275 313 q 285 339 297 367 q 309 394 323 420 l 323 420 q 350 474 381 512 q 411 550 441 550 l 441 550 q 469 550 481 533 q 493 516 493 489 l 493 489 q 493 462 484 428 q 475 394 461 358"},"w":{"x_min":31,"x_max":715,"ha":740,"o":"m 528 -13 l 528 -13 q 496 -13 471 21 q 445 55 426 103 q 407 150 395 200 q 382 250 376 283 l 376 283 q 368 263 355 234 q 341 205 324 173 q 306 141 286 109 q 266 76 245 50 q 223 24 202 8 q 180 -8 160 -8 l 160 -8 q 133 -8 113 18 q 92 44 78 86 q 64 128 55 179 q 45 230 40 281 q 35 332 33 376 q 31 420 31 447 l 31 447 q 31 472 34 495 q 36 518 44 536 q 51 554 66 565 q 80 575 104 575 l 104 575 q 127 575 144 558 q 160 541 171 514 q 182 486 189 452 q 196 417 200 382 q 204 346 206 313 q 207 279 208 255 l 208 255 q 214 276 225 307 q 236 337 249 372 q 262 406 278 440 q 293 474 309 501 q 324 528 339 545 q 354 562 368 562 l 368 562 l 369 562 q 387 562 404 545 q 421 528 437 501 q 453 474 467 440 q 481 405 493 370 q 505 334 514 301 q 523 267 529 243 l 529 243 q 530 272 532 309 q 534 345 540 382 q 545 419 555 454 q 564 489 578 517 q 592 544 613 561 q 633 577 660 577 l 660 577 q 688 577 702 558 q 715 538 715 510 l 715 510 q 715 480 708 430 q 700 380 687 322 q 674 263 657 204 q 639 144 618 96 q 597 48 574 18 q 551 -13 528 -13"},"x":{"x_min":0,"x_max":452,"ha":452,"o":"m 452 516 l 452 516 q 452 500 446 483 q 440 465 431 447 q 422 429 412 413 q 402 396 394 382 l 394 382 q 374 350 355 317 q 335 284 315 252 l 315 252 q 324 238 340 213 q 356 188 372 161 q 387 133 398 106 q 409 79 409 60 l 409 60 q 409 42 395 25 q 381 8 361 8 l 361 8 q 340 8 319 23 q 297 38 277 59 q 256 79 239 102 q 222 124 210 139 l 210 139 q 197 125 177 101 q 156 77 133 54 q 109 31 86 15 q 63 -2 45 -2 l 45 -2 q 24 -2 12 13 q 0 28 0 48 l 0 48 q 0 68 14 99 q 27 130 46 163 q 64 196 83 226 q 101 256 111 273 l 111 273 q 101 291 86 321 q 71 350 58 383 q 44 415 35 447 q 25 478 25 499 l 25 499 q 25 522 39 536 q 53 550 76 550 l 76 550 q 101 550 123 531 q 145 511 164 484 q 183 456 198 427 q 212 397 221 378 l 221 378 q 233 396 255 427 q 276 458 303 488 q 330 518 359 540 q 388 562 414 562 l 414 562 q 431 562 442 548 q 452 533 452 516"},"y":{"x_min":14,"x_max":495,"ha":530,"o":"m 247 -291 l 247 -291 q 223 -291 193 -283 q 162 -276 135 -262 q 108 -248 90 -228 q 71 -208 71 -182 l 71 -182 q 71 -172 76 -162 q 81 -152 90 -144 q 98 -137 108 -132 q 118 -128 129 -128 l 129 -128 q 141 -128 153 -131 q 164 -135 176 -140 l 176 -140 q 189 -145 202 -149 q 214 -153 228 -153 l 228 -153 q 253 -153 272 -136 q 290 -119 303 -91 q 316 -64 324 -30 q 332 3 337 36 q 341 69 343 98 q 345 127 346 145 l 346 145 q 311 92 277 64 q 242 35 192 35 l 192 35 q 154 35 126 51 q 97 67 77 93 q 57 119 44 153 q 31 186 25 222 q 18 258 16 293 q 14 327 16 356 l 16 356 q 17 378 22 414 q 26 449 36 483 q 46 517 64 541 q 82 564 111 562 l 111 562 q 130 561 142 546 q 154 530 162 507 q 169 484 173 457 q 176 429 177 402 q 178 375 178 353 q 177 330 177 318 l 177 318 q 177 301 178 284 q 179 267 185 254 q 191 240 204 232 q 216 224 239 224 l 239 224 q 265 224 281 237 q 296 250 304 270 q 311 289 313 312 q 315 334 315 354 l 315 354 q 315 368 315 388 q 315 408 316 430 q 316 452 320 474 q 323 495 331 513 q 338 530 351 541 q 363 552 383 552 l 383 552 q 408 552 426 533 q 444 513 457 482 q 469 450 477 412 q 484 374 488 337 q 492 299 494 268 q 495 236 495 218 l 495 218 q 495 176 492 123 q 489 69 481 13 q 472 -44 455 -98 q 438 -153 411 -196 q 383 -239 343 -265 q 303 -291 247 -291"},"z":{"x_min":0,"x_max":479,"ha":469,"o":"m 479 94 l 479 94 q 479 74 463 59 q 446 44 421 32 q 395 20 363 12 q 330 4 299 -1 q 267 -6 239 -8 q 211 -11 194 -11 l 194 -11 q 177 -11 147 -10 q 116 -9 86 -2 q 56 4 34 19 q 12 33 12 59 l 12 59 q 12 79 26 108 q 40 137 62 171 q 84 205 111 241 q 138 276 164 309 q 190 342 213 370 q 236 397 249 415 l 249 415 q 235 412 214 407 q 192 401 169 396 q 146 391 125 388 q 103 384 88 384 l 88 384 q 76 384 61 389 q 46 393 33 401 q 19 409 10 420 q 0 431 0 445 l 0 445 q 0 463 16 479 q 32 494 58 507 q 84 519 116 529 q 148 538 179 545 q 210 551 238 554 q 266 557 283 557 l 283 557 q 302 557 329 553 q 356 549 382 539 q 407 529 425 512 q 443 495 443 469 l 443 469 q 443 461 442 455 q 440 448 438 440 l 438 440 q 436 433 421 409 q 405 384 383 351 q 360 317 334 279 q 307 240 283 206 q 259 172 241 146 q 223 120 217 111 l 217 111 q 258 122 301 130 q 343 137 385 137 l 385 137 q 395 137 411 136 q 427 135 442 131 q 457 126 468 118 q 479 109 479 94"},"{":{"x_min":31,"x_max":298,"ha":298,"o":"m 298 8 l 298 8 q 298 -11 290 -24 q 281 -37 268 -44 q 254 -52 238 -55 q 221 -59 205 -59 l 205 -59 q 141 -59 114 -22 q 87 14 87 74 l 87 74 q 87 111 97 143 q 106 175 106 208 l 106 208 q 106 246 95 264 q 83 282 69 294 q 54 306 43 320 q 31 333 31 362 l 31 362 q 31 379 37 393 q 43 406 59 414 l 59 414 q 68 418 77 431 q 85 444 91 459 q 97 474 101 489 q 105 504 105 513 l 105 513 q 105 551 97 589 q 88 626 88 664 l 88 664 q 88 691 96 717 q 104 743 120 763 q 136 782 159 794 q 181 806 211 806 l 211 806 q 242 806 263 792 q 284 777 284 743 l 284 743 q 284 717 268 700 q 251 682 227 673 l 227 673 q 213 668 210 656 q 206 643 206 629 l 206 629 q 206 603 212 577 q 218 550 218 524 l 218 524 q 218 509 215 486 q 212 463 205 440 q 198 416 188 397 q 177 378 161 370 l 161 370 q 175 365 190 355 q 204 344 216 330 q 227 316 234 300 q 241 283 241 268 l 241 268 q 241 250 237 231 q 232 211 226 192 q 220 172 216 151 q 211 130 211 109 l 211 109 q 211 89 221 74 q 231 58 254 58 l 254 58 q 272 58 285 42 q 298 25 298 8"},"|":{"x_min":51,"x_max":170,"ha":221,"o":"m 170 272 l 170 272 q 170 261 170 233 q 169 205 168 169 q 166 133 163 94 q 159 55 153 23 q 146 -10 136 -31 q 126 -52 111 -52 l 111 -52 q 96 -52 86 -26 q 76 -1 70 39 q 63 79 60 127 q 56 174 55 219 q 53 263 53 298 q 53 332 53 346 l 53 346 q 53 384 52 422 q 51 459 51 497 l 51 497 q 51 506 51 530 q 51 553 52 583 q 53 613 57 645 q 60 677 66 704 q 72 730 83 747 q 93 764 108 764 l 108 764 q 121 764 131 738 q 140 711 147 670 q 154 629 158 580 q 162 530 165 484 q 167 438 168 401 q 169 364 169 349 l 169 349 q 170 330 170 311 q 170 292 170 272"},"}":{"x_min":0,"x_max":262,"ha":293,"o":"m 262 366 l 262 366 q 262 349 256 336 q 250 322 233 314 l 233 314 q 224 309 217 299 q 209 288 204 275 q 198 262 195 249 q 191 235 191 226 l 191 226 q 191 188 200 151 q 209 113 209 75 l 209 75 q 209 48 201 22 q 193 -4 178 -23 q 162 -43 140 -55 q 117 -67 87 -67 l 87 -67 q 56 -67 35 -52 q 14 -38 14 -4 l 14 -4 q 14 23 30 40 q 46 57 70 67 l 70 67 q 84 72 88 85 q 92 97 92 111 l 92 111 q 92 137 86 164 q 79 190 79 217 l 79 217 q 79 232 82 253 q 84 274 90 295 q 96 316 107 333 q 117 350 132 358 l 132 358 q 118 362 105 375 q 92 388 81 405 q 70 421 64 439 q 57 457 57 471 l 57 471 q 57 489 62 509 q 66 528 72 548 q 78 568 83 589 q 87 609 87 631 l 87 631 q 87 650 77 666 q 67 681 44 681 l 44 681 q 26 681 13 698 q 0 714 0 731 l 0 731 q 0 750 9 763 q 17 776 31 784 q 44 792 61 796 q 77 799 93 799 l 93 799 q 156 799 183 762 q 210 725 210 666 l 210 666 q 210 628 201 596 q 191 564 191 531 l 191 531 q 191 493 204 469 q 217 444 243 419 l 243 419 q 253 409 258 395 q 262 380 262 366"},"~":{"x_min":15,"x_max":508,"ha":523,"o":"m 508 287 l 508 287 q 508 277 504 270 q 499 263 492 258 l 492 258 q 481 250 462 241 q 442 231 420 223 q 397 215 376 210 q 354 204 341 204 l 341 204 q 313 204 289 214 q 265 224 244 236 q 222 248 202 258 q 182 268 163 268 l 163 268 q 145 268 131 262 q 116 255 104 247 q 91 239 80 233 q 69 226 58 226 l 58 226 q 42 226 29 237 q 15 248 15 265 l 15 265 q 15 284 31 300 q 47 315 69 325 q 91 335 115 341 q 139 346 154 346 l 154 346 q 177 346 200 337 q 223 327 247 316 q 271 304 297 295 q 322 285 351 285 l 351 285 q 374 285 393 291 q 411 297 426 305 q 441 312 452 318 q 463 324 471 324 l 471 324 q 485 324 497 313 q 508 301 508 287"},"Ä":{"x_min":26,"x_max":535,"ha":570,"o":"m 535 148 l 535 148 q 535 128 532 100 q 528 72 518 47 q 508 21 491 4 q 474 -14 446 -14 l 446 -14 q 409 -14 391 13 q 372 40 364 78 q 356 115 355 154 q 353 193 352 216 l 352 216 q 280 204 210 195 l 210 195 q 208 172 202 138 q 195 104 182 73 q 168 41 147 18 q 125 -5 94 -5 l 94 -5 q 70 -5 57 13 q 43 30 36 54 q 29 78 28 104 q 26 129 26 146 l 26 146 q 26 203 35 259 q 44 314 56 369 l 56 369 q 62 398 72 437 q 82 476 97 518 q 111 559 131 600 q 150 640 175 672 q 200 704 232 724 q 264 744 303 744 l 303 744 q 341 744 369 727 q 397 710 418 682 q 439 654 453 619 q 467 583 477 547 q 486 510 493 475 q 499 440 504 413 l 504 413 q 517 348 526 282 q 535 215 535 148 m 342 362 l 342 391 q 342 403 341 431 q 339 458 334 486 q 329 513 319 535 q 308 556 290 556 l 290 556 q 280 556 271 543 q 262 529 255 509 q 248 488 243 463 q 237 438 233 415 q 229 392 227 374 q 225 355 224 347 l 224 347 q 284 352 342 362 l 342 362 m 473 883 l 473 883 q 473 854 454 837 q 435 820 406 820 l 406 820 q 378 820 358 837 q 337 853 337 882 l 337 882 q 337 912 356 933 q 374 954 405 954 l 405 954 q 435 954 454 934 q 473 913 473 883 m 280 878 l 280 878 q 280 849 261 832 q 241 815 212 815 l 212 815 q 184 815 164 832 q 144 848 144 877 l 144 877 q 144 907 162 928 q 180 949 211 949 l 211 949 q 241 949 261 929 q 280 908 280 878"},"Å":{"x_min":26,"x_max":535,"ha":570,"o":"m 342 362 l 342 391 q 342 403 341 431 q 339 458 334 486 q 329 513 319 535 q 308 556 290 556 l 290 556 q 280 556 271 543 q 262 529 255 509 q 248 488 243 463 q 237 438 233 415 q 229 392 227 374 q 225 355 224 347 l 224 347 q 284 352 342 362 l 342 362 m 391 816 l 391 816 q 391 790 378 770 q 364 750 343 739 l 343 739 q 387 725 415 687 q 443 648 461 599 q 478 550 488 500 q 497 449 504 413 l 504 413 q 517 348 526 282 q 535 215 535 148 l 535 148 q 535 128 532 100 q 528 72 518 47 q 508 21 491 4 q 474 -14 446 -14 l 446 -14 q 409 -14 391 13 q 372 40 364 78 q 356 115 355 154 q 353 193 352 216 l 352 216 q 280 204 210 195 l 210 195 q 208 172 202 138 q 195 104 182 73 q 168 41 147 18 q 125 -5 94 -5 l 94 -5 q 70 -5 57 13 q 43 30 36 54 q 29 78 28 104 q 26 129 26 146 l 26 146 q 26 203 35 259 q 44 314 56 369 l 56 369 q 65 408 80 464 q 95 519 119 574 q 143 629 177 674 q 210 719 257 736 l 257 736 q 234 747 220 769 q 205 790 205 816 l 205 816 q 205 835 213 852 q 220 868 233 880 q 245 892 262 899 q 279 905 298 905 l 298 905 q 316 905 333 899 q 350 892 363 880 q 376 868 384 852 q 391 835 391 816 m 350 815 l 350 815 q 350 836 335 850 q 320 863 300 863 l 300 863 q 280 863 265 850 q 250 836 250 815 l 250 815 q 250 795 265 782 q 280 768 300 768 l 300 768 q 320 768 335 782 q 350 795 350 815"},"Ç":{"x_min":5,"x_max":472,"ha":482,"o":"m 377 -172 l 377 -172 q 377 -201 363 -226 q 349 -251 327 -269 q 305 -288 277 -299 q 249 -310 222 -310 l 222 -310 q 202 -310 182 -306 q 161 -303 144 -294 q 126 -286 112 -272 q 98 -258 91 -237 l 91 -237 q 88 -230 88 -223 l 88 -223 q 88 -208 101 -196 q 113 -185 127 -185 l 127 -185 q 140 -185 149 -192 q 157 -200 167 -209 q 177 -218 191 -225 q 205 -233 228 -233 l 228 -233 q 248 -233 267 -220 q 285 -208 285 -185 l 285 -185 q 285 -170 275 -160 q 264 -150 250 -142 q 236 -134 222 -127 q 208 -120 201 -110 l 201 -110 q 192 -98 193 -77 q 193 -57 193 -43 l 193 -43 l 193 -38 q 141 -22 106 14 q 70 50 48 98 q 25 145 15 200 q 5 255 5 309 l 5 309 q 5 351 13 401 q 21 451 37 502 q 53 552 78 599 q 102 646 135 682 q 168 718 210 740 q 251 762 301 762 l 301 762 q 350 762 383 738 q 416 713 436 676 q 456 638 464 594 q 472 549 472 509 l 472 509 q 472 490 468 469 q 463 448 453 430 q 443 412 427 400 q 411 388 388 388 l 388 388 q 353 388 336 401 q 319 413 312 432 q 305 451 305 473 q 304 494 303 513 q 302 532 297 545 q 291 557 273 557 l 273 557 q 253 557 238 543 q 223 528 212 505 q 201 482 194 453 q 186 424 182 396 q 177 367 175 342 q 173 316 173 300 l 173 300 q 173 279 175 250 q 176 221 184 195 q 192 168 208 150 q 224 131 254 131 l 254 131 q 274 131 293 136 q 312 141 331 148 q 350 154 370 159 q 389 164 409 164 l 409 164 q 432 164 447 146 q 462 127 462 104 l 462 104 q 462 74 443 47 q 424 19 396 -1 q 367 -22 334 -35 q 300 -48 272 -49 l 272 -49 l 269 -61 q 285 -67 304 -78 q 323 -89 339 -103 q 355 -118 366 -135 q 377 -153 377 -172"},"É":{"x_min":26,"x_max":466,"ha":481,"o":"m 466 157 l 466 157 q 466 138 456 120 l 456 120 q 446 103 409 80 q 372 57 327 37 q 282 16 240 2 q 198 -13 178 -13 l 178 -13 q 164 -13 145 -6 q 126 0 107 10 q 88 20 73 33 q 57 46 50 58 l 50 58 q 46 65 43 86 q 39 107 37 135 q 34 163 32 195 q 30 226 29 255 q 27 283 27 305 q 26 327 26 337 l 26 337 q 26 374 29 422 q 31 470 38 519 q 45 567 59 612 q 72 656 95 687 l 95 687 q 102 696 123 706 q 144 716 173 725 q 201 734 234 742 q 267 750 298 756 q 328 761 353 765 q 378 768 391 768 l 391 768 q 406 768 420 762 q 433 755 443 744 q 452 733 458 720 q 463 706 463 691 l 463 691 q 463 678 460 669 q 456 660 449 649 l 449 649 q 439 636 407 618 q 375 600 338 583 q 300 565 266 551 q 231 537 217 531 l 217 531 q 213 508 209 485 q 204 461 202 437 l 202 437 q 233 453 272 467 q 311 481 346 481 l 346 481 q 417 481 417 411 l 417 411 q 417 394 411 381 q 404 368 394 358 q 383 348 370 341 q 356 333 343 326 l 343 326 q 311 309 276 297 q 241 284 206 272 l 206 272 q 204 264 202 255 q 200 245 200 236 l 200 236 q 200 222 202 208 q 204 194 206 180 l 206 180 q 218 184 245 193 q 271 202 300 211 q 329 220 356 227 q 383 233 396 233 l 396 233 q 411 233 424 227 q 437 220 446 210 q 455 199 461 185 q 466 171 466 157 m 363 921 l 363 921 q 363 910 357 900 q 351 889 343 880 q 334 871 324 864 q 314 856 306 850 l 306 850 q 299 845 291 839 q 282 832 273 827 q 263 821 254 817 q 244 813 235 813 l 235 813 q 227 813 221 818 q 215 822 215 831 l 215 831 q 215 846 227 868 q 238 889 255 910 q 272 930 291 945 q 310 959 326 959 l 326 959 q 340 959 352 948 q 363 936 363 921"},"Ñ":{"x_min":31,"x_max":612,"ha":648,"o":"m 612 429 l 612 429 q 612 407 610 367 q 608 326 603 278 q 597 229 587 179 q 577 128 561 87 q 545 46 522 20 q 499 -7 467 -7 l 467 -7 q 437 -7 412 11 q 387 28 367 54 q 347 79 332 108 q 317 137 307 161 l 307 161 q 286 212 265 262 q 244 311 225 362 l 225 362 l 225 334 q 225 291 225 249 q 224 206 218 164 l 218 164 q 216 147 214 125 q 211 102 206 80 q 201 58 192 39 q 182 20 166 11 l 166 11 q 157 6 150 5 q 142 4 133 2 l 133 2 l 130 2 q 107 2 91 18 q 75 33 64 58 q 53 82 47 113 q 40 143 37 173 q 33 202 32 227 q 31 252 31 267 l 31 267 q 31 290 33 335 q 35 379 42 433 q 48 487 59 544 q 69 601 86 648 q 103 694 127 724 q 151 753 183 753 l 183 753 q 214 753 239 729 q 263 705 282 672 q 301 639 314 603 q 327 567 336 543 l 336 543 q 353 496 369 450 q 385 403 400 355 l 400 355 q 401 353 404 344 q 407 335 411 324 l 411 324 q 415 312 421 297 l 421 297 q 421 310 421 316 q 420 321 420 326 q 420 330 420 337 q 420 344 420 359 l 420 359 q 419 392 419 425 q 418 458 418 490 l 418 490 q 418 504 419 529 q 419 554 422 583 q 424 611 429 640 q 434 669 444 693 q 453 716 468 731 q 482 746 503 746 l 503 746 q 528 746 546 727 q 564 708 576 679 q 588 649 595 613 q 602 576 606 541 q 610 506 611 476 q 612 446 612 429 m 529 909 l 529 909 q 529 894 519 878 q 509 861 494 848 q 479 834 462 826 q 445 817 430 817 l 430 817 q 415 817 401 823 q 386 828 372 835 q 357 842 343 848 q 329 853 315 853 l 315 853 q 304 853 293 847 q 282 840 270 833 q 258 825 246 819 q 233 813 221 813 l 221 813 q 205 813 195 827 q 185 840 185 854 l 185 854 q 185 871 197 887 q 209 903 227 916 q 245 928 265 936 q 284 943 299 943 l 299 943 q 316 943 329 936 q 341 929 352 920 q 363 911 375 904 q 386 897 402 897 l 402 897 q 415 897 427 905 q 438 912 450 922 q 461 931 472 939 q 482 946 494 946 l 494 946 q 508 946 519 934 q 529 922 529 909"},"Ö":{"x_min":20,"x_max":512,"ha":538,"o":"m 259 -33 l 259 -33 q 198 -33 153 -2 q 108 28 79 80 q 49 131 35 199 q 20 267 20 342 l 20 342 q 20 412 36 484 q 51 556 83 614 q 115 672 164 709 q 213 746 281 746 l 281 746 q 347 746 392 711 q 436 675 463 619 q 489 562 501 492 q 512 422 512 352 l 512 352 q 512 274 497 205 q 481 135 450 82 q 418 29 371 -2 q 323 -33 259 -33 m 271 525 l 271 525 q 252 525 239 510 q 225 495 216 471 q 207 446 203 416 q 199 385 199 354 l 199 354 q 199 319 204 284 q 208 249 217 221 q 226 193 240 176 q 253 159 272 159 l 272 159 q 294 159 307 181 q 320 203 328 234 q 335 265 338 298 q 340 331 340 353 l 340 353 q 340 380 337 410 q 333 440 325 466 q 317 491 304 508 q 291 525 271 525 m 452 883 l 452 883 q 452 854 433 837 q 414 820 385 820 l 385 820 q 357 820 337 837 q 316 853 316 882 l 316 882 q 316 912 335 933 q 353 954 384 954 l 384 954 q 414 954 433 934 q 452 913 452 883 m 259 878 l 259 878 q 259 849 240 832 q 220 815 191 815 l 191 815 q 163 815 143 832 q 123 848 123 877 l 123 877 q 123 907 141 928 q 159 949 190 949 l 190 949 q 220 949 240 929 q 259 908 259 878"},"Ü":{"x_min":26,"x_max":566,"ha":602,"o":"m 566 351 l 566 351 q 566 310 562 267 q 558 223 548 182 q 538 141 521 105 q 503 68 476 41 q 449 13 411 -3 q 373 -19 322 -19 l 322 -19 q 247 -19 192 16 q 136 51 99 106 q 62 160 44 228 q 26 295 26 361 l 26 361 q 26 368 26 374 q 26 380 27 385 l 27 385 q 28 406 31 442 q 33 478 39 519 q 45 560 55 603 q 64 646 80 680 q 95 714 117 736 q 139 758 169 758 l 169 758 q 191 758 206 745 q 221 732 231 713 q 240 693 244 672 q 248 650 248 632 l 248 632 q 248 605 243 578 q 237 550 232 523 l 232 523 q 224 480 219 437 q 214 394 214 349 l 214 349 q 214 326 217 293 q 219 260 229 230 q 239 199 258 178 q 276 156 308 156 l 308 156 q 339 156 358 177 q 376 198 385 227 q 394 256 397 288 q 399 320 399 343 l 399 343 q 399 409 388 474 q 377 538 359 602 l 359 602 q 354 619 351 636 q 347 653 347 670 l 347 670 q 347 698 364 719 q 380 740 410 740 l 410 740 q 435 740 457 721 q 478 701 495 670 q 512 638 525 599 q 537 560 546 522 q 555 483 560 448 q 564 413 565 391 l 565 391 q 566 381 566 372 q 566 362 566 351 m 462 883 l 462 883 q 462 854 443 837 q 424 820 395 820 l 395 820 q 367 820 347 837 q 326 853 326 882 l 326 882 q 326 912 345 933 q 363 954 394 954 l 394 954 q 424 954 443 934 q 462 913 462 883 m 269 878 l 269 878 q 269 849 250 832 q 230 815 201 815 l 201 815 q 173 815 153 832 q 133 848 133 877 l 133 877 q 133 907 151 928 q 169 949 200 949 l 200 949 q 230 949 250 929 q 269 908 269 878"},"á":{"x_min":5,"x_max":455,"ha":485,"o":"m 455 141 l 455 141 q 455 123 454 94 q 452 65 445 38 q 438 10 423 -10 q 408 -30 381 -30 l 381 -30 q 344 -30 324 -6 q 304 18 305 54 l 305 54 q 273 26 233 10 q 192 -6 150 -6 l 150 -6 q 121 -6 95 8 q 69 22 49 44 q 29 66 17 94 q 5 121 5 148 l 5 148 q 5 196 35 232 q 64 268 107 294 q 150 319 199 334 q 247 349 285 354 l 285 354 q 285 359 286 363 q 286 367 286 372 l 286 372 q 286 403 269 422 q 252 441 221 441 l 221 441 q 196 441 178 433 q 160 424 144 414 q 128 403 112 395 q 96 386 76 386 l 76 386 q 54 386 39 400 q 23 414 23 436 l 23 436 q 23 469 43 496 q 62 523 92 542 q 121 560 156 571 q 190 581 219 581 l 219 581 q 246 581 273 575 q 300 568 324 555 q 348 541 368 522 q 387 502 399 476 l 399 476 q 417 439 428 398 q 439 356 445 313 q 451 269 453 226 q 455 182 455 141 m 295 173 l 295 173 l 292 241 q 290 241 288 242 q 286 242 284 242 l 284 242 q 271 242 252 236 q 232 229 214 218 q 196 206 184 192 q 171 178 171 163 l 171 163 q 171 149 181 144 q 191 139 204 139 l 204 139 q 226 139 251 151 q 276 162 295 173 m 343 757 l 343 757 q 343 746 337 736 q 331 725 323 716 q 314 707 304 700 q 294 692 286 686 l 286 686 q 279 681 271 675 q 262 668 253 663 q 243 657 234 653 q 224 649 215 649 l 215 649 q 207 649 201 654 q 195 658 195 667 l 195 667 q 195 682 207 704 q 218 725 235 746 q 252 766 271 781 q 290 795 306 795 l 306 795 q 320 795 332 784 q 343 772 343 757"},"à":{"x_min":5,"x_max":455,"ha":485,"o":"m 455 141 l 455 141 q 455 123 454 94 q 452 65 445 38 q 438 10 423 -10 q 408 -30 381 -30 l 381 -30 q 344 -30 324 -6 q 304 18 305 54 l 305 54 q 273 26 233 10 q 192 -6 150 -6 l 150 -6 q 121 -6 95 8 q 69 22 49 44 q 29 66 17 94 q 5 121 5 148 l 5 148 q 5 196 35 232 q 64 268 107 294 q 150 319 199 334 q 247 349 285 354 l 285 354 q 285 359 286 363 q 286 367 286 372 l 286 372 q 286 403 269 422 q 252 441 221 441 l 221 441 q 196 441 178 433 q 160 424 144 414 q 128 403 112 395 q 96 386 76 386 l 76 386 q 54 386 39 400 q 23 414 23 436 l 23 436 q 23 469 43 496 q 62 523 92 542 q 121 560 156 571 q 190 581 219 581 l 219 581 q 246 581 273 575 q 300 568 324 555 q 348 541 368 522 q 387 502 399 476 l 399 476 q 417 439 428 398 q 439 356 445 313 q 451 269 453 226 q 455 182 455 141 m 295 173 l 295 173 l 292 241 q 290 241 288 242 q 286 242 284 242 l 284 242 q 271 242 252 236 q 232 229 214 218 q 196 206 184 192 q 171 178 171 163 l 171 163 q 171 149 181 144 q 191 139 204 139 l 204 139 q 226 139 251 151 q 276 162 295 173 m 318 666 l 318 666 q 318 658 312 654 q 305 649 297 649 l 297 649 q 279 649 260 661 q 240 672 226 680 l 226 680 q 217 686 207 693 q 196 700 187 709 q 177 718 171 729 q 164 739 164 750 l 164 750 q 164 765 175 777 q 186 788 201 788 l 201 788 q 216 788 236 775 q 256 761 275 742 q 293 723 306 702 q 318 681 318 666"},"â":{"x_min":5,"x_max":455,"ha":485,"o":"m 455 141 l 455 141 q 455 123 454 94 q 452 65 445 38 q 438 10 423 -10 q 408 -30 381 -30 l 381 -30 q 344 -30 324 -6 q 304 18 305 54 l 305 54 q 273 26 233 10 q 192 -6 150 -6 l 150 -6 q 121 -6 95 8 q 69 22 49 44 q 29 66 17 94 q 5 121 5 148 l 5 148 q 5 196 35 232 q 64 268 107 294 q 150 319 199 334 q 247 349 285 354 l 285 354 q 285 359 286 363 q 286 367 286 372 l 286 372 q 286 403 269 422 q 252 441 221 441 l 221 441 q 196 441 178 433 q 160 424 144 414 q 128 403 112 395 q 96 386 76 386 l 76 386 q 54 386 39 400 q 23 414 23 436 l 23 436 q 23 469 43 496 q 62 523 92 542 q 121 560 156 571 q 190 581 219 581 l 219 581 q 246 581 273 575 q 300 568 324 555 q 348 541 368 522 q 387 502 399 476 l 399 476 q 417 439 428 398 q 439 356 445 313 q 451 269 453 226 q 455 182 455 141 m 295 173 l 295 173 l 292 241 q 290 241 288 242 q 286 242 284 242 l 284 242 q 271 242 252 236 q 232 229 214 218 q 196 206 184 192 q 171 178 171 163 l 171 163 q 171 149 181 144 q 191 139 204 139 l 204 139 q 226 139 251 151 q 276 162 295 173 m 356 659 l 356 659 q 356 651 353 649 q 350 647 343 647 l 343 647 q 331 647 317 653 q 302 659 288 668 q 273 677 260 687 q 246 697 237 705 l 237 705 q 227 697 214 686 q 200 675 185 666 q 170 656 155 650 q 140 643 127 643 l 127 643 q 122 643 118 645 q 113 647 113 655 l 113 655 q 113 670 126 693 q 139 716 158 737 q 177 758 198 773 q 219 788 235 788 l 235 788 q 251 788 272 774 q 293 759 312 739 q 330 719 343 697 q 356 675 356 659"},"ä":{"x_min":5,"x_max":455,"ha":485,"o":"m 455 141 l 455 141 q 455 123 454 94 q 452 65 445 38 q 438 10 423 -10 q 408 -30 381 -30 l 381 -30 q 344 -30 324 -6 q 304 18 305 54 l 305 54 q 273 26 233 10 q 192 -6 150 -6 l 150 -6 q 121 -6 95 8 q 69 22 49 44 q 29 66 17 94 q 5 121 5 148 l 5 148 q 5 196 35 232 q 64 268 107 294 q 150 319 199 334 q 247 349 285 354 l 285 354 q 285 359 286 363 q 286 367 286 372 l 286 372 q 286 403 269 422 q 252 441 221 441 l 221 441 q 196 441 178 433 q 160 424 144 414 q 128 403 112 395 q 96 386 76 386 l 76 386 q 54 386 39 400 q 23 414 23 436 l 23 436 q 23 469 43 496 q 62 523 92 542 q 121 560 156 571 q 190 581 219 581 l 219 581 q 246 581 273 575 q 300 568 324 555 q 348 541 368 522 q 387 502 399 476 l 399 476 q 417 439 428 398 q 439 356 445 313 q 451 269 453 226 q 455 182 455 141 m 295 173 l 295 173 l 292 241 q 290 241 288 242 q 286 242 284 242 l 284 242 q 271 242 252 236 q 232 229 214 218 q 196 206 184 192 q 171 178 171 163 l 171 163 q 171 149 181 144 q 191 139 204 139 l 204 139 q 226 139 251 151 q 276 162 295 173 m 411 719 l 411 719 q 411 690 392 673 q 373 656 344 656 l 344 656 q 316 656 296 673 q 275 689 275 718 l 275 718 q 275 748 294 769 q 312 790 343 790 l 343 790 q 373 790 392 770 q 411 749 411 719 m 218 714 l 218 714 q 218 685 199 668 q 179 651 150 651 l 150 651 q 122 651 102 668 q 82 684 82 713 l 82 713 q 82 743 100 764 q 118 785 149 785 l 149 785 q 179 785 199 765 q 218 744 218 714"},"ã":{"x_min":5,"x_max":455,"ha":485,"o":"m 455 141 l 455 141 q 455 123 454 94 q 452 65 445 38 q 438 10 423 -10 q 408 -30 381 -30 l 381 -30 q 344 -30 324 -6 q 304 18 305 54 l 305 54 q 273 26 233 10 q 192 -6 150 -6 l 150 -6 q 121 -6 95 8 q 69 22 49 44 q 29 66 17 94 q 5 121 5 148 l 5 148 q 5 196 35 232 q 64 268 107 294 q 150 319 199 334 q 247 349 285 354 l 285 354 q 285 359 286 363 q 286 367 286 372 l 286 372 q 286 403 269 422 q 252 441 221 441 l 221 441 q 196 441 178 433 q 160 424 144 414 q 128 403 112 395 q 96 386 76 386 l 76 386 q 54 386 39 400 q 23 414 23 436 l 23 436 q 23 469 43 496 q 62 523 92 542 q 121 560 156 571 q 190 581 219 581 l 219 581 q 246 581 273 575 q 300 568 324 555 q 348 541 368 522 q 387 502 399 476 l 399 476 q 417 439 428 398 q 439 356 445 313 q 451 269 453 226 q 455 182 455 141 m 295 173 l 295 173 l 292 241 q 290 241 288 242 q 286 242 284 242 l 284 242 q 271 242 252 236 q 232 229 214 218 q 196 206 184 192 q 171 178 171 163 l 171 163 q 171 149 181 144 q 191 139 204 139 l 204 139 q 226 139 251 151 q 276 162 295 173 m 416 745 l 416 745 q 416 730 406 714 q 396 697 381 684 q 366 670 349 662 q 332 653 317 653 l 317 653 q 302 653 288 659 q 273 664 259 671 q 244 678 230 684 q 216 689 202 689 l 202 689 q 191 689 180 683 q 169 676 157 669 q 145 661 133 655 q 120 649 108 649 l 108 649 q 92 649 82 663 q 72 676 72 690 l 72 690 q 72 707 84 723 q 96 739 114 752 q 132 764 152 772 q 171 779 186 779 l 186 779 q 203 779 216 772 q 228 765 239 756 q 250 747 262 740 q 273 733 289 733 l 289 733 q 302 733 314 741 q 325 748 337 758 q 348 767 359 775 q 369 782 381 782 l 381 782 q 395 782 406 770 q 416 758 416 745"},"å":{"x_min":5,"x_max":455,"ha":485,"o":"m 295 173 l 295 173 l 292 241 q 290 241 288 242 q 286 242 284 242 l 284 242 q 271 242 252 236 q 232 229 214 218 q 196 206 184 192 q 171 178 171 163 l 171 163 q 171 149 181 144 q 191 139 204 139 l 204 139 q 226 139 251 151 q 276 162 295 173 m 330 652 l 330 652 q 330 626 316 605 q 301 584 278 573 l 278 573 q 316 562 349 538 q 381 514 399 476 l 399 476 q 417 439 428 398 q 439 356 445 313 q 451 269 453 226 q 455 182 455 141 l 455 141 q 455 123 454 94 q 452 65 445 38 q 438 10 423 -10 q 408 -30 381 -30 l 381 -30 q 344 -30 324 -6 q 304 18 305 54 l 305 54 q 273 26 233 10 q 192 -6 150 -6 l 150 -6 q 121 -6 95 8 q 69 22 49 44 q 29 66 17 94 q 5 121 5 148 l 5 148 q 5 196 35 232 q 64 268 107 294 q 150 319 199 334 q 247 349 285 354 l 285 354 q 285 359 286 363 q 286 367 286 372 l 286 372 q 286 403 269 422 q 252 441 221 441 l 221 441 q 196 441 178 433 q 160 424 144 414 q 128 403 112 395 q 96 386 76 386 l 76 386 q 54 386 39 400 q 23 414 23 436 l 23 436 q 23 464 38 488 q 53 512 77 531 q 100 549 129 561 q 158 573 186 578 l 186 578 q 167 589 155 609 q 143 629 143 652 l 143 652 q 143 671 151 688 q 158 704 171 716 q 184 728 201 735 q 218 741 237 741 l 237 741 q 255 741 272 735 q 289 728 302 716 q 315 704 323 688 q 330 671 330 652 m 289 651 l 289 651 q 289 672 274 686 q 259 699 239 699 l 239 699 q 219 699 204 686 q 188 672 188 651 l 188 651 q 188 631 204 618 q 219 604 239 604 l 239 604 q 259 604 274 618 q 289 631 289 651"},"ç":{"x_min":10,"x_max":383,"ha":409,"o":"m 341 -147 l 341 -147 q 341 -176 327 -201 q 313 -226 291 -245 q 269 -264 241 -275 q 213 -286 186 -286 l 186 -286 q 166 -286 146 -282 q 125 -279 108 -270 q 90 -261 76 -247 q 62 -233 55 -212 l 55 -212 q 52 -206 52 -199 l 52 -199 q 52 -183 65 -172 q 77 -161 91 -161 l 91 -161 q 104 -161 113 -168 q 121 -176 131 -185 q 141 -194 155 -201 q 169 -209 193 -209 l 193 -209 q 213 -209 231 -196 q 249 -183 249 -161 l 249 -161 q 249 -146 239 -136 q 228 -126 214 -118 q 200 -110 186 -102 q 172 -95 165 -85 l 165 -85 q 157 -74 157 -53 q 157 -32 157 -18 l 157 -18 l 157 -5 q 116 4 88 32 q 60 59 43 96 q 26 133 18 175 q 10 217 10 255 l 10 255 q 10 288 16 325 q 22 362 34 398 q 46 434 65 467 q 84 500 110 525 q 135 550 168 565 q 200 580 240 580 l 240 580 q 276 580 303 564 q 330 548 348 522 q 365 496 374 464 q 383 432 383 400 l 383 400 q 383 392 383 381 q 382 370 379 362 l 379 362 q 371 342 353 328 q 335 313 312 313 l 312 313 q 278 313 265 347 l 265 347 q 262 356 263 371 q 263 385 262 399 q 260 412 254 422 q 248 432 233 432 l 233 432 q 215 432 199 411 q 183 389 171 359 q 159 329 152 299 q 145 268 145 250 l 145 250 q 145 237 148 216 q 150 194 157 173 q 163 152 175 137 q 186 122 204 122 l 204 122 q 222 122 237 133 q 252 144 266 158 q 280 171 294 182 q 308 193 325 193 l 325 193 q 346 193 360 177 q 373 161 373 140 l 373 140 q 373 114 361 91 q 349 67 330 48 q 311 29 287 15 q 262 1 237 -5 l 237 -5 l 237 -11 q 237 -17 237 -24 q 236 -32 233 -37 l 233 -37 q 249 -43 268 -53 q 287 -64 303 -78 q 319 -93 330 -110 q 341 -128 341 -147"},"é":{"x_min":15,"x_max":449,"ha":459,"o":"m 449 178 l 449 178 q 449 144 428 112 q 406 79 374 54 q 341 28 304 13 q 267 -3 236 -3 l 236 -3 q 183 -3 142 24 q 100 50 72 91 q 44 132 30 182 q 15 231 15 278 l 15 278 q 15 328 29 385 q 43 442 72 490 q 100 538 144 570 q 187 602 247 602 l 247 602 q 281 602 312 591 q 343 579 366 558 q 389 537 403 508 q 417 479 417 443 l 417 443 q 417 396 397 355 q 377 314 344 284 q 311 254 268 236 q 225 217 180 215 l 180 215 q 184 186 204 173 q 223 160 250 160 l 250 160 q 270 160 289 170 q 308 180 326 193 q 344 205 362 215 q 379 225 397 225 l 397 225 q 417 225 433 212 q 449 199 449 178 m 287 423 l 287 423 q 287 436 280 450 q 273 464 258 464 l 258 464 q 236 464 221 453 q 206 441 196 424 q 186 406 181 386 q 175 366 174 349 l 174 349 q 188 352 208 357 q 227 362 245 371 q 262 379 275 392 q 287 405 287 423 m 343 778 l 343 778 q 343 767 337 757 q 331 746 323 737 q 314 728 304 721 q 294 713 286 707 l 286 707 q 279 702 271 696 q 262 689 253 684 q 243 678 234 674 q 224 670 215 670 l 215 670 q 207 670 201 675 q 195 679 195 688 l 195 688 q 195 703 207 725 q 218 746 235 767 q 252 787 271 802 q 290 816 306 816 l 306 816 q 320 816 332 805 q 343 793 343 778"},"è":{"x_min":15,"x_max":449,"ha":459,"o":"m 449 178 l 449 178 q 449 144 428 112 q 406 79 374 54 q 341 28 304 13 q 267 -3 236 -3 l 236 -3 q 183 -3 142 24 q 100 50 72 91 q 44 132 30 182 q 15 231 15 278 l 15 278 q 15 328 29 385 q 43 442 72 490 q 100 538 144 570 q 187 602 247 602 l 247 602 q 281 602 312 591 q 343 579 366 558 q 389 537 403 508 q 417 479 417 443 l 417 443 q 417 396 397 355 q 377 314 344 284 q 311 254 268 236 q 225 217 180 215 l 180 215 q 184 186 204 173 q 223 160 250 160 l 250 160 q 270 160 289 170 q 308 180 326 193 q 344 205 362 215 q 379 225 397 225 l 397 225 q 417 225 433 212 q 449 199 449 178 m 287 423 l 287 423 q 287 436 280 450 q 273 464 258 464 l 258 464 q 236 464 221 453 q 206 441 196 424 q 186 406 181 386 q 175 366 174 349 l 174 349 q 188 352 208 357 q 227 362 245 371 q 262 379 275 392 q 287 405 287 423 m 308 677 l 308 677 q 308 669 302 665 q 295 660 287 660 l 287 660 q 269 660 250 672 q 230 683 216 691 l 216 691 q 207 697 197 704 q 186 711 177 720 q 167 729 161 740 q 154 750 154 761 l 154 761 q 154 776 165 788 q 176 799 191 799 l 191 799 q 206 799 226 786 q 246 772 265 753 q 283 734 296 713 q 308 692 308 677"},"ê":{"x_min":15,"x_max":449,"ha":459,"o":"m 449 178 l 449 178 q 449 144 428 112 q 406 79 374 54 q 341 28 304 13 q 267 -3 236 -3 l 236 -3 q 183 -3 142 24 q 100 50 72 91 q 44 132 30 182 q 15 231 15 278 l 15 278 q 15 328 29 385 q 43 442 72 490 q 100 538 144 570 q 187 602 247 602 l 247 602 q 281 602 312 591 q 343 579 366 558 q 389 537 403 508 q 417 479 417 443 l 417 443 q 417 396 397 355 q 377 314 344 284 q 311 254 268 236 q 225 217 180 215 l 180 215 q 184 186 204 173 q 223 160 250 160 l 250 160 q 270 160 289 170 q 308 180 326 193 q 344 205 362 215 q 379 225 397 225 l 397 225 q 417 225 433 212 q 449 199 449 178 m 287 423 l 287 423 q 287 436 280 450 q 273 464 258 464 l 258 464 q 236 464 221 453 q 206 441 196 424 q 186 406 181 386 q 175 366 174 349 l 174 349 q 188 352 208 357 q 227 362 245 371 q 262 379 275 392 q 287 405 287 423 m 376 669 l 376 669 q 376 661 373 659 q 370 657 363 657 l 363 657 q 351 657 337 663 q 322 669 308 678 q 293 687 280 697 q 266 707 257 715 l 257 715 q 247 707 234 696 q 220 685 205 676 q 190 666 175 660 q 160 653 147 653 l 147 653 q 142 653 138 655 q 133 657 133 665 l 133 665 q 133 680 146 703 q 159 726 178 747 q 197 768 218 783 q 239 798 255 798 l 255 798 q 271 798 292 784 q 313 769 332 749 q 350 729 363 707 q 376 685 376 669"},"ë":{"x_min":15,"x_max":449,"ha":459,"o":"m 449 178 l 449 178 q 449 144 428 112 q 406 79 374 54 q 341 28 304 13 q 267 -3 236 -3 l 236 -3 q 183 -3 142 24 q 100 50 72 91 q 44 132 30 182 q 15 231 15 278 l 15 278 q 15 328 29 385 q 43 442 72 490 q 100 538 144 570 q 187 602 247 602 l 247 602 q 281 602 312 591 q 343 579 366 558 q 389 537 403 508 q 417 479 417 443 l 417 443 q 417 396 397 355 q 377 314 344 284 q 311 254 268 236 q 225 217 180 215 l 180 215 q 184 186 204 173 q 223 160 250 160 l 250 160 q 270 160 289 170 q 308 180 326 193 q 344 205 362 215 q 379 225 397 225 l 397 225 q 417 225 433 212 q 449 199 449 178 m 287 423 l 287 423 q 287 436 280 450 q 273 464 258 464 l 258 464 q 236 464 221 453 q 206 441 196 424 q 186 406 181 386 q 175 366 174 349 l 174 349 q 188 352 208 357 q 227 362 245 371 q 262 379 275 392 q 287 405 287 423 m 411 730 l 411 730 q 411 701 392 684 q 373 667 344 667 l 344 667 q 316 667 296 684 q 275 700 275 729 l 275 729 q 275 759 294 780 q 312 801 343 801 l 343 801 q 373 801 392 781 q 411 760 411 730 m 218 725 l 218 725 q 218 696 199 679 q 179 662 150 662 l 150 662 q 122 662 102 679 q 82 695 82 724 l 82 724 q 82 754 100 775 q 118 796 149 796 l 149 796 q 179 796 199 776 q 218 755 218 725"},"í":{"x_min":36,"x_max":240,"ha":244,"o":"m 203 358 l 203 358 q 203 344 203 329 q 203 313 202 299 l 202 299 q 201 282 201 254 q 201 225 199 192 q 197 159 193 125 q 188 91 178 63 q 168 35 152 18 q 135 0 110 -1 l 110 -1 q 91 -2 78 14 q 65 30 57 56 q 48 81 44 113 q 40 144 38 174 q 36 203 36 228 q 36 253 36 265 l 36 265 q 36 281 36 311 q 36 340 38 374 q 40 408 46 443 q 51 478 62 507 q 72 536 89 554 q 106 572 132 572 l 132 572 q 159 572 173 545 q 187 518 194 482 q 201 446 202 411 q 203 375 203 358 m 240 757 l 240 757 q 240 746 234 736 q 228 725 220 716 q 211 707 201 700 q 191 692 183 686 l 183 686 q 176 681 168 675 q 159 668 150 663 q 140 657 131 653 q 121 649 112 649 l 112 649 q 104 649 98 654 q 92 658 92 667 l 92 667 q 92 682 104 704 q 115 725 132 746 q 149 766 168 781 q 187 795 203 795 l 203 795 q 217 795 229 784 q 240 772 240 757"},"ì":{"x_min":31,"x_max":203,"ha":244,"o":"m 203 358 l 203 358 q 203 344 203 329 q 203 313 202 299 l 202 299 q 201 282 201 254 q 201 225 199 192 q 197 159 193 125 q 188 91 178 63 q 168 35 152 18 q 135 0 110 -1 l 110 -1 q 91 -2 78 14 q 65 30 57 56 q 48 81 44 113 q 40 144 38 174 q 36 203 36 228 q 36 253 36 265 l 36 265 q 36 281 36 311 q 36 340 38 374 q 40 408 46 443 q 51 478 62 507 q 72 536 89 554 q 106 572 132 572 l 132 572 q 159 572 173 545 q 187 518 194 482 q 201 446 202 411 q 203 375 203 358 m 185 666 l 185 666 q 185 658 179 654 q 172 649 164 649 l 164 649 q 146 649 127 661 q 107 672 93 680 l 93 680 q 84 686 74 693 q 63 700 54 709 q 44 718 38 729 q 31 739 31 750 l 31 750 q 31 765 42 777 q 53 788 68 788 l 68 788 q 83 788 103 775 q 123 761 142 742 q 160 723 173 702 q 185 681 185 666"},"î":{"x_min":1,"x_max":244,"ha":244,"o":"m 203 358 l 203 358 q 203 344 203 329 q 203 313 202 299 l 202 299 q 201 282 201 254 q 201 225 199 192 q 197 159 193 125 q 188 91 178 63 q 168 35 152 18 q 135 0 110 -1 l 110 -1 q 91 -2 78 14 q 65 30 57 56 q 48 81 44 113 q 40 144 38 174 q 36 203 36 228 q 36 253 36 265 l 36 265 q 36 281 36 311 q 36 340 38 374 q 40 408 46 443 q 51 478 62 507 q 72 536 89 554 q 106 572 132 572 l 132 572 q 159 572 173 545 q 187 518 194 482 q 201 446 202 411 q 203 375 203 358 m 244 659 l 244 659 q 244 651 241 649 q 238 647 231 647 l 231 647 q 219 647 205 653 q 190 659 176 668 q 161 677 148 687 q 134 697 125 705 l 125 705 q 115 697 102 686 q 88 675 73 666 q 58 656 43 650 q 28 643 15 643 l 15 643 q 10 643 6 645 q 1 647 1 655 l 1 655 q 1 670 14 693 q 27 716 46 737 q 65 758 86 773 q 107 788 123 788 l 123 788 q 139 788 160 774 q 181 759 200 739 q 218 719 231 697 q 244 675 244 659"},"ï":{"x_min":-29,"x_max":300,"ha":244,"o":"m 203 358 l 203 358 q 203 344 203 329 q 203 313 202 299 l 202 299 q 201 282 201 254 q 201 225 199 192 q 197 159 193 125 q 188 91 178 63 q 168 35 152 18 q 135 0 110 -1 l 110 -1 q 91 -2 78 14 q 65 30 57 56 q 48 81 44 113 q 40 144 38 174 q 36 203 36 228 q 36 253 36 265 l 36 265 q 36 281 36 311 q 36 340 38 374 q 40 408 46 443 q 51 478 62 507 q 72 536 89 554 q 106 572 132 572 l 132 572 q 159 572 173 545 q 187 518 194 482 q 201 446 202 411 q 203 375 203 358 m 300 719 l 300 719 q 300 690 281 673 q 262 656 233 656 l 233 656 q 205 656 185 673 q 164 689 164 718 l 164 718 q 164 748 183 769 q 201 790 232 790 l 232 790 q 262 790 281 770 q 300 749 300 719 m 107 714 l 107 714 q 107 685 88 668 q 68 651 39 651 l 39 651 q 11 651 -9 668 q -29 684 -29 713 l -29 713 q -29 743 -11 764 q 7 785 38 785 l 38 785 q 68 785 88 765 q 107 744 107 714"},"ñ":{"x_min":26,"x_max":452,"ha":478,"o":"m 314 -28 l 314 -28 q 297 -28 287 -12 q 277 3 272 23 q 267 43 266 64 q 264 84 264 95 l 264 95 q 264 125 268 155 q 271 185 276 215 q 280 245 284 275 q 287 305 287 335 l 287 335 q 287 347 286 361 q 285 375 282 388 q 278 400 270 408 q 262 416 249 416 l 249 416 q 240 416 229 402 q 218 387 209 369 q 199 350 193 332 q 186 313 186 304 l 186 304 q 186 282 187 260 q 187 237 187 214 l 187 214 l 187 156 q 186 138 184 119 q 182 100 178 82 l 178 82 q 175 64 169 48 q 163 31 154 19 q 144 6 131 -2 q 118 -10 100 -10 l 100 -10 q 80 -10 67 3 q 54 16 46 37 q 38 57 35 83 q 31 108 30 133 q 28 157 29 178 q 29 198 29 210 l 29 210 l 29 257 q 29 295 28 332 q 26 369 26 406 l 26 406 q 26 426 27 457 q 27 488 34 518 q 41 547 57 568 q 73 589 104 589 l 104 589 q 118 589 129 580 q 140 571 149 558 q 157 545 163 530 q 168 515 171 504 l 171 504 q 181 518 195 531 q 208 544 225 554 q 242 564 263 570 q 284 576 311 576 l 311 576 q 362 576 391 552 q 419 527 433 491 q 446 454 449 412 q 452 370 452 336 l 452 336 q 452 319 449 286 q 446 252 440 212 q 433 171 422 129 q 411 86 396 51 q 381 16 361 -6 q 340 -28 314 -28 m 426 745 l 426 745 q 426 730 416 714 q 406 697 391 684 q 376 670 359 662 q 342 653 327 653 l 327 653 q 312 653 298 659 q 283 664 269 671 q 254 678 240 684 q 226 689 212 689 l 212 689 q 201 689 190 683 q 179 676 167 669 q 155 661 143 655 q 130 649 118 649 l 118 649 q 102 649 92 663 q 82 676 82 690 l 82 690 q 82 707 94 723 q 106 739 124 752 q 142 764 162 772 q 181 779 196 779 l 196 779 q 213 779 226 772 q 238 765 249 756 q 260 747 272 740 q 283 733 299 733 l 299 733 q 312 733 324 741 q 335 748 347 758 q 358 767 369 775 q 379 782 391 782 l 391 782 q 405 782 416 770 q 426 758 426 745"},"ó":{"x_min":15,"x_max":440,"ha":458,"o":"m 220 -29 l 220 -29 q 169 -29 131 -2 q 93 25 67 67 q 41 109 28 161 q 15 212 15 262 l 15 262 q 15 315 28 372 q 41 428 68 475 q 95 521 137 551 q 179 580 237 580 l 237 580 q 293 580 333 550 q 372 519 396 474 q 420 428 430 374 q 440 320 437 272 l 437 272 q 434 219 421 165 q 407 111 381 68 q 355 25 315 -2 q 275 -29 220 -29 m 230 423 l 230 423 q 215 423 204 407 q 192 391 185 368 q 177 345 173 320 q 169 294 169 275 l 169 275 q 169 251 174 223 q 178 195 186 172 q 194 148 206 133 q 217 117 232 117 l 232 117 q 248 117 260 132 q 271 147 278 170 q 285 193 288 221 q 291 248 291 272 l 291 272 q 291 294 287 321 q 283 347 276 370 q 268 393 257 408 q 245 423 230 423 m 343 747 l 343 747 q 343 736 337 726 q 331 715 323 706 q 314 697 304 690 q 294 682 286 676 l 286 676 q 279 671 271 665 q 262 658 253 653 q 243 647 234 643 q 224 639 215 639 l 215 639 q 207 639 201 644 q 195 648 195 657 l 195 657 q 195 672 207 694 q 218 715 235 736 q 252 756 271 771 q 290 785 306 785 l 306 785 q 320 785 332 774 q 343 762 343 747"},"ò":{"x_min":15,"x_max":440,"ha":458,"o":"m 220 -29 l 220 -29 q 169 -29 131 -2 q 93 25 67 67 q 41 109 28 161 q 15 212 15 262 l 15 262 q 15 315 28 372 q 41 428 68 475 q 95 521 137 551 q 179 580 237 580 l 237 580 q 293 580 333 550 q 372 519 396 474 q 420 428 430 374 q 440 320 437 272 l 437 272 q 434 219 421 165 q 407 111 381 68 q 355 25 315 -2 q 275 -29 220 -29 m 230 423 l 230 423 q 215 423 204 407 q 192 391 185 368 q 177 345 173 320 q 169 294 169 275 l 169 275 q 169 251 174 223 q 178 195 186 172 q 194 148 206 133 q 217 117 232 117 l 232 117 q 248 117 260 132 q 271 147 278 170 q 285 193 288 221 q 291 248 291 272 l 291 272 q 291 294 287 321 q 283 347 276 370 q 268 393 257 408 q 245 423 230 423 m 308 666 l 308 666 q 308 658 302 654 q 295 649 287 649 l 287 649 q 269 649 250 661 q 230 672 216 680 l 216 680 q 207 686 197 693 q 186 700 177 709 q 167 718 161 729 q 154 739 154 750 l 154 750 q 154 765 165 777 q 176 788 191 788 l 191 788 q 206 788 226 775 q 246 761 265 742 q 283 723 296 702 q 308 681 308 666"},"ô":{"x_min":15,"x_max":440,"ha":458,"o":"m 220 -29 l 220 -29 q 169 -29 131 -2 q 93 25 67 67 q 41 109 28 161 q 15 212 15 262 l 15 262 q 15 315 28 372 q 41 428 68 475 q 95 521 137 551 q 179 580 237 580 l 237 580 q 293 580 333 550 q 372 519 396 474 q 420 428 430 374 q 440 320 437 272 l 437 272 q 434 219 421 165 q 407 111 381 68 q 355 25 315 -2 q 275 -29 220 -29 m 230 423 l 230 423 q 215 423 204 407 q 192 391 185 368 q 177 345 173 320 q 169 294 169 275 l 169 275 q 169 251 174 223 q 178 195 186 172 q 194 148 206 133 q 217 117 232 117 l 232 117 q 248 117 260 132 q 271 147 278 170 q 285 193 288 221 q 291 248 291 272 l 291 272 q 291 294 287 321 q 283 347 276 370 q 268 393 257 408 q 245 423 230 423 m 356 659 l 356 659 q 356 651 353 649 q 350 647 343 647 l 343 647 q 331 647 317 653 q 302 659 288 668 q 273 677 260 687 q 246 697 237 705 l 237 705 q 227 697 214 686 q 200 675 185 666 q 170 656 155 650 q 140 643 127 643 l 127 643 q 122 643 118 645 q 113 647 113 655 l 113 655 q 113 670 126 693 q 139 716 158 737 q 177 758 198 773 q 219 788 235 788 l 235 788 q 251 788 272 774 q 293 759 312 739 q 330 719 343 697 q 356 675 356 659"},"ö":{"x_min":15,"x_max":440,"ha":458,"o":"m 220 -29 l 220 -29 q 169 -29 131 -2 q 93 25 67 67 q 41 109 28 161 q 15 212 15 262 l 15 262 q 15 315 28 372 q 41 428 68 475 q 95 521 137 551 q 179 580 237 580 l 237 580 q 293 580 333 550 q 372 519 396 474 q 420 428 430 374 q 440 320 437 272 l 437 272 q 434 219 421 165 q 407 111 381 68 q 355 25 315 -2 q 275 -29 220 -29 m 230 423 l 230 423 q 215 423 204 407 q 192 391 185 368 q 177 345 173 320 q 169 294 169 275 l 169 275 q 169 251 174 223 q 178 195 186 172 q 194 148 206 133 q 217 117 232 117 l 232 117 q 248 117 260 132 q 271 147 278 170 q 285 193 288 221 q 291 248 291 272 l 291 272 q 291 294 287 321 q 283 347 276 370 q 268 393 257 408 q 245 423 230 423 m 411 719 l 411 719 q 411 690 392 673 q 373 656 344 656 l 344 656 q 316 656 296 673 q 275 689 275 718 l 275 718 q 275 748 294 769 q 312 790 343 790 l 343 790 q 373 790 392 770 q 411 749 411 719 m 218 714 l 218 714 q 218 685 199 668 q 179 651 150 651 l 150 651 q 122 651 102 668 q 82 684 82 713 l 82 713 q 82 743 100 764 q 118 785 149 785 l 149 785 q 179 785 199 765 q 218 744 218 714"},"õ":{"x_min":15,"x_max":440,"ha":458,"o":"m 220 -29 l 220 -29 q 169 -29 131 -2 q 93 25 67 67 q 41 109 28 161 q 15 212 15 262 l 15 262 q 15 315 28 372 q 41 428 68 475 q 95 521 137 551 q 179 580 237 580 l 237 580 q 293 580 333 550 q 372 519 396 474 q 420 428 430 374 q 440 320 437 272 l 437 272 q 434 219 421 165 q 407 111 381 68 q 355 25 315 -2 q 275 -29 220 -29 m 230 423 l 230 423 q 215 423 204 407 q 192 391 185 368 q 177 345 173 320 q 169 294 169 275 l 169 275 q 169 251 174 223 q 178 195 186 172 q 194 148 206 133 q 217 117 232 117 l 232 117 q 248 117 260 132 q 271 147 278 170 q 285 193 288 221 q 291 248 291 272 l 291 272 q 291 294 287 321 q 283 347 276 370 q 268 393 257 408 q 245 423 230 423 m 426 745 l 426 745 q 426 730 416 714 q 406 697 391 684 q 376 670 359 662 q 342 653 327 653 l 327 653 q 312 653 298 659 q 283 664 269 671 q 254 678 240 684 q 226 689 212 689 l 212 689 q 201 689 190 683 q 179 676 167 669 q 155 661 143 655 q 130 649 118 649 l 118 649 q 102 649 92 663 q 82 676 82 690 l 82 690 q 82 707 94 723 q 106 739 124 752 q 142 764 162 772 q 181 779 196 779 l 196 779 q 213 779 226 772 q 238 765 249 756 q 260 747 272 740 q 283 733 299 733 l 299 733 q 312 733 324 741 q 335 748 347 758 q 358 767 369 775 q 379 782 391 782 l 391 782 q 405 782 416 770 q 426 758 426 745"},"ú":{"x_min":20,"x_max":468,"ha":499,"o":"m 468 286 l 468 286 q 468 231 457 177 q 446 123 420 81 q 394 38 351 12 q 307 -14 242 -14 l 242 -14 q 178 -14 135 12 q 92 37 67 79 q 41 121 31 174 q 20 227 20 282 l 20 282 q 20 342 34 401 l 34 401 q 37 417 46 446 q 54 474 68 502 q 81 529 99 549 q 116 569 137 569 l 137 569 q 157 569 169 558 q 181 547 188 531 q 195 514 197 496 q 199 477 199 462 l 199 462 q 199 439 196 417 q 192 395 188 373 l 188 373 q 184 343 181 313 q 177 283 177 253 l 177 253 q 177 238 179 220 q 180 201 186 184 q 192 167 203 156 q 214 144 234 144 l 234 144 q 260 144 276 158 q 291 172 299 193 q 306 214 308 238 q 310 262 310 282 l 310 282 q 310 326 304 369 q 298 411 293 455 l 293 455 q 292 460 292 469 l 292 469 q 292 484 297 499 q 302 514 311 526 q 320 538 333 546 q 346 553 362 553 l 362 553 q 384 553 401 538 q 418 522 430 498 q 441 473 449 443 q 456 412 461 383 q 465 353 467 327 q 468 301 468 286 m 374 737 l 374 737 q 374 726 368 716 q 362 705 354 696 q 345 687 335 680 q 325 672 317 666 l 317 666 q 310 661 302 655 q 293 648 284 643 q 274 637 265 633 q 255 629 246 629 l 246 629 q 238 629 232 634 q 226 638 226 647 l 226 647 q 226 662 238 684 q 249 705 266 726 q 283 746 302 761 q 321 775 337 775 l 337 775 q 351 775 363 764 q 374 752 374 737"},"ù":{"x_min":20,"x_max":468,"ha":499,"o":"m 468 286 l 468 286 q 468 231 457 177 q 446 123 420 81 q 394 38 351 12 q 307 -14 242 -14 l 242 -14 q 178 -14 135 12 q 92 37 67 79 q 41 121 31 174 q 20 227 20 282 l 20 282 q 20 342 34 401 l 34 401 q 37 417 46 446 q 54 474 68 502 q 81 529 99 549 q 116 569 137 569 l 137 569 q 157 569 169 558 q 181 547 188 531 q 195 514 197 496 q 199 477 199 462 l 199 462 q 199 439 196 417 q 192 395 188 373 l 188 373 q 184 343 181 313 q 177 283 177 253 l 177 253 q 177 238 179 220 q 180 201 186 184 q 192 167 203 156 q 214 144 234 144 l 234 144 q 260 144 276 158 q 291 172 299 193 q 306 214 308 238 q 310 262 310 282 l 310 282 q 310 326 304 369 q 298 411 293 455 l 293 455 q 292 460 292 469 l 292 469 q 292 484 297 499 q 302 514 311 526 q 320 538 333 546 q 346 553 362 553 l 362 553 q 384 553 401 538 q 418 522 430 498 q 441 473 449 443 q 456 412 461 383 q 465 353 467 327 q 468 301 468 286 m 318 646 l 318 646 q 318 638 312 634 q 305 629 297 629 l 297 629 q 279 629 260 641 q 240 652 226 660 l 226 660 q 217 666 207 673 q 196 680 187 689 q 177 698 171 709 q 164 719 164 730 l 164 730 q 164 745 175 757 q 186 768 201 768 l 201 768 q 216 768 236 755 q 256 741 275 722 q 293 703 306 682 q 318 661 318 646"},"û":{"x_min":20,"x_max":468,"ha":499,"o":"m 468 286 l 468 286 q 468 231 457 177 q 446 123 420 81 q 394 38 351 12 q 307 -14 242 -14 l 242 -14 q 178 -14 135 12 q 92 37 67 79 q 41 121 31 174 q 20 227 20 282 l 20 282 q 20 342 34 401 l 34 401 q 37 417 46 446 q 54 474 68 502 q 81 529 99 549 q 116 569 137 569 l 137 569 q 157 569 169 558 q 181 547 188 531 q 195 514 197 496 q 199 477 199 462 l 199 462 q 199 439 196 417 q 192 395 188 373 l 188 373 q 184 343 181 313 q 177 283 177 253 l 177 253 q 177 238 179 220 q 180 201 186 184 q 192 167 203 156 q 214 144 234 144 l 234 144 q 260 144 276 158 q 291 172 299 193 q 306 214 308 238 q 310 262 310 282 l 310 282 q 310 326 304 369 q 298 411 293 455 l 293 455 q 292 460 292 469 l 292 469 q 292 484 297 499 q 302 514 311 526 q 320 538 333 546 q 346 553 362 553 l 362 553 q 384 553 401 538 q 418 522 430 498 q 441 473 449 443 q 456 412 461 383 q 465 353 467 327 q 468 301 468 286 m 387 648 l 387 648 q 387 640 384 638 q 381 636 374 636 l 374 636 q 362 636 348 642 q 333 648 319 657 q 304 666 291 676 q 277 686 268 694 l 268 694 q 258 686 245 675 q 231 664 216 655 q 201 645 186 639 q 171 632 158 632 l 158 632 q 153 632 149 634 q 144 636 144 644 l 144 644 q 144 659 157 682 q 170 705 189 726 q 208 747 229 762 q 250 777 266 777 l 266 777 q 282 777 303 763 q 324 748 343 728 q 361 708 374 686 q 387 664 387 648"},"ü":{"x_min":20,"x_max":468,"ha":499,"o":"m 468 286 l 468 286 q 468 231 457 177 q 446 123 420 81 q 394 38 351 12 q 307 -14 242 -14 l 242 -14 q 178 -14 135 12 q 92 37 67 79 q 41 121 31 174 q 20 227 20 282 l 20 282 q 20 342 34 401 l 34 401 q 37 417 46 446 q 54 474 68 502 q 81 529 99 549 q 116 569 137 569 l 137 569 q 157 569 169 558 q 181 547 188 531 q 195 514 197 496 q 199 477 199 462 l 199 462 q 199 439 196 417 q 192 395 188 373 l 188 373 q 184 343 181 313 q 177 283 177 253 l 177 253 q 177 238 179 220 q 180 201 186 184 q 192 167 203 156 q 214 144 234 144 l 234 144 q 260 144 276 158 q 291 172 299 193 q 306 214 308 238 q 310 262 310 282 l 310 282 q 310 326 304 369 q 298 411 293 455 l 293 455 q 292 460 292 469 l 292 469 q 292 484 297 499 q 302 514 311 526 q 320 538 333 546 q 346 553 362 553 l 362 553 q 384 553 401 538 q 418 522 430 498 q 441 473 449 443 q 456 412 461 383 q 465 353 467 327 q 468 301 468 286 m 421 709 l 421 709 q 421 680 402 663 q 383 646 354 646 l 354 646 q 326 646 306 663 q 285 679 285 708 l 285 708 q 285 738 304 759 q 322 780 353 780 l 353 780 q 383 780 402 760 q 421 739 421 709 m 228 704 l 228 704 q 228 675 209 658 q 189 641 160 641 l 160 641 q 132 641 112 658 q 92 674 92 703 l 92 703 q 92 733 110 754 q 128 775 159 775 l 159 775 q 189 775 209 755 q 228 734 228 704"},"°":{"x_min":10,"x_max":197,"ha":207,"o":"m 197 581 l 197 581 q 197 562 190 546 q 182 529 169 517 q 156 505 139 499 q 122 492 103 492 l 103 492 q 84 492 67 499 q 50 505 38 517 q 25 529 18 546 q 10 562 10 581 l 10 581 q 10 600 18 617 q 25 633 38 645 q 50 657 67 664 q 84 670 103 670 l 103 670 q 122 670 139 664 q 156 657 169 645 q 182 633 190 617 q 197 600 197 581 m 156 580 l 156 580 q 156 600 141 614 q 125 628 105 628 l 105 628 q 85 628 70 614 q 55 600 55 580 l 55 580 q 55 560 70 546 q 85 532 105 532 l 105 532 q 125 532 141 546 q 156 560 156 580"},"¢":{"x_min":15,"x_max":409,"ha":434,"o":"m 409 449 l 409 449 q 409 421 389 400 q 369 379 340 379 l 340 379 q 323 379 310 388 q 297 396 292 413 l 292 413 q 289 423 290 438 q 290 452 289 466 q 287 479 281 489 q 274 498 256 498 l 256 498 q 230 498 209 480 q 187 462 172 436 q 157 409 149 380 q 140 351 140 330 l 140 330 q 140 311 146 286 q 151 261 163 239 q 174 217 191 202 q 208 186 232 186 l 232 186 q 250 186 265 197 q 280 208 294 222 q 307 235 321 247 q 335 258 352 258 l 352 258 q 374 258 387 242 q 399 225 399 205 l 399 205 q 399 178 384 151 q 368 123 344 101 q 320 79 292 66 q 263 52 237 52 l 237 52 q 235 52 234 47 q 233 41 233 40 l 233 40 q 232 32 232 22 q 231 11 227 3 l 227 3 q 222 -8 211 -12 q 199 -17 187 -17 l 187 -17 q 176 -17 164 -11 q 152 -5 152 9 l 152 9 q 152 21 154 33 q 156 45 156 58 l 156 58 q 156 60 156 65 q 156 69 154 71 l 154 71 q 84 117 50 175 q 15 232 15 321 l 15 321 q 15 429 66 506 q 117 583 214 632 l 214 632 q 215 633 217 642 q 219 650 222 661 q 224 671 226 681 q 228 691 229 694 l 229 694 q 242 726 272 726 l 272 726 q 285 726 296 720 q 306 713 306 699 l 306 699 q 306 685 302 669 q 297 652 297 642 l 297 642 l 297 641 q 327 635 348 614 q 369 593 383 566 q 396 538 403 507 q 409 476 409 449"},"£":{"x_min":-10,"x_max":515,"ha":536,"o":"m 515 520 l 515 520 q 515 510 510 501 q 505 491 497 484 q 488 476 478 472 q 468 467 458 467 l 458 467 q 439 467 429 477 q 419 487 408 501 l 408 501 q 388 525 362 542 q 336 559 304 559 l 304 559 q 281 559 266 548 q 250 536 241 518 q 231 500 227 479 q 222 458 222 439 l 222 439 l 222 423 q 235 422 264 420 q 292 418 321 413 q 349 407 371 397 q 392 386 392 368 l 392 368 q 392 356 385 347 q 378 338 367 332 q 356 325 342 322 q 328 318 313 316 l 313 316 q 278 311 234 313 l 234 313 q 235 298 236 285 l 236 285 q 237 274 238 262 q 238 249 239 242 l 239 242 q 240 225 241 209 q 241 193 243 176 l 243 176 q 257 173 275 170 q 293 167 312 164 q 331 161 349 159 q 367 157 381 157 l 381 157 q 401 157 421 161 q 440 165 460 165 l 460 165 q 480 165 497 154 q 514 142 514 118 l 514 118 q 514 99 495 86 q 476 73 451 66 q 425 58 399 55 q 372 52 358 52 l 358 52 q 340 52 325 56 q 309 60 295 65 q 280 69 266 73 q 251 77 234 77 l 234 77 q 214 77 196 73 q 177 68 160 63 q 142 58 126 54 q 109 49 95 49 l 95 49 q 66 49 50 70 q 34 91 34 119 l 34 119 q 34 131 42 141 q 50 151 62 158 q 74 165 88 170 q 101 174 111 177 l 111 177 q 117 195 118 211 q 119 227 119 245 l 119 245 q 119 279 111 314 l 111 314 q 99 314 79 317 q 58 319 39 326 q 19 332 5 343 q -10 353 -10 370 l -10 370 q -10 390 1 400 q 12 410 28 415 q 44 419 62 420 q 80 421 94 421 l 94 421 q 95 477 107 523 q 118 569 144 602 q 169 635 210 654 q 251 672 311 672 l 311 672 q 341 672 377 662 q 413 651 444 632 q 474 612 495 584 q 515 556 515 520"},"§":{"x_min":20,"x_max":394,"ha":415,"o":"m 394 420 l 394 420 q 394 391 383 363 q 372 335 354 311 q 336 287 313 267 q 290 247 266 234 l 266 234 q 287 223 304 206 q 321 188 333 167 q 345 145 352 122 q 358 98 358 75 l 358 75 q 358 31 330 5 q 302 -22 262 -36 q 222 -50 178 -55 q 134 -60 102 -60 l 102 -60 l 94 -60 q 86 -60 76 -58 q 66 -57 57 -53 q 48 -49 42 -42 q 35 -36 35 -25 l 35 -25 q 35 -8 49 2 q 62 12 76 17 l 76 17 q 89 22 115 28 q 140 34 166 43 q 191 52 210 66 q 228 79 228 98 l 228 98 q 228 122 213 140 q 197 157 174 172 q 151 187 124 203 q 97 219 74 240 q 51 260 36 289 q 20 317 20 357 l 20 357 q 20 413 52 455 q 84 496 138 509 l 138 509 q 93 531 65 573 q 37 615 37 666 l 37 666 q 37 710 61 737 q 84 764 119 779 q 153 793 194 798 q 234 803 268 803 l 268 803 q 284 803 301 803 q 318 803 334 801 l 334 801 q 347 799 357 793 q 367 787 367 771 l 367 771 q 367 760 361 754 q 355 747 346 743 q 337 739 327 738 q 316 736 307 734 l 307 734 q 294 731 273 726 q 251 721 230 712 q 209 703 194 690 q 179 676 179 657 l 179 657 q 179 643 195 627 q 211 611 235 593 q 259 575 287 556 q 314 536 338 515 q 362 493 378 470 q 394 446 394 420 m 264 382 l 264 382 q 264 405 246 424 q 228 443 209 449 l 209 449 q 198 444 186 437 q 174 430 165 421 q 155 411 149 399 q 143 387 143 374 l 143 374 q 143 349 160 326 q 177 302 199 292 l 199 292 q 221 306 243 330 q 264 353 264 382"},"•":{"x_min":20,"x_max":187,"ha":208,"o":"m 187 373 l 187 373 q 187 336 165 314 q 142 291 105 291 l 105 291 q 69 291 45 313 q 20 335 20 372 l 20 372 q 20 408 42 436 q 64 464 103 464 l 103 464 q 141 464 164 437 q 187 410 187 373"},"¶":{"x_min":15,"x_max":563,"ha":594,"o":"m 563 430 l 563 430 l 563 340 q 563 325 563 292 q 563 259 561 218 q 559 176 555 132 q 550 88 541 52 q 532 15 518 -8 q 503 -32 481 -32 l 481 -32 q 464 -32 453 -14 q 441 4 433 32 q 425 60 420 94 q 415 128 413 160 q 410 192 409 218 q 408 243 408 254 l 408 254 q 408 263 408 273 q 408 282 409 291 l 409 291 q 397 291 386 290 q 374 288 362 287 l 362 287 q 361 245 360 204 q 359 163 354 122 l 354 122 q 352 107 350 81 q 347 55 340 30 q 332 5 320 -13 q 307 -32 286 -32 l 286 -32 q 264 -32 250 -12 q 235 8 226 39 q 217 70 213 108 q 208 146 207 182 q 205 217 205 247 q 205 277 205 291 l 205 291 q 164 297 130 311 q 95 324 70 347 q 44 370 30 403 q 15 435 15 480 l 15 480 q 15 530 35 569 q 54 607 87 636 q 119 665 161 686 q 203 706 249 719 q 294 731 339 737 q 384 742 423 742 l 423 742 q 433 742 446 742 q 458 742 471 741 q 484 739 495 735 q 506 731 513 724 l 513 724 q 532 705 543 667 q 553 628 558 584 q 562 540 563 498 q 563 456 563 430 m 404 611 l 404 611 q 378 611 350 608 l 350 608 q 358 563 358 517 q 358 471 360 426 l 360 426 q 371 428 381 430 q 390 431 400 433 l 400 433 q 402 478 402 522 q 402 566 404 611 m 214 568 l 214 568 q 195 555 184 538 q 173 521 173 498 l 173 498 q 173 460 206 439 l 206 439 q 207 471 209 504 q 210 536 214 568"},"ß":{"x_min":-36,"x_max":597,"ha":607,"o":"m 597 216 l 597 216 q 597 174 576 134 q 554 93 520 62 q 486 30 444 11 q 402 -8 361 -8 l 361 -8 q 344 -8 327 -5 q 310 -3 296 4 q 282 11 274 24 q 265 36 265 56 l 265 56 q 265 84 276 100 q 287 115 304 124 q 321 133 341 138 q 360 143 377 151 q 394 158 405 170 q 416 182 416 204 l 416 204 q 416 225 400 248 q 383 270 363 296 q 343 321 327 351 q 310 380 310 415 l 310 415 q 310 439 317 462 q 324 484 333 504 q 342 523 349 540 q 356 556 356 569 l 356 569 q 356 581 353 593 q 349 605 342 616 q 335 626 325 633 q 314 639 301 639 l 301 639 q 278 639 265 617 q 251 594 244 564 q 237 533 235 503 q 233 472 233 456 l 233 456 q 233 429 234 402 q 235 374 237 346 l 237 346 q 239 276 242 204 q 244 131 239 60 l 239 60 q 236 31 216 10 q 195 -11 165 -11 l 165 -11 q 148 -11 136 -4 q 124 2 117 13 q 109 24 105 38 q 101 52 100 67 l 100 67 q 95 127 92 188 q 89 248 90 309 l 90 309 q 83 308 77 308 q 71 308 63 308 l 63 308 q 49 308 32 311 q 15 314 0 322 q -15 329 -25 342 q -36 354 -36 372 l -36 372 q -36 392 -21 406 q -7 420 14 429 q 35 438 58 443 q 80 447 96 449 l 96 449 l 96 467 q 96 518 106 574 q 115 630 139 677 q 162 724 203 755 q 243 785 306 785 l 306 785 q 347 785 382 770 q 416 755 442 730 q 467 704 482 669 q 496 634 496 594 l 496 594 q 496 573 492 553 q 487 532 482 512 q 476 491 472 471 q 467 451 467 430 l 467 430 q 467 409 477 394 q 486 378 501 364 q 515 350 532 337 q 549 323 564 306 q 578 289 588 267 q 597 245 597 216"},"®":{"x_min":20,"x_max":565,"ha":586,"o":"m 565 486 l 565 486 q 565 427 544 370 q 522 313 484 269 q 445 225 393 198 q 340 171 278 171 l 278 171 q 220 171 173 194 q 125 217 91 256 q 57 295 39 346 q 20 396 20 451 l 20 451 q 20 510 42 567 q 63 623 102 668 q 140 712 193 739 q 246 766 308 766 l 308 766 q 366 766 413 743 q 460 720 494 681 q 528 642 547 592 q 565 541 565 486 m 497 483 l 497 483 q 497 524 484 563 q 470 601 445 631 q 419 660 384 678 q 348 695 305 695 l 305 695 q 258 695 218 675 q 178 654 150 621 q 121 587 105 544 q 89 501 89 457 l 89 457 q 89 416 103 378 q 117 339 142 310 q 167 280 203 263 q 238 245 282 245 l 282 245 q 329 245 369 266 q 408 286 437 320 q 465 353 481 396 q 497 439 497 483 m 427 539 l 427 539 q 427 509 409 487 q 390 464 367 450 l 367 450 q 374 441 382 429 q 390 417 397 404 q 404 390 409 376 q 414 362 414 350 l 414 350 q 414 333 402 324 q 390 315 373 315 l 373 315 q 362 315 354 321 q 345 326 339 335 q 333 344 329 354 q 325 364 322 373 l 322 373 q 317 384 312 394 q 307 404 300 414 l 300 414 l 264 402 q 263 390 262 375 q 260 359 255 346 q 250 332 240 323 q 230 313 214 313 l 214 313 q 187 313 181 332 q 174 351 174 372 l 174 372 q 174 398 178 423 q 182 448 182 474 l 182 474 q 182 497 181 521 q 179 544 179 567 l 179 567 q 179 572 179 580 q 179 587 181 592 l 181 592 q 185 599 205 607 q 224 614 247 620 q 270 626 292 630 q 314 633 322 633 l 322 633 q 365 633 396 609 q 427 585 427 539 m 331 534 l 331 534 q 331 546 324 551 q 317 555 304 555 l 304 555 q 294 555 284 552 q 273 549 264 545 l 264 545 q 265 529 266 514 q 266 498 265 481 l 265 481 q 274 483 285 488 q 296 492 307 499 q 317 505 324 514 q 331 523 331 534"},"©":{"x_min":20,"x_max":565,"ha":586,"o":"m 565 481 l 565 481 q 565 422 544 365 q 522 308 484 264 q 445 220 393 193 q 340 166 278 166 l 278 166 q 220 166 173 189 q 125 212 91 251 q 57 290 39 341 q 20 391 20 446 l 20 446 q 20 506 42 563 q 63 619 102 664 q 140 708 193 735 q 246 762 308 762 l 308 762 q 366 762 413 739 q 460 716 494 677 q 528 638 547 587 q 565 536 565 481 m 497 479 l 497 479 q 497 520 484 558 q 470 596 445 626 q 419 655 384 673 q 348 690 305 690 l 305 690 q 258 690 218 670 q 178 649 150 616 q 121 582 105 540 q 89 497 89 453 l 89 453 q 89 412 103 374 q 117 335 142 306 q 167 276 203 259 q 238 241 282 241 l 282 241 q 329 241 369 262 q 408 282 437 315 q 465 348 481 391 q 497 434 497 479 m 413 540 l 413 540 q 413 518 400 502 q 386 486 364 486 l 364 486 q 334 486 326 498 q 317 509 316 524 q 315 538 314 550 q 313 561 298 561 l 298 561 q 281 561 270 548 q 259 535 252 517 q 245 499 243 480 q 240 461 240 449 l 240 449 q 240 436 242 423 q 243 410 248 399 q 252 388 262 381 q 271 374 286 374 l 286 374 q 309 374 331 381 q 352 388 375 388 l 375 388 q 386 388 397 382 q 407 375 407 362 l 407 362 q 407 347 394 335 q 381 322 363 313 q 345 304 326 300 q 306 295 294 295 l 294 295 q 222 295 182 338 q 142 381 142 452 l 142 452 q 142 487 155 523 q 167 558 190 587 q 212 615 244 633 q 275 650 313 650 l 313 650 q 363 650 388 618 q 413 586 413 540"},"™":{"x_min":-10,"x_max":455,"ha":444,"o":"m 455 477 l 455 477 q 455 449 441 422 q 426 395 407 371 l 407 371 l 388 345 q 396 306 393 274 l 393 274 q 392 229 376 182 l 376 182 q 395 156 409 129 q 423 102 423 84 l 423 84 q 423 67 409 53 q 394 38 371 38 l 371 38 q 351 38 331 48 q 311 58 291 72 l 291 72 q 275 64 257 59 q 239 54 218 54 l 218 54 q 192 54 170 63 q 147 71 128 86 l 128 86 q 101 63 81 54 q 61 44 39 44 l 39 44 q 16 44 3 58 q -10 71 -10 89 l -10 89 q -10 114 9 149 q 28 183 56 221 l 56 221 q 54 232 53 244 q 52 256 52 267 l 52 267 q 52 301 59 332 l 59 332 q 37 369 19 409 q 1 449 1 475 l 1 475 q 1 496 16 508 q 31 520 57 520 l 57 520 q 81 520 103 507 q 125 493 144 472 l 144 472 q 181 498 231 498 l 231 498 q 257 498 278 491 q 298 484 315 472 l 315 472 q 343 497 365 508 q 386 518 413 518 l 413 518 q 433 518 444 505 q 455 491 455 477 m 225 377 l 225 377 q 210 377 199 366 q 187 355 180 340 q 172 324 168 306 q 164 288 164 275 l 164 275 q 164 258 169 240 q 173 221 181 205 q 189 189 201 179 q 212 168 227 168 l 227 168 q 243 168 254 178 q 265 188 272 204 q 279 220 282 238 q 285 256 285 273 l 285 273 q 285 289 281 307 q 277 325 270 341 q 262 356 251 367 q 240 377 225 377"},"´":{"x_min":31,"x_max":179,"ha":210,"o":"m 179 737 l 179 737 q 179 726 173 716 q 167 705 159 696 q 150 687 140 680 q 130 672 122 666 l 122 666 q 115 661 107 655 q 98 648 89 643 q 79 637 70 633 q 60 629 51 629 l 51 629 q 43 629 37 634 q 31 638 31 647 l 31 647 q 31 662 43 684 q 54 705 71 726 q 88 746 107 761 q 126 775 142 775 l 142 775 q 156 775 168 764 q 179 752 179 737"},"¨":{"x_min":31,"x_max":360,"ha":391,"o":"m 360 658 l 360 658 q 360 629 341 612 q 322 595 293 595 l 293 595 q 265 595 245 612 q 224 628 224 657 l 224 657 q 224 687 243 708 q 261 729 292 729 l 292 729 q 322 729 341 709 q 360 688 360 658 m 167 653 l 167 653 q 167 624 148 607 q 128 590 99 590 l 99 590 q 71 590 51 607 q 31 623 31 652 l 31 652 q 31 682 49 703 q 67 724 98 724 l 98 724 q 128 724 148 704 q 167 683 167 653"},"Æ":{"x_min":26,"x_max":830,"ha":846,"o":"m 830 118 l 830 118 q 830 94 817 79 q 803 64 782 56 l 782 56 q 774 53 751 49 q 727 44 696 39 q 664 34 628 29 q 591 24 558 20 q 524 16 497 14 q 469 11 456 11 l 456 11 q 442 11 429 13 q 416 15 405 20 q 393 25 385 34 q 376 43 372 57 l 372 57 q 367 73 366 95 q 364 117 364 141 q 364 164 365 187 q 365 209 365 226 l 365 226 q 326 221 287 216 q 248 211 210 206 l 210 206 q 208 191 205 169 q 201 146 195 123 q 189 99 181 79 q 172 58 162 46 l 162 46 q 148 32 132 19 q 115 6 94 6 l 94 6 q 70 6 57 24 q 43 41 36 65 q 29 89 28 115 q 26 141 26 158 l 26 158 q 26 201 33 262 q 40 322 55 389 q 69 455 92 521 q 115 586 147 638 q 178 690 219 723 q 260 755 312 755 l 312 755 q 394 755 447 699 l 447 699 q 451 695 465 694 q 478 692 495 692 q 511 691 526 692 q 541 692 549 692 l 549 692 q 562 692 587 692 q 612 692 641 691 q 670 689 700 685 q 730 680 755 671 q 779 662 795 648 q 810 633 810 611 l 810 611 q 810 585 792 571 q 773 557 750 552 l 750 552 q 692 539 628 538 q 563 537 504 534 l 504 534 q 509 511 514 488 q 518 464 520 441 l 520 441 q 520 436 521 429 q 521 421 521 415 l 521 415 q 521 407 522 400 l 522 400 q 547 399 568 398 l 568 398 q 586 397 603 397 q 620 396 626 396 l 626 396 q 648 396 671 397 q 694 397 717 392 l 717 392 q 741 387 755 370 q 768 352 768 328 l 768 328 q 768 313 762 301 q 755 289 740 285 l 740 285 q 726 281 706 278 q 685 275 664 273 q 642 271 621 269 q 600 267 584 266 l 584 266 q 582 266 574 265 q 566 264 557 263 q 548 261 541 259 q 534 257 534 254 l 534 254 q 534 246 535 237 q 535 227 535 218 l 535 218 q 535 207 535 195 q 534 182 534 171 l 534 171 q 534 170 536 170 q 538 169 546 169 l 546 169 q 600 167 654 170 q 707 173 761 173 l 761 173 l 779 173 q 802 171 816 156 q 830 141 830 118 m 364 401 l 364 401 q 364 413 363 441 q 361 468 356 497 q 350 525 340 547 q 329 569 311 569 l 311 569 q 301 569 291 556 q 281 542 272 522 q 262 501 254 476 q 246 451 240 428 q 234 404 230 385 q 225 366 224 358 l 224 358 q 293 364 362 373 l 362 373 q 364 380 364 387 q 364 393 364 401"},"Ø":{"x_min":20,"x_max":512,"ha":538,"o":"m 498 760 l 498 760 q 498 734 489 697 q 479 660 463 617 l 463 617 q 489 560 501 491 q 512 421 512 352 l 512 352 q 512 274 497 205 q 481 135 450 82 q 418 29 371 -2 q 323 -33 259 -33 l 259 -33 q 204 -33 161 -7 l 161 -7 q 135 -46 114 -70 q 92 -95 76 -95 l 76 -95 q 68 -95 63 -90 q 57 -85 54 -77 q 51 -70 50 -61 q 49 -53 49 -47 l 49 -47 q 49 -23 57 10 q 65 42 78 80 l 78 80 q 49 132 35 200 q 20 267 20 342 l 20 342 q 20 412 36 484 q 51 556 83 614 q 115 672 164 709 q 213 746 281 746 l 281 746 q 312 746 338 738 q 363 730 385 716 l 385 716 q 411 754 434 778 q 456 801 473 801 l 473 801 q 489 801 494 786 q 498 771 498 760 m 271 525 l 271 525 q 252 525 239 510 q 225 495 216 471 q 207 446 203 416 q 199 385 199 354 l 199 354 q 199 319 204 284 q 208 249 217 221 q 226 193 240 176 q 253 159 272 159 l 272 159 q 294 159 307 181 q 320 203 328 234 q 335 265 338 298 q 340 331 340 353 l 340 353 q 340 380 337 410 q 333 440 325 466 q 317 491 304 508 q 291 525 271 525"},"¥":{"x_min":0,"x_max":543,"ha":543,"o":"m 543 653 l 543 653 q 543 635 531 614 q 519 592 500 569 q 481 545 458 522 q 434 498 411 478 q 388 457 368 440 q 347 423 335 414 l 335 414 l 335 359 q 343 359 359 359 q 375 358 391 355 q 407 352 419 345 q 431 337 431 324 l 431 324 q 431 313 423 308 q 415 303 404 301 l 404 301 q 370 294 337 293 l 337 293 l 335 248 q 348 246 370 245 q 391 243 404 238 l 404 238 q 424 231 424 214 l 424 214 q 424 202 417 195 q 409 187 397 185 l 397 185 q 382 182 366 181 q 350 180 335 179 l 335 179 q 334 157 334 130 q 334 103 328 80 q 321 56 305 40 q 289 24 258 24 l 258 24 q 235 24 221 35 q 207 46 200 63 q 192 79 190 99 q 187 119 187 137 l 187 137 q 187 158 190 178 l 190 178 q 174 179 154 181 q 133 183 118 188 l 118 188 q 96 196 96 216 l 96 216 q 96 228 104 234 q 112 240 124 242 l 124 242 q 140 244 158 245 q 175 245 191 245 l 191 245 l 195 293 q 177 295 155 298 q 132 300 115 305 l 115 305 q 105 308 99 314 q 93 320 93 331 l 93 331 q 93 344 103 349 q 113 354 124 356 l 124 356 q 141 358 161 359 q 180 359 199 360 l 199 360 l 201 403 q 177 423 143 451 q 108 479 77 512 q 45 544 23 579 q 0 614 0 647 l 0 647 q 0 666 12 677 q 23 687 42 687 l 42 687 q 65 687 97 668 q 128 649 161 623 q 193 596 222 570 q 251 543 269 528 l 269 528 q 286 542 318 570 q 350 598 385 626 q 420 653 453 674 q 485 695 503 695 l 503 695 q 520 695 532 683 q 543 670 543 653"},"µ":{"x_min":21,"x_max":334,"ha":365,"o":"m 334 248 l 334 248 q 334 228 333 201 q 332 173 328 145 q 323 116 316 88 q 308 60 295 38 q 281 15 262 2 q 242 -12 214 -12 l 214 -12 q 185 -12 157 4 q 129 19 121 48 l 121 48 q 121 39 120 11 q 118 -18 113 -48 q 108 -78 99 -101 q 89 -125 71 -125 l 71 -125 q 58 -125 50 -111 q 41 -98 36 -77 q 30 -56 27 -30 q 24 -4 23 20 q 21 44 21 64 q 21 84 21 93 l 21 93 q 21 108 21 136 q 21 164 22 197 q 23 230 27 264 q 30 298 37 326 q 44 353 56 371 q 67 388 84 388 l 84 388 q 95 388 103 378 q 110 368 115 352 q 119 336 121 317 q 122 298 123 280 q 124 262 124 247 q 124 232 124 225 l 124 225 q 124 210 128 189 q 131 167 139 148 q 146 128 160 114 q 173 100 194 100 l 194 100 q 216 100 228 125 q 240 150 246 184 q 252 217 254 250 q 255 282 255 297 l 255 297 q 255 308 255 323 q 255 338 258 352 q 261 366 269 376 q 277 385 294 385 l 294 385 q 310 385 319 368 q 327 351 331 328 q 334 305 334 282 q 334 259 334 248"},"ª":{"x_min":15,"x_max":397,"ha":418,"o":"m 397 362 l 397 362 q 397 347 396 322 q 395 297 389 274 q 383 250 371 233 q 358 216 335 216 l 335 216 q 303 216 286 237 q 269 257 270 288 l 270 288 q 243 264 209 251 q 174 237 138 237 l 138 237 q 114 237 92 249 q 70 260 53 279 q 35 298 25 321 q 15 344 15 368 l 15 368 q 15 408 40 439 q 65 470 102 492 q 138 513 180 526 q 221 538 253 543 l 253 543 q 253 547 254 551 q 254 554 254 558 l 254 558 q 254 584 240 600 q 225 616 199 616 l 199 616 q 178 616 162 609 q 146 602 133 593 q 119 584 106 577 q 92 570 76 570 l 76 570 q 56 570 44 582 q 31 593 31 612 l 31 612 q 31 640 48 663 q 64 686 89 702 q 114 718 143 727 q 172 735 197 735 l 197 735 q 220 735 243 729 q 266 723 287 712 q 307 701 324 685 q 340 668 350 646 l 350 646 q 365 614 374 579 q 383 544 389 507 q 394 470 396 433 q 397 396 397 362 m 261 389 l 261 389 l 259 446 l 252 446 q 241 446 225 441 q 209 435 194 426 q 179 417 168 405 q 157 393 157 380 l 157 380 q 157 369 166 365 q 174 360 184 360 l 184 360 q 203 360 225 370 q 246 379 261 389"},"º":{"x_min":20,"x_max":380,"ha":400,"o":"m 380 467 l 380 467 q 380 429 369 384 q 358 338 336 298 q 313 257 279 230 q 245 203 199 203 l 199 203 q 157 203 124 231 q 90 259 67 300 q 44 341 32 387 q 20 432 20 467 l 20 467 q 20 506 31 555 q 42 604 65 647 q 87 690 122 719 q 157 748 205 748 l 205 748 q 252 748 286 718 q 319 688 340 645 q 361 601 371 553 q 380 504 380 467 m 263 468 l 263 468 q 263 480 260 505 q 256 530 249 555 q 241 580 230 599 q 218 617 201 617 l 201 617 q 185 617 174 600 q 162 582 155 559 q 148 535 145 512 q 142 489 142 478 l 142 478 q 142 465 146 440 q 150 414 159 389 q 167 363 179 344 q 191 325 208 325 l 208 325 q 225 325 236 343 q 247 361 253 385 q 259 408 261 432 q 263 456 263 468"},"æ":{"x_min":5,"x_max":827,"ha":838,"o":"m 827 164 l 827 164 q 827 147 820 130 q 813 112 804 98 l 804 98 q 789 74 769 53 q 748 32 723 17 q 698 1 671 -8 q 643 -18 614 -18 l 614 -18 q 561 -18 519 10 q 477 37 449 80 l 449 80 q 446 71 440 57 q 433 43 424 30 q 415 16 404 7 q 393 -3 381 -3 l 381 -3 q 344 -3 324 21 q 304 45 305 81 l 305 81 q 273 53 233 37 q 192 20 150 20 l 150 20 q 121 20 95 34 q 69 48 49 70 q 29 92 17 120 q 5 147 5 175 l 5 175 q 5 223 35 259 q 64 295 107 321 q 150 346 199 361 q 247 376 285 381 l 285 381 q 285 386 286 390 q 286 394 286 398 l 286 398 q 286 429 269 449 q 252 468 221 468 l 221 468 q 196 468 178 460 q 160 451 144 441 q 128 431 112 423 q 96 414 76 414 l 76 414 q 54 414 39 428 q 23 441 23 464 l 23 464 q 23 498 44 525 q 64 552 94 571 q 124 589 160 599 q 195 608 225 608 l 225 608 q 252 608 280 602 q 307 596 331 584 q 354 571 372 551 q 390 531 399 504 l 399 504 q 408 477 414 449 q 419 421 428 394 l 428 394 q 442 428 462 462 q 482 495 508 521 q 534 546 568 562 q 601 578 642 578 l 642 578 q 675 578 704 568 q 732 558 753 539 q 773 520 785 493 q 797 465 797 431 l 797 431 q 797 383 777 342 q 757 301 724 271 q 691 240 648 222 q 605 203 559 201 l 559 201 q 563 172 583 159 q 602 145 629 145 l 629 145 q 649 145 668 155 q 687 165 705 178 q 723 190 741 200 q 758 210 776 210 l 776 210 q 796 210 812 197 q 827 184 827 164 m 677 404 l 677 404 q 677 422 668 436 q 658 450 638 450 l 638 450 q 613 450 596 437 q 578 424 567 405 q 555 385 550 362 q 544 338 544 318 l 544 318 q 544 316 545 310 q 545 304 549 304 l 549 304 q 570 304 593 311 q 615 318 634 331 q 652 344 665 363 q 677 381 677 404 m 295 201 l 295 201 l 292 267 q 289 268 284 268 l 284 268 q 271 268 252 262 q 232 255 214 244 q 196 232 184 218 q 171 204 171 189 l 171 189 q 171 176 181 171 q 191 166 204 166 l 204 166 q 226 166 251 178 q 276 189 295 201"},"ø":{"x_min":15,"x_max":440,"ha":458,"o":"m 421 603 l 421 603 q 421 581 413 550 q 405 518 391 482 l 391 482 q 418 435 429 379 q 440 322 437 272 l 437 272 q 434 219 421 165 q 407 111 381 68 q 355 25 315 -2 q 275 -29 220 -29 l 220 -29 q 183 -29 153 -14 l 153 -14 q 129 -53 108 -78 q 87 -103 73 -103 l 73 -103 q 59 -103 55 -88 q 50 -74 50 -63 l 50 -63 q 50 -42 58 -12 q 65 17 77 51 l 77 51 q 46 95 31 152 q 15 208 15 262 l 15 262 q 15 315 28 372 q 41 428 68 475 q 95 521 137 551 q 179 580 237 580 l 237 580 q 284 580 321 557 l 321 557 q 344 592 365 615 q 385 637 400 637 l 400 637 q 414 637 418 625 q 421 612 421 603 m 230 423 l 230 423 q 215 423 204 407 q 192 391 185 368 q 177 345 173 320 q 169 294 169 275 l 169 275 q 169 251 174 223 q 178 195 186 172 q 194 148 206 133 q 217 117 232 117 l 232 117 q 248 117 260 132 q 271 147 278 170 q 285 193 288 221 q 291 248 291 272 l 291 272 q 291 294 287 321 q 283 347 276 370 q 268 393 257 408 q 245 423 230 423"},"¿":{"x_min":20,"x_max":477,"ha":498,"o":"m 329 703 l 329 703 q 329 688 321 676 q 312 663 299 654 q 286 645 271 641 q 255 636 241 636 l 241 636 q 218 636 199 648 q 179 660 179 686 l 179 686 q 179 702 187 715 q 195 727 208 735 q 221 743 236 747 q 251 751 266 751 l 266 751 q 288 751 309 740 q 329 728 329 703 m 477 124 l 477 124 q 477 86 455 60 q 432 34 399 18 q 366 1 329 -6 q 291 -13 262 -13 l 262 -13 q 220 -13 177 5 q 134 22 99 52 q 64 82 42 122 q 20 161 20 205 l 20 205 q 20 236 38 264 q 55 291 81 314 q 106 336 136 353 q 165 370 190 380 l 190 380 q 187 403 187 426 q 186 449 186 473 l 186 473 q 186 489 187 511 q 188 533 194 553 q 199 572 212 586 q 224 599 247 599 l 247 599 q 290 599 302 558 l 302 558 q 310 532 311 502 q 312 471 312 445 l 312 445 q 312 434 313 414 q 313 393 313 372 q 312 350 309 332 q 306 313 300 304 l 300 304 q 290 290 268 279 q 246 267 224 254 q 201 240 184 223 q 167 206 167 183 l 167 183 q 167 166 175 152 q 183 138 196 128 q 208 118 224 113 q 240 108 256 108 l 256 108 q 293 108 315 120 q 337 131 353 146 q 368 160 382 172 q 395 183 415 183 l 415 183 q 438 183 458 166 q 477 149 477 124"},"¡":{"x_min":30,"x_max":219,"ha":249,"o":"m 203 713 l 203 713 q 203 697 195 685 q 186 672 173 663 q 160 654 145 650 q 129 645 115 645 l 115 645 q 93 645 74 657 q 55 668 55 694 l 55 694 q 55 711 63 724 q 71 736 84 745 q 96 753 112 757 q 127 761 141 761 l 141 761 q 164 761 184 750 q 203 738 203 713 m 218 298 l 218 298 q 218 279 219 247 q 219 215 217 178 q 215 141 210 103 q 205 65 194 35 q 182 4 163 -15 q 143 -34 113 -34 l 113 -34 q 89 -34 74 -14 q 59 6 50 37 q 41 68 37 107 q 33 145 32 183 q 30 221 31 253 q 31 285 31 304 l 31 304 q 31 321 33 349 q 35 377 40 410 q 44 443 52 477 q 59 510 70 538 q 81 565 96 582 q 110 599 128 599 l 128 599 q 148 599 162 581 q 176 562 186 534 q 196 505 203 470 q 209 435 213 402 q 216 368 217 340 q 218 312 218 298"},"¬":{"x_min":15,"x_max":511,"ha":542,"o":"m 511 141 l 511 141 q 511 136 511 122 q 510 108 509 92 q 507 75 506 62 q 504 48 503 45 l 503 45 q 499 38 488 37 q 477 35 471 35 l 471 35 q 465 35 458 37 q 451 38 446 44 l 446 44 q 444 49 441 66 q 438 83 436 103 q 434 123 433 141 q 431 159 431 166 l 431 166 q 431 183 432 199 q 433 215 435 231 l 435 231 q 387 226 339 223 q 291 220 243 220 l 243 220 q 194 220 140 221 q 86 221 38 229 l 38 229 q 26 231 21 240 q 15 248 15 259 l 15 259 q 15 269 20 278 q 24 287 35 290 l 35 290 q 55 296 89 299 q 122 301 159 302 q 195 303 231 303 q 267 303 292 303 l 292 303 q 308 303 334 303 q 359 303 386 303 q 413 302 438 301 q 463 299 479 295 l 479 295 q 490 293 494 284 q 498 275 500 266 l 500 266 q 502 255 504 239 q 506 222 508 204 q 509 186 510 169 q 511 152 511 141"},"«":{"x_min":10,"x_max":359,"ha":380,"o":"m 359 321 l 359 321 q 359 303 348 280 q 336 256 321 233 q 305 210 288 189 q 270 168 258 155 l 258 155 q 269 143 285 125 q 301 106 316 85 q 330 64 341 43 q 351 22 351 6 l 351 6 q 351 0 349 -6 q 347 -13 339 -13 l 339 -13 q 330 -13 314 -3 q 297 7 278 23 q 258 39 238 58 q 217 77 201 96 q 184 115 174 131 q 163 146 163 155 l 163 155 q 163 166 174 184 q 184 202 201 223 q 217 243 238 264 q 258 285 278 302 q 298 319 316 330 q 333 340 344 340 l 344 340 q 353 340 356 335 q 359 329 359 321 m 207 327 l 207 327 q 207 309 196 286 q 184 262 168 239 q 152 216 135 195 q 117 173 105 160 l 105 160 q 116 148 132 130 q 148 111 163 90 q 178 69 189 48 q 199 27 199 11 l 199 11 q 199 5 197 -1 q 194 -8 186 -8 l 186 -8 q 177 -8 161 2 q 144 12 125 28 q 105 44 85 63 q 64 82 48 101 q 31 120 21 136 q 10 152 10 161 l 10 161 q 10 171 21 189 q 31 207 48 228 q 64 248 85 269 q 105 290 125 307 q 145 324 163 335 q 180 345 191 345 l 191 345 q 201 345 204 340 q 207 335 207 327"},"»":{"x_min":20,"x_max":367,"ha":377,"o":"m 367 159 l 367 159 q 367 146 344 119 q 320 92 290 65 q 259 37 229 17 q 199 -4 186 -4 l 186 -4 q 178 -4 176 2 q 173 8 173 14 l 173 14 q 173 30 184 51 q 195 72 211 93 q 226 113 243 131 q 259 149 270 161 l 270 161 q 259 175 243 197 q 227 218 212 242 q 197 265 186 288 q 175 311 175 329 l 175 329 q 175 337 178 343 q 181 349 190 349 l 190 349 q 201 349 218 338 q 235 327 255 310 q 275 292 295 270 q 315 248 331 227 q 347 206 357 188 q 367 170 367 159 m 214 158 l 214 158 q 214 149 203 134 q 192 118 175 100 q 158 82 137 64 q 116 45 96 30 q 76 14 60 5 q 43 -5 34 -5 l 34 -5 q 26 -5 23 1 q 20 7 20 13 l 20 13 q 20 29 31 50 q 42 71 58 92 q 73 112 90 130 q 107 148 118 160 l 118 160 q 107 174 91 196 q 74 217 59 241 q 44 264 34 287 q 23 310 23 328 l 23 328 q 23 336 26 342 q 28 348 38 348 l 38 348 q 49 348 66 337 q 83 326 103 309 q 122 291 142 269 q 162 247 178 226 q 194 205 204 187 q 214 169 214 158"},"…":{"x_min":10,"x_max":626,"ha":636,"o":"m 175 48 l 175 48 q 175 35 169 25 q 163 14 154 7 q 144 0 133 -4 q 121 -8 109 -8 l 109 -8 q 94 -8 77 -2 q 59 3 45 13 q 30 23 20 37 q 10 50 10 67 l 10 67 q 10 94 33 108 q 56 121 80 121 l 80 121 q 95 121 112 116 q 128 111 143 102 q 157 92 166 79 q 175 65 175 48 m 400 48 l 400 48 q 400 22 379 7 q 358 -8 334 -8 l 334 -8 q 319 -8 302 -2 q 285 3 270 13 q 255 23 246 37 q 236 50 236 67 l 236 67 q 236 94 259 108 q 281 121 305 121 l 305 121 q 320 121 337 116 q 353 111 368 102 q 382 92 391 79 q 400 65 400 48 m 626 48 l 626 48 q 626 22 605 7 q 583 -8 559 -8 l 559 -8 q 544 -8 527 -2 q 510 3 495 13 q 480 23 471 37 q 461 50 461 67 l 461 67 q 461 80 468 91 q 474 101 484 108 q 494 114 506 118 q 518 121 530 121 l 530 121 q 545 121 562 116 q 579 111 593 102 q 607 92 617 79 q 626 65 626 48"}," ":{"x_min":0,"x_max":0,"ha":241,"o":""},"À":{"x_min":26,"x_max":535,"ha":570,"o":"m 535 148 l 535 148 q 535 128 532 100 q 528 72 518 47 q 508 21 491 4 q 474 -14 446 -14 l 446 -14 q 409 -14 391 13 q 372 40 364 78 q 356 115 355 154 q 353 193 352 216 l 352 216 q 280 204 210 195 l 210 195 q 208 172 202 138 q 195 104 182 73 q 168 41 147 18 q 125 -5 94 -5 l 94 -5 q 70 -5 57 13 q 43 30 36 54 q 29 78 28 104 q 26 129 26 146 l 26 146 q 26 203 35 259 q 44 314 56 369 l 56 369 q 62 398 72 437 q 82 476 97 518 q 111 559 131 600 q 150 640 175 672 q 200 704 232 724 q 264 744 303 744 l 303 744 q 341 744 369 727 q 397 710 418 682 q 439 654 453 619 q 467 583 477 547 q 486 510 493 475 q 499 440 504 413 l 504 413 q 517 348 526 282 q 535 215 535 148 m 342 362 l 342 391 q 342 403 341 431 q 339 458 334 486 q 329 513 319 535 q 308 556 290 556 l 290 556 q 280 556 271 543 q 262 529 255 509 q 248 488 243 463 q 237 438 233 415 q 229 392 227 374 q 225 355 224 347 l 224 347 q 284 352 342 362 l 342 362 m 369 820 l 369 820 q 369 812 363 808 q 356 803 348 803 l 348 803 q 330 803 311 815 q 291 826 277 834 l 277 834 q 268 840 258 847 q 247 854 238 863 q 228 872 222 883 q 215 893 215 904 l 215 904 q 215 919 226 931 q 237 942 252 942 l 252 942 q 267 942 287 929 q 307 915 326 896 q 344 877 357 856 q 369 835 369 820"},"Ã":{"x_min":26,"x_max":535,"ha":570,"o":"m 535 148 l 535 148 q 535 128 532 100 q 528 72 518 47 q 508 21 491 4 q 474 -14 446 -14 l 446 -14 q 409 -14 391 13 q 372 40 364 78 q 356 115 355 154 q 353 193 352 216 l 352 216 q 280 204 210 195 l 210 195 q 208 172 202 138 q 195 104 182 73 q 168 41 147 18 q 125 -5 94 -5 l 94 -5 q 70 -5 57 13 q 43 30 36 54 q 29 78 28 104 q 26 129 26 146 l 26 146 q 26 203 35 259 q 44 314 56 369 l 56 369 q 62 398 72 437 q 82 476 97 518 q 111 559 131 600 q 150 640 175 672 q 200 704 232 724 q 264 744 303 744 l 303 744 q 341 744 369 727 q 397 710 418 682 q 439 654 453 619 q 467 583 477 547 q 486 510 493 475 q 499 440 504 413 l 504 413 q 517 348 526 282 q 535 215 535 148 m 342 362 l 342 391 q 342 403 341 431 q 339 458 334 486 q 329 513 319 535 q 308 556 290 556 l 290 556 q 280 556 271 543 q 262 529 255 509 q 248 488 243 463 q 237 438 233 415 q 229 392 227 374 q 225 355 224 347 l 224 347 q 284 352 342 362 l 342 362 m 488 898 l 488 898 q 488 883 478 867 q 468 850 453 837 q 438 823 421 815 q 404 806 389 806 l 389 806 q 374 806 360 812 q 345 817 331 824 q 316 831 302 837 q 288 842 274 842 l 274 842 q 263 842 252 836 q 241 829 229 822 q 217 814 205 808 q 192 802 180 802 l 180 802 q 164 802 154 816 q 144 829 144 843 l 144 843 q 144 860 156 876 q 168 892 186 905 q 204 917 224 925 q 243 932 258 932 l 258 932 q 275 932 288 925 q 300 918 311 909 q 322 900 334 893 q 345 886 361 886 l 361 886 q 374 886 386 894 q 397 901 409 911 q 420 920 431 928 q 441 935 453 935 l 453 935 q 467 935 478 923 q 488 911 488 898"},"Õ":{"x_min":20,"x_max":512,"ha":538,"o":"m 259 -33 l 259 -33 q 198 -33 153 -2 q 108 28 79 80 q 49 131 35 199 q 20 267 20 342 l 20 342 q 20 412 36 484 q 51 556 83 614 q 115 672 164 709 q 213 746 281 746 l 281 746 q 347 746 392 711 q 436 675 463 619 q 489 562 501 492 q 512 422 512 352 l 512 352 q 512 274 497 205 q 481 135 450 82 q 418 29 371 -2 q 323 -33 259 -33 m 271 525 l 271 525 q 252 525 239 510 q 225 495 216 471 q 207 446 203 416 q 199 385 199 354 l 199 354 q 199 319 204 284 q 208 249 217 221 q 226 193 240 176 q 253 159 272 159 l 272 159 q 294 159 307 181 q 320 203 328 234 q 335 265 338 298 q 340 331 340 353 l 340 353 q 340 380 337 410 q 333 440 325 466 q 317 491 304 508 q 291 525 271 525 m 447 898 l 447 898 q 447 883 437 867 q 427 850 412 837 q 397 823 380 815 q 363 806 348 806 l 348 806 q 333 806 319 812 q 304 817 290 824 q 275 831 261 837 q 247 842 233 842 l 233 842 q 222 842 211 836 q 200 829 188 822 q 176 814 164 808 q 151 802 139 802 l 139 802 q 123 802 113 816 q 103 829 103 843 l 103 843 q 103 860 115 876 q 127 892 145 905 q 163 917 183 925 q 202 932 217 932 l 217 932 q 234 932 247 925 q 259 918 270 909 q 281 900 293 893 q 304 886 320 886 l 320 886 q 333 886 345 894 q 356 901 368 911 q 379 920 390 928 q 400 935 412 935 l 412 935 q 426 935 437 923 q 447 911 447 898"},"Œ":{"x_min":20,"x_max":839,"ha":854,"o":"m 839 104 l 839 104 q 839 81 822 64 q 804 46 777 34 q 750 22 716 14 q 682 6 650 2 q 617 -3 589 -4 q 560 -6 544 -6 l 544 -6 q 526 -6 508 3 q 489 11 473 25 q 457 38 444 54 q 431 70 422 84 l 422 84 q 400 29 351 1 q 301 -28 244 -28 l 244 -28 q 203 -28 171 -6 q 139 16 114 51 q 89 86 71 131 q 53 175 42 221 q 31 266 26 309 q 20 351 20 382 l 20 382 q 20 414 28 457 q 35 500 50 546 q 64 592 86 637 q 107 681 135 717 q 163 752 198 774 q 232 796 272 796 l 272 796 q 298 796 324 789 q 349 781 371 767 q 392 753 410 733 q 427 713 436 689 l 436 689 q 441 704 446 715 q 451 726 461 737 l 461 737 q 468 745 486 751 q 503 756 527 760 q 550 763 577 765 q 604 767 629 768 q 654 769 675 769 q 695 769 706 769 l 706 769 q 727 769 749 768 q 771 767 790 760 q 809 752 821 737 q 833 721 833 691 l 833 691 q 833 671 824 658 q 815 645 798 636 l 798 636 q 777 625 749 617 q 720 609 690 604 q 659 598 630 595 q 600 592 577 591 l 577 591 q 569 562 567 533 q 565 504 563 475 l 563 475 q 594 486 628 495 q 662 503 695 503 l 695 503 q 740 503 764 485 q 787 467 787 422 l 787 422 q 787 387 767 370 q 747 352 716 344 l 716 344 q 679 335 642 327 q 605 319 568 310 l 568 310 q 561 289 561 263 l 561 263 q 561 239 565 215 q 568 191 571 167 l 571 167 q 620 170 668 174 q 715 178 764 180 l 764 180 q 779 181 793 175 q 807 168 817 158 q 827 147 833 133 q 839 119 839 104 m 360 357 l 360 357 q 360 377 357 413 q 354 448 345 483 q 335 518 318 544 q 301 570 273 570 l 273 570 q 249 570 232 547 q 215 524 205 493 q 194 462 190 430 q 185 398 185 380 l 185 380 q 185 368 187 347 q 189 326 194 302 q 198 277 205 252 q 212 227 222 207 q 232 187 245 174 q 257 161 273 161 l 273 161 q 301 161 319 184 q 336 207 345 239 q 354 271 357 304 q 360 337 360 357"},"œ":{"x_min":10,"x_max":773,"ha":783,"o":"m 773 193 l 773 193 q 773 158 752 126 q 730 93 698 68 q 666 42 629 27 q 592 11 561 11 l 561 11 q 516 11 485 23 q 453 34 432 53 q 411 71 398 94 q 384 116 374 139 l 374 139 q 357 112 338 87 q 319 61 296 42 q 272 22 244 10 q 215 -2 180 -2 l 180 -2 q 129 -2 97 26 q 64 53 45 95 q 25 136 18 184 q 10 231 10 271 l 10 271 q 10 325 25 388 q 40 450 71 504 q 101 558 149 594 q 196 629 261 629 l 261 629 q 319 629 357 600 q 394 570 410 514 l 410 514 q 443 554 487 583 q 530 611 584 611 l 584 611 q 617 611 646 600 q 674 588 696 568 q 717 548 729 520 q 741 492 741 458 l 741 458 q 741 411 721 370 q 701 329 668 299 q 635 268 593 250 q 550 232 505 229 l 505 229 q 509 200 529 187 q 548 174 574 174 l 574 174 q 595 174 614 185 q 633 195 651 207 q 669 219 687 230 q 704 240 722 240 l 722 240 q 742 240 758 227 q 773 213 773 193 m 612 437 l 612 437 q 612 451 605 465 q 598 478 583 478 l 583 478 q 561 478 546 467 q 530 455 521 438 q 511 421 506 401 q 501 381 499 364 l 499 364 q 513 367 533 372 q 552 376 570 385 q 587 393 600 406 q 612 419 612 437 m 281 344 l 281 344 q 281 353 280 372 q 278 390 274 409 q 269 427 261 441 q 252 454 238 454 l 238 454 q 219 454 205 435 q 190 415 181 389 q 171 363 167 336 q 162 308 162 292 l 162 292 q 162 282 164 263 q 165 244 171 225 q 176 206 185 192 q 194 178 209 178 l 209 178 q 227 178 241 199 q 254 219 263 247 q 272 274 277 302 q 281 330 281 344"},"–":{"x_min":31,"x_max":490,"ha":521,"o":"m 490 255 l 490 255 q 490 246 476 241 q 461 235 438 231 q 415 227 388 225 q 360 222 335 221 q 310 220 290 220 q 270 219 262 219 l 262 219 q 255 219 236 219 q 216 219 191 220 q 165 221 137 223 q 109 225 86 229 q 62 233 47 240 q 31 246 31 255 l 31 255 q 31 266 48 275 q 64 283 90 288 q 115 293 146 296 q 176 299 206 301 q 235 302 259 303 q 282 303 293 303 l 293 303 q 303 303 322 302 q 340 301 362 299 q 383 296 406 292 q 429 288 448 283 q 466 278 478 271 q 490 264 490 255"},"—":{"x_min":31,"x_max":552,"ha":583,"o":"m 552 255 l 552 255 q 552 246 534 241 q 515 235 487 231 q 458 227 424 225 q 389 222 358 221 q 327 220 304 220 q 280 219 272 219 l 272 219 q 265 219 245 219 q 225 219 198 220 q 171 221 142 223 q 112 225 88 229 q 63 233 47 240 q 31 246 31 255 l 31 255 q 31 266 48 275 q 65 283 92 288 q 118 293 151 296 q 183 299 213 301 q 243 302 268 303 q 292 303 303 303 l 303 303 q 313 303 335 302 q 357 301 385 299 q 413 296 443 292 q 472 288 497 283 q 521 278 537 271 q 552 264 552 255"},"“":{"x_min":31,"x_max":375,"ha":385,"o":"m 375 580 l 375 580 q 375 548 354 528 q 333 508 302 508 l 302 508 q 266 508 239 528 q 212 547 212 585 l 212 585 q 212 601 221 627 q 229 652 242 676 q 255 700 271 717 q 287 734 303 734 l 303 734 q 311 734 317 728 q 323 722 323 714 l 323 714 q 323 702 318 691 q 312 680 306 670 q 299 659 294 649 q 289 638 289 628 l 289 628 q 304 638 321 638 l 321 638 q 343 638 359 620 q 375 601 375 580 m 194 580 l 194 580 q 194 548 174 528 q 153 508 121 508 l 121 508 q 86 508 59 528 q 31 547 31 586 l 31 586 q 31 602 40 627 q 48 652 61 676 q 74 700 90 717 q 106 734 122 734 l 122 734 q 131 734 137 728 q 142 722 142 714 l 142 714 q 142 702 137 691 q 131 680 125 670 q 118 659 113 649 q 107 638 108 628 l 108 628 q 123 638 140 638 l 140 638 q 163 638 179 620 q 194 601 194 580"},"”":{"x_min":10,"x_max":354,"ha":385,"o":"m 354 664 l 354 664 q 354 648 346 623 q 338 597 325 573 q 312 549 297 532 q 281 515 266 515 l 266 515 q 246 515 246 536 l 246 536 q 246 548 252 559 q 257 570 263 581 q 269 591 274 601 q 279 611 278 622 l 278 622 q 264 611 246 611 l 246 611 q 223 611 207 630 q 191 648 191 670 l 191 670 q 191 702 212 721 q 233 740 265 740 l 265 740 q 301 740 328 722 q 354 703 354 664 m 174 662 l 174 662 q 174 645 166 620 q 157 594 145 570 q 132 546 116 529 q 100 512 85 512 l 85 512 q 65 512 65 534 l 65 534 q 65 545 70 556 q 75 567 81 578 q 87 588 92 598 q 97 608 97 618 l 97 618 q 82 608 65 608 l 65 608 q 42 608 26 627 q 10 645 10 667 l 10 667 q 10 699 31 719 q 52 738 84 738 l 84 738 q 120 738 147 720 q 174 701 174 662"},"‘":{"x_min":31,"x_max":194,"ha":204,"o":"m 194 580 l 194 580 q 194 548 174 528 q 153 508 121 508 l 121 508 q 86 508 59 528 q 31 547 31 586 l 31 586 q 31 602 40 627 q 48 652 61 676 q 74 700 90 717 q 106 734 122 734 l 122 734 q 131 734 137 728 q 142 722 142 714 l 142 714 q 142 702 137 691 q 131 680 125 670 q 118 659 113 649 q 107 638 108 628 l 108 628 q 123 638 140 638 l 140 638 q 163 638 179 620 q 194 601 194 580"},"’":{"x_min":10,"x_max":174,"ha":205,"o":"m 174 669 l 174 669 q 174 653 166 628 q 157 602 145 578 q 132 554 116 537 q 100 520 85 520 l 85 520 q 65 520 65 541 l 65 541 q 65 553 70 564 q 75 575 81 586 q 87 596 92 606 q 97 616 97 627 l 97 627 q 90 622 82 619 q 73 616 65 616 l 65 616 q 42 616 26 634 q 10 652 10 675 l 10 675 q 10 707 31 726 q 52 745 84 745 l 84 745 q 120 745 147 727 q 174 708 174 669"},"÷":{"x_min":15,"x_max":434,"ha":450,"o":"m 279 436 l 279 436 q 279 411 263 398 q 247 384 223 384 l 223 384 q 200 384 184 397 q 167 410 167 435 l 167 435 q 167 460 182 477 q 196 494 222 494 l 222 494 q 247 494 263 478 q 279 461 279 436 m 434 266 l 434 266 q 434 257 420 252 q 405 246 382 242 q 359 238 332 236 q 304 233 279 232 q 254 231 234 231 q 214 230 206 230 l 206 230 q 196 230 165 231 q 134 231 101 234 q 67 237 41 245 q 15 252 15 266 l 15 266 q 15 277 27 285 q 39 293 58 298 q 77 303 100 306 q 123 309 145 311 q 166 312 184 313 q 201 313 209 313 l 209 313 q 224 313 261 312 q 298 310 337 305 q 375 299 405 290 q 434 281 434 266 m 282 117 l 282 117 q 282 92 266 79 q 250 65 226 65 l 226 65 q 204 65 187 78 q 170 91 170 116 l 170 116 q 170 139 185 157 q 199 174 225 174 l 225 174 q 250 174 266 158 q 282 142 282 117"},"ÿ":{"x_min":14,"x_max":495,"ha":530,"o":"m 247 -291 l 247 -291 q 223 -291 193 -283 q 162 -276 135 -262 q 108 -248 90 -228 q 71 -208 71 -182 l 71 -182 q 71 -172 76 -162 q 81 -152 90 -144 q 98 -137 108 -132 q 118 -128 129 -128 l 129 -128 q 141 -128 153 -131 q 164 -135 176 -140 l 176 -140 q 189 -145 202 -149 q 214 -153 228 -153 l 228 -153 q 253 -153 272 -136 q 290 -119 303 -91 q 316 -64 324 -30 q 332 3 337 36 q 341 69 343 98 q 345 127 346 145 l 346 145 q 311 92 277 64 q 242 35 192 35 l 192 35 q 154 35 126 51 q 97 67 77 93 q 57 119 44 153 q 31 186 25 222 q 18 258 16 293 q 14 327 16 356 l 16 356 q 17 378 22 414 q 26 449 36 483 q 46 517 64 541 q 82 564 111 562 l 111 562 q 130 561 142 546 q 154 530 162 507 q 169 484 173 457 q 176 429 177 402 q 178 375 178 353 q 177 330 177 318 l 177 318 q 177 301 178 284 q 179 267 185 254 q 191 240 204 232 q 216 224 239 224 l 239 224 q 265 224 281 237 q 296 250 304 270 q 311 289 313 312 q 315 334 315 354 l 315 354 q 315 368 315 388 q 315 408 316 430 q 316 452 320 474 q 323 495 331 513 q 338 530 351 541 q 363 552 383 552 l 383 552 q 408 552 426 533 q 444 513 457 482 q 469 450 477 412 q 484 374 488 337 q 492 299 494 268 q 495 236 495 218 l 495 218 q 495 176 492 123 q 489 69 481 13 q 472 -44 455 -98 q 438 -153 411 -196 q 383 -239 343 -265 q 303 -291 247 -291 m 421 709 l 421 709 q 421 680 402 663 q 383 646 354 646 l 354 646 q 326 646 306 663 q 285 679 285 708 l 285 708 q 285 738 304 759 q 322 780 353 780 l 353 780 q 383 780 402 760 q 421 739 421 709 m 228 704 l 228 704 q 228 675 209 658 q 189 641 160 641 l 160 641 q 132 641 112 658 q 92 674 92 703 l 92 703 q 92 733 110 754 q 128 775 159 775 l 159 775 q 189 775 209 755 q 228 734 228 704"},"Ÿ":{"x_min":10,"x_max":481,"ha":445,"o":"m 481 688 l 481 688 q 481 644 470 591 q 458 538 440 484 q 422 430 401 379 q 380 328 362 289 l 362 289 q 352 267 338 234 q 323 200 305 162 q 287 124 267 86 q 246 47 224 17 q 202 -14 179 -33 q 156 -53 133 -53 l 133 -53 q 101 -53 88 -29 q 74 -6 74 23 l 74 23 q 74 51 84 83 q 93 114 108 145 q 122 176 140 205 q 157 234 172 257 l 172 257 q 152 262 133 275 q 114 288 105 306 l 105 306 q 89 341 72 385 q 55 429 42 475 q 28 520 19 566 q 10 611 10 649 l 10 649 q 10 667 14 689 q 18 710 28 729 q 37 747 53 760 q 68 772 91 772 l 91 772 q 117 772 137 753 q 157 733 173 703 q 188 673 199 636 q 210 599 218 563 q 226 527 231 497 q 236 467 240 450 l 240 450 q 244 465 254 496 q 263 526 277 563 q 290 600 308 639 q 325 678 345 710 q 364 742 386 763 q 408 783 431 783 l 431 783 q 446 783 456 772 q 466 761 472 746 q 477 731 479 715 q 481 699 481 688 m 432 894 l 432 894 q 432 865 413 848 q 394 831 365 831 l 365 831 q 337 831 317 848 q 296 864 296 893 l 296 893 q 296 923 315 944 q 333 965 364 965 l 364 965 q 394 965 413 945 q 432 924 432 894 m 239 889 l 239 889 q 239 860 220 843 q 200 826 171 826 l 171 826 q 143 826 123 843 q 103 859 103 888 l 103 888 q 103 918 121 939 q 139 960 170 960 l 170 960 q 200 960 220 940 q 239 919 239 889"},"⁄":{"x_min":31,"x_max":444,"ha":475,"o":"m 444 726 l 444 726 q 444 707 435 678 q 426 648 412 613 q 398 578 380 541 q 362 503 345 468 q 327 433 312 404 q 296 374 286 355 l 286 355 q 279 342 262 310 q 244 277 222 237 q 199 196 174 152 q 148 108 124 72 q 99 36 79 13 q 59 -11 47 -11 l 47 -11 q 37 -11 34 -1 q 31 9 31 17 l 31 17 q 31 37 41 68 q 50 99 65 136 q 80 172 99 212 q 118 251 137 288 q 155 324 172 355 q 188 386 198 407 l 198 407 q 204 420 221 451 q 237 482 259 520 q 280 558 305 599 q 329 640 353 674 q 376 707 397 729 q 417 751 430 751 l 430 751 q 439 751 442 742 q 444 733 444 726"},"€":{"x_min":0,"x_max":609,"ha":620,"o":"m 609 537 l 609 537 q 609 517 595 501 q 581 485 560 485 l 560 485 q 543 485 527 495 q 510 504 491 515 q 471 526 447 536 q 422 545 389 545 l 389 545 q 366 545 341 540 q 315 534 294 522 q 272 510 257 492 q 241 473 239 446 l 239 446 q 277 447 314 448 q 350 449 388 449 l 388 449 q 398 449 417 450 q 435 451 454 449 q 472 446 486 438 q 499 430 499 413 l 499 413 q 499 399 483 391 q 466 382 441 377 q 415 371 385 369 q 354 367 326 367 q 297 366 275 367 q 252 367 243 367 l 243 367 l 243 330 q 300 333 357 333 l 357 333 q 366 333 385 334 q 404 334 423 332 q 442 330 457 323 q 471 316 471 300 l 471 300 q 471 287 457 280 q 443 272 421 268 q 399 263 373 262 q 347 260 323 260 q 298 259 279 260 q 259 260 251 260 l 251 260 q 259 215 295 189 q 330 163 375 163 l 375 163 q 417 163 447 171 q 476 179 496 189 q 516 198 531 206 q 545 214 557 214 l 557 214 q 575 214 590 201 q 605 187 605 168 l 605 168 q 605 151 591 136 q 577 121 556 108 q 534 95 507 85 q 480 74 454 67 q 427 60 405 56 q 383 52 370 52 l 370 52 q 327 52 288 68 q 248 84 216 111 q 183 138 160 175 q 136 211 127 252 l 127 252 q 108 252 81 254 q 54 255 37 260 l 37 260 q 23 264 15 274 q 6 283 6 297 l 6 297 q 6 309 12 315 q 18 320 29 323 l 29 323 q 49 328 72 329 q 95 330 116 331 l 116 331 l 119 359 q 99 361 74 362 q 48 363 29 367 l 29 367 q 0 372 0 400 l 0 400 q 0 420 12 429 q 23 437 40 439 l 40 439 q 59 443 78 444 q 97 445 116 446 l 116 446 q 126 488 149 525 q 172 562 204 589 q 236 616 276 632 q 315 647 359 647 l 359 647 q 373 647 397 644 q 421 641 449 636 q 477 630 506 621 q 534 612 557 600 q 580 588 595 572 q 609 556 609 537"},"‹":{"x_min":10,"x_max":207,"ha":227,"o":"m 207 327 l 207 327 q 207 309 196 286 q 184 262 168 239 q 152 216 135 195 q 117 173 105 160 l 105 160 q 116 148 132 130 q 148 111 163 90 q 178 69 189 48 q 199 27 199 11 l 199 11 q 199 5 197 -1 q 194 -8 186 -8 l 186 -8 q 177 -8 161 2 q 144 12 125 28 q 105 44 85 63 q 64 82 48 101 q 31 120 21 136 q 10 152 10 161 l 10 161 q 10 171 21 189 q 31 207 48 228 q 64 248 85 269 q 105 290 125 307 q 145 324 163 335 q 180 345 191 345 l 191 345 q 201 345 204 340 q 207 335 207 327"},"›":{"x_min":20,"x_max":214,"ha":224,"o":"m 214 158 l 214 158 q 214 149 203 134 q 192 118 175 100 q 158 82 137 64 q 116 45 96 30 q 76 14 60 5 q 43 -5 34 -5 l 34 -5 q 26 -5 23 1 q 20 7 20 13 l 20 13 q 20 29 31 50 q 42 71 58 92 q 73 112 90 130 q 107 148 118 160 l 118 160 q 107 174 91 196 q 74 217 59 241 q 44 264 34 287 q 23 310 23 328 l 23 328 q 23 336 26 342 q 28 348 38 348 l 38 348 q 49 348 66 337 q 83 326 103 309 q 122 291 142 269 q 162 247 178 226 q 194 205 204 187 q 214 169 214 158"}}}
